<?xml version="1.0" encoding="utf-8"?>
<!-- Generator: Adobe Illustrator 25.4.1, SVG Export Plug-In . SVG Version: 6.00 Build 0)  -->
<svg version="1.1" id="Calque_1" xmlns="http://www.w3.org/2000/svg" xmlns:xlink="http://www.w3.org/1999/xlink" x="0px" y="0px"
	 viewBox="0 0 652 466" style="enable-background:new 0 0 652 466;" xml:space="preserve">
<style type="text/css">
	.st0{fill:none;stroke:#F7D400;stroke-width:120;}
	.st1{fill:#86BF58;}
	.st2{fill:#86BE59;}
	.st3{fill:#85BE5A;}
	.st4{fill:#EBEEBF;}
	.st5{clip-path:url(#SVGID_00000058574098457262247640000011778685500298869383_);fill:#EF7F70;}
	.st6{fill:#FFFFFF;}
	.st7{fill:#010202;}
	.st8{fill:#1F2C58;}
</style>
<circle class="st0" cx="376" cy="267" r="138"/>
<path class="st1" d="M652,465.5V0c-77,2.5-231,52.4-231,232S575,462.5,652,465.5z"/>
<g>
	<g>
		<path class="st2" d="M185.4,326c0,0-17.8-0.3-33.5,1.3s-37.5-1.3-37.5-1.3s-8.1,15.6-8.1,47.9c0,0-6.1,37.8-3.2,47.9
			c1.4,4.8,30.4,36.9,30.4,36.9h51.8L185.4,326z"/>
		<path class="st2" d="M185.1,326c0,0,17.8-0.3,33.5,1.3s37.5-1.3,37.5-1.3s8.1,15.6,8.1,47.9c0,0,6.1,37.8,3.2,47.9
			c-1.4,4.8-30.4,36.9-30.4,36.9h-51.8L185.1,326z"/>
	</g>
	<g>
		<circle class="st3" cx="133.1" cy="333.8" r="20.5"/>
		<circle class="st3" cx="237.4" cy="333.8" r="20.5"/>
	</g>
	<g>
		<g>
			<path class="st3" d="M103.1,421.9l30.4,36.9H105c0,0-27.7,0-23.2-27.1C85.7,415.4,103.1,421.9,103.1,421.9z"/>
			<path class="st3" d="M105,458.7c0,0,12.2,10,12.7,6.5c0.5-3.6,0.5-3.6,0.5-3.6s6.9,6.3,7.5,3.7c0.6-2.6,0-5.5,0-5.5
				s6.2,4.1,7.3,4c1-0.2,0.5-5.1,0.5-5.1H105z"/>
		</g>
		<g>
			<path class="st3" d="M267.4,421.9l-30.4,36.9h28.5c0,0,27.7,0,23.2-27.1C284.8,415.4,267.4,421.9,267.4,421.9z"/>
			<path class="st3" d="M265.5,458.7c0,0-12.2,10-12.7,6.5c-0.5-3.6-0.5-3.6-0.5-3.6s-6.9,6.3-7.5,3.7c-0.6-2.6,0-5.5,0-5.5
				s-6.2,4.1-7.3,4c-1-0.2-0.5-5.1-0.5-5.1H265.5z"/>
		</g>
	</g>
	<path class="st4" d="M185.2,405.2c50.8,0,51.8,30.3,51.8,53.5H133.6C133.6,435.4,134.4,405.2,185.2,405.2z"/>
	<g>
		<path class="st2" d="M140.2,445.9c2.2,10.1,9.6,20.7,10.7,19.9c1.2-0.8,0.6-2.9,1.4-2.9c0.8,0,1.8,3.7,3.2,3
			c1.4-0.7,0.8-3.8,1.6-3.6c0.8,0.2,1.8,1.8,2.9,1.8c1.2,0-0.9-6.2-1.8-11.1c-0.8-4.8-5-33-1.7-42.3c3.3-9.3-21.1-1.7-18.5,20.3
			C139,438.4,139.2,441.5,140.2,445.9z"/>
		<path class="st2" d="M230.4,445.9c-2.2,10.1-9.6,20.7-10.7,19.9c-1.2-0.8-0.6-2.9-1.4-2.9c-0.8,0-1.8,3.7-3.2,3
			c-1.4-0.7-0.8-3.8-1.6-3.6c-0.8,0.2-1.8,1.8-2.9,1.8c-1.2,0,0.9-6.2,1.8-11.1c0.8-4.8,5-33,1.7-42.3c-3.3-9.3,21.1-1.7,18.5,20.3
			C231.6,438.4,231.3,441.5,230.4,445.9z"/>
	</g>
	<g>
		<defs>
			<path id="SVGID_1_" d="M184.8,353c-43,0-78,4.1-78,4.1s10.6,14.7,28.8,26.9c13,8.7,29.8,16.1,49.5,16.1
				c19.7,0,36.7-7.4,49.7-16.1c18.1-12,28.7-26.6,28.7-26.6S227.8,353,184.8,353z"/>
		</defs>
		<use xlink:href="#SVGID_1_"  style="overflow:visible;fill:#010202;"/>
		<clipPath id="SVGID_00000124846882395095175480000016973117702957958823_">
			<use xlink:href="#SVGID_1_"  style="overflow:visible;"/>
		</clipPath>
		
			<ellipse style="clip-path:url(#SVGID_00000124846882395095175480000016973117702957958823_);fill:#EF7F70;" cx="185.3" cy="487.3" rx="131.8" ry="112.2"/>
	</g>
	<circle class="st6" cx="237.4" cy="330.5" r="12"/>
	<circle class="st6" cx="133.1" cy="330.5" r="12"/>
	<path class="st7" d="M139,330.5c0,3.3-2.6,5.9-5.9,5.9c-3.3,0-5.9-2.6-5.9-5.9s2.6-5.9,5.9-5.9C136.4,324.7,139,327.4,139,330.5z"
		/>
	<path class="st7" d="M231.5,330.5c0,3.3,2.6,5.9,5.9,5.9c3.3,0,5.9-2.6,5.9-5.9s-2.6-5.9-5.9-5.9
		C234.1,324.7,231.5,327.4,231.5,330.5z"/>
</g>
<circle class="st8" cx="92.5" cy="372.5" r="92.5"/>
</svg>
