<?xml version="1.0" encoding="utf-8"?>
<!-- Generator: Adobe Illustrator 25.2.3, SVG Export Plug-In . SVG Version: 6.00 Build 0)  -->
<svg version="1.1" id="Calque_1" xmlns="http://www.w3.org/2000/svg" xmlns:xlink="http://www.w3.org/1999/xlink" x="0px" y="0px"
	 viewBox="0 0 409.1 300.3" style="enable-background:new 0 0 409.1 300.3;" xml:space="preserve">
<style type="text/css">
	.st0{fill:#000100;}
	.st1{fill:#EDEFC0;}
	.st2{fill:#87BF58;}
	.st3{fill:#FFFFFF;}
	.st4{fill:#1D1D1B;}
	.st5{fill:#EF7F70;}
</style>
<g>
	<path class="st0" d="M110.4,33.9c0,5.2-4.2,9.4-9.4,9.4s-9.4-4.2-9.4-9.4s4.2-9.4,9.4-9.4S110.4,28.7,110.4,33.9z"/>
	<path class="st0" d="M316,33.9c0,5.2-4.2,9.4-9.4,9.4c-5.2,0-9.4-4.2-9.4-9.4s4.2-9.4,9.4-9.4C311.8,24.5,316,28.7,316,33.9z"/>
	<path class="st1" d="M204.6,178.8c107.1,0,109,63.7,109,112.5H96C96,242.5,97.5,178.8,204.6,178.8z"/>
	<path class="st2" d="M405.4,225.8c-10.2-22.7-36.7-13.3-36.7-13.3c0.4-46.1-8.6-92.2-8.6-92.2C360.1,47.1,344.5,0,307.7,0
		c-36.7,0-33.6,28.1-33.6,28.1S258.5,25,204.5,25s-69.6,3.1-69.6,3.1S138,0,101.3,0S48.9,47.1,48.9,120.3c0,0-9.8,39.5-8.6,92.2
		c0,0-26.6-9.4-36.7,13.3c-10,22.6-0.6,63.3,45.5,63.3c0,0,18.7,12.5,21.9,10.2c3.1-2.3,0-10.2,0-10.2s12.5,14.6,15.6,10.5
		c3.1-4.2-0.8-10.5-0.8-10.5s13.8,9.4,17.1,7c1.6-1.2,0.7-3.1-0.7-4.8c-0.4-0.5-0.9-1-1.4-1.5h-0.2c0-0.1,0-0.1,0-0.2
		c-0.8-0.8-1.6-1.4-1.6-1.4h1.6c0-18.3,0.4-38.7,6.8-56.7c0.9,9.6,2.3,20.6,4.2,29.4c4.3,19.9,18.8,40.6,21.1,39.1
		c2.3-1.6,1.2-5.9,2.7-5.9c1.6,0,3.5,7.2,6.2,5.9s1.6-7.5,3.1-7.1c1.6,0.4,3.5,3.5,5.9,3.5c2.3,0-2-12.1-3.5-21.9
		c-1.5-9.5-8.9-61.4-3.3-83.3c14.6-6.9,34.2-11,60.4-11c25.4,0,44.7,3.8,59.2,10.4c6,21.6-1.6,74.3-3.1,83.9
		c-1.6,9.8-5.9,21.9-3.5,21.9c2.4,0,4.3-3.1,5.9-3.5s0.4,5.9,3.1,7.1c2.7,1.3,4.7-5.9,6.3-5.9c1.6,0,0.4,4.3,2.7,5.9
		c2.3,1.6,16.8-19.1,21.1-39.1c2.1-9.7,3.5-22,4.5-32.1c7.4,18.7,7.9,40.2,7.9,59.4h1.7c0,0-0.8,0.6-1.7,1.5l0,0l0,0
		c-1.8,1.8-4.2,4.7-2,6.2c3.2,2.3,17.1-7,17.1-7s-3.9,6.2-0.8,10.5c3.1,4.2,15.6-10.5,15.6-10.5s-3.1,7.8,0,10.2
		c3.1,2.3,21.9-10.2,21.9-10.2C406.2,289.1,415.6,248.4,405.4,225.8z M306.6,10.1c13.2,0,23.8,10.7,23.8,23.8
		c0,13.2-10.7,23.8-23.8,23.8c-13.2,0-23.8-10.7-23.8-23.8C282.7,20.7,293.4,10.1,306.6,10.1z M101,10.1c13.2,0,23.8,10.7,23.8,23.8
		c0,13.2-10.7,23.8-23.8,23.8c-13.2,0-23.8-10.7-23.8-23.8C77.2,20.7,87.9,10.1,101,10.1z M302.2,139.1
		c-25.6,17-58.8,31.6-97.6,31.6c-38.7,0-71.8-14.6-97.3-31.7c-35.9-24-56.7-52.9-56.7-52.9s68.8-7.9,153.2-7.9s154.9,8.9,154.9,8.9
		S337.9,115.3,302.2,139.1z"/>
	<path class="st3" d="M306.6,57.8c13.2,0,23.8-10.7,23.8-23.8c0-13.2-10.7-23.8-23.8-23.8c-13.2,0-23.8,10.7-23.8,23.8
		C282.7,47.1,293.4,57.8,306.6,57.8z"/>
	<path class="st3" d="M101,57.8c13.2,0,23.8-10.7,23.8-23.8c0-13.2-10.7-23.8-23.8-23.8c-13.2,0-23.8,10.7-23.8,23.8
		C77.2,47.1,87.9,57.8,101,57.8z"/>
	<path class="st4" d="M50.6,86c0,0,20.9,28.9,56.7,52.9c23.8-10.5,58.6-17.1,97.3-17.1c38.9,0,73.8,6.7,97.6,17.2
		c35.7-23.7,56.4-52.1,56.4-52.1S288.1,78,203.7,78C119.4,78.1,50.6,86,50.6,86z"/>
	<path class="st5" d="M107.3,138.9c25.5,17.1,58.6,31.7,97.3,31.7c38.8,0,72.1-14.6,97.6-31.6c-23.8-10.6-58.7-17.2-97.6-17.2
		C165.9,121.8,131.1,128.5,107.3,138.9z"/>
	<g>
		<path class="st0" d="M112.7,33.9c0,6.5-5.2,11.7-11.7,11.7s-11.7-5.2-11.7-11.7s5.2-11.7,11.7-11.7
			C107.4,22.2,112.7,27.4,112.7,33.9z"/>
		<path class="st0" d="M318.2,33.9c0,6.5-5.2,11.7-11.7,11.7s-11.7-5.2-11.7-11.7s5.2-11.7,11.7-11.7
			C313,22.2,318.2,27.4,318.2,33.9z"/>
	</g>
</g>
</svg>
