<?xml version="1.0" encoding="UTF-8"?> <!-- Generator: Adobe Illustrator 25.0.1, SVG Export Plug-In . SVG Version: 6.00 Build 0) --> <svg xmlns="http://www.w3.org/2000/svg" xmlns:xlink="http://www.w3.org/1999/xlink" version="1.1" id="Calque_1" x="0px" y="0px" viewBox="0 0 300 100" xml:space="preserve"> <g> <path fill="#EA4335" d="M128.382,52.592c0,14.208-11.115,24.677-24.755,24.677S78.872,66.8,78.872,52.592 c0-14.308,11.115-24.677,24.755-24.677S128.382,38.284,128.382,52.592z M117.546,52.592c0-8.879-6.442-14.953-13.919-14.953 s-13.919,6.075-13.919,14.953c0,8.79,6.442,14.953,13.919,14.953S117.546,61.371,117.546,52.592z"></path> <path fill="#FBBC05" d="M181.787,52.592c0,14.208-11.115,24.677-24.755,24.677c-13.64,0-24.755-10.47-24.755-24.677 c0-14.297,11.115-24.677,24.755-24.677C170.672,27.915,181.787,38.284,181.787,52.592z M170.95,52.592 c0-8.879-6.442-14.953-13.919-14.953s-13.919,6.075-13.919,14.953c0,8.79,6.442,14.953,13.919,14.953S170.95,61.371,170.95,52.592z "></path> <path fill="#4285F4" d="M232.966,29.406v44.304c0,18.224-10.748,25.668-23.453,25.668c-11.96,0-19.159-8-21.874-14.542l9.435-3.927 c1.68,4.016,5.797,8.756,12.428,8.756c8.133,0,13.173-5.018,13.173-14.464v-3.549h-0.378c-2.425,2.993-7.098,5.607-12.995,5.607 c-12.339,0-23.643-10.748-23.643-24.577c0-13.93,11.304-24.766,23.643-24.766c5.886,0,10.559,2.615,12.995,5.518h0.378v-4.016 h10.292L232.966,29.406z M223.442,52.681c0-8.689-5.797-15.042-13.173-15.042c-7.477,0-13.741,6.353-13.741,15.042 c0,8.6,6.264,14.864,13.741,14.864C217.646,67.546,223.442,61.282,223.442,52.681z"></path> <path fill="#34A853" d="M249.933,3.438v72.319h-10.57V3.438H249.933z"></path> <path fill="#EA4335" d="M291.121,60.714l8.411,5.607c-2.715,4.016-9.257,10.937-20.561,10.937 c-14.019,0-24.488-10.837-24.488-24.677c0-14.675,10.559-24.677,23.275-24.677c12.806,0,19.07,10.191,21.117,15.699L300,46.406 l-32.988,13.663c2.526,4.951,6.453,7.477,11.96,7.477C284.49,67.546,288.318,64.831,291.121,60.714L291.121,60.714z M265.231,51.836l22.052-9.157c-1.213-3.082-4.862-5.229-9.157-5.229C272.619,37.45,264.953,42.312,265.231,51.836z"></path> <path fill="#4285F4" d="M38.863,46.173v-10.47h35.28c0.345,1.825,0.523,3.983,0.523,6.32c0,7.855-2.147,17.568-9.068,24.488 c-6.731,7.009-15.332,10.748-26.725,10.748C17.757,77.259,0,60.058,0,38.941S17.757,0.623,38.874,0.623 c11.682,0,20.004,4.584,26.257,10.559l-7.388,7.388c-4.484-4.206-10.559-7.477-18.881-7.477c-15.421,0-27.481,12.428-27.481,27.848 s12.061,27.848,27.481,27.848c10.002,0,15.699-4.016,19.348-7.666c2.959-2.959,4.907-7.187,5.674-12.962L38.863,46.173z"></path> </g> <g display="none"> <path display="inline" fill="#33475B" d="M32.491,21.548v23.986H10.455V21.548H0v57.258h10.458V55.598h22.03v23.208h10.46V21.548 H32.491z M76.421,60.299c0,4.779-3.874,8.653-8.653,8.653c-4.779,0-8.653-3.874-8.653-8.653V35.773h-9.92v24.526 c0.004,10.247,8.315,18.551,18.562,18.547c10.242-0.004,18.543-8.306,18.547-18.547V35.773h-9.883V60.299z M149.924,38.3 c0-5.029,3.325-6.623,6.968-6.623c2.938,0,6.815,2.236,9.354,4.947l6.495-7.658c-3.243-4.387-9.821-7.418-15.207-7.418 c-10.763,0-18.546,6.303-18.546,16.752c0,19.387,23.694,13.234,23.694,24.085c0,3.345-3.249,6.3-6.968,6.3 c-5.867,0-7.769-2.867-10.463-5.901l-7.211,7.497c4.613,5.66,10.302,8.536,17.114,8.536c10.225,0,18.45-6.379,18.45-16.353 c0-21.521-23.697-14.833-23.697-24.164 M296.51,69.658c-5.861,0-7.528-2.536-7.528-6.419V46.046h9.113v-8.711h-9.113V25.842 l-10.059,4.514v35.021c0,8.958,6.181,13.472,14.655,13.472c1.33,0.023,2.66-0.085,3.968-0.317L300,69.497 c-1.107,0.076-2.377,0.153-3.49,0.153 M114.181,36.058c-4.913,0-8.343,1.426-11.66,4.678V21.891h-9.934v34.933 c0,13.075,9.453,22.036,20.077,22.036c11.785,0,22.152-9.119,22.152-21.396c0-12.125-9.541-21.396-20.635-21.396 M114.119,68.86 c-6.226,0-11.274-5.048-11.274-11.274s5.048-11.274,11.274-11.274s11.274,5.048,11.274,11.274S120.345,68.86,114.119,68.86 L114.119,68.86 M222.068,56.942c0-12.3-10.344-21.396-22.152-21.396c-10.622,0-20.077,8.958-20.077,22.036v34.953h9.934V73.663 c3.311,3.246,6.747,4.678,11.655,4.678c11.094,0,20.638-9.272,20.638-21.399 M212.66,56.818c0,6.226-5.048,11.274-11.274,11.274 c-6.227,0-11.274-5.048-11.274-11.274l0,0c0-6.226,5.048-11.274,11.274-11.274C207.613,45.544,212.66,50.591,212.66,56.818"></path> <path display="inline" fill="#FF7A59" d="M254.168,35.065v-9.982c2.693-1.258,4.418-3.956,4.432-6.928v-0.229 c0-4.245-3.442-7.687-7.687-7.687h-0.229c-4.245,0-7.687,3.441-7.687,7.687c0,0,0,0,0,0v0.229c0.014,2.972,1.74,5.67,4.432,6.928 v9.982c-3.791,0.581-7.362,2.152-10.35,4.557l-27.376-21.323c0.195-0.705,0.297-1.429,0.308-2.157 c0.009-4.783-3.86-8.668-8.643-8.677c-4.783-0.009-8.668,3.86-8.677,8.643c-0.009,4.783,3.86,8.668,8.643,8.677 c0.002,0,0.004,0,0.006,0c1.499-0.007,2.969-0.407,4.265-1.16l26.958,20.977c-4.956,7.487-4.823,17.245,0.334,24.594l-8.199,8.202 c-0.663-0.212-1.353-0.324-2.049-0.334c-3.928,0.003-7.11,3.19-7.107,7.118c0.003,3.928,3.19,7.11,7.118,7.107 c3.924-0.003,7.103-3.183,7.107-7.107c-0.009-0.696-0.122-1.386-0.334-2.049l8.111-8.114c9.571,7.369,23.304,5.583,30.673-3.988 s5.583-23.304-3.988-30.673C261.292,37.098,257.831,35.621,254.168,35.065 M250.806,67.895c-6.195,0.17-11.356-4.714-11.526-10.909 c-0.17-6.195,4.714-11.356,10.909-11.526c0.206-0.006,0.412-0.006,0.617,0c6.194,0.217,11.039,5.414,10.822,11.608 c-0.206,5.885-4.926,10.61-10.811,10.822"></path> </g> </svg> 