<?xml version="1.0" encoding="UTF-8"?> <!-- Generator: Adobe Illustrator 25.2.0, SVG Export Plug-In . SVG Version: 6.00 Build 0) --> <svg xmlns="http://www.w3.org/2000/svg" xmlns:xlink="http://www.w3.org/1999/xlink" version="1.1" id="Calque_1" x="0px" y="0px" viewBox="0 0 500 500" style="enable-background:new 0 0 500 500;" xml:space="preserve"> <style type="text/css"> .st0{fill:#1F2C58;} .st1{fill:#94B7BD;} .st2{fill:#FF6161;} </style> <g> <path class="st0" d="M275.5,3.4c4.5,3,9.3,4.5,14.8,4c1.1-0.1,2.2,0,3.3-0.1c1.5-0.2,2.7,0.1,3.4,1.6c1,0.9,2.2,1.3,3.5,1.4 c4.2,0.2,8.3,0.7,11.9,3.2c0.1,0.1,0.3,0.2,0.4,0.3c0,0.2,0.2,0.4,0.4,0.4l0,0c0,0.2,0.2,0.4,0.4,0.3l0,0c0,0.2,0.2,0.3,0.4,0.4 l0,0c0,0.2,0.2,0.4,0.4,0.4c3.3,3.3,6.7,6.4,10.9,8.7c1.4,0.8,1.7,1.6,0.7,2.9c-0.4,0.6-0.9,1.2-1,2c-0.6,1.2-0.7,2.3,0.1,3.4l0,0 c0.6,2.6,2.8,3.4,5,4.1c2.4,0.8,3.3,0.5,4.7-1.7c1.7-2.7,3.2-5.5,4.8-8.2c1.1-1,2.1-0.7,3,0.3c0.5,0.5,0.9,1,1.4,1.5 c0,0.2,0.1,0.4,0.4,0.4l0,0c-0.1,0.6,0.4,1,0.8,1.4c2.6,2.7,3.4,6,2.9,9.6c-0.2,1.3-0.5,2.6-0.1,4.2c2.1-2.3,4.6-2.6,7.2-2.4 c0.7,0.1,1.6,0,1.8,0.9c0.2,0.8-0.7,1-1.3,1.3c-0.6,0.4-1.4,0.5-1.9,1.1c-0.1,0-0.1,0.1-0.2,0.1c-0.3-0.1-0.6,0-0.8,0.4l0,0 c-0.3-0.1-0.6,0-0.7,0.4l0,0c-0.2,0-0.4,0-0.4,0.3l0,0c-3.4,1.1-4.3,3.1-2.7,6.2c0.5,1,1,2.1,2,2.8c0.9,1.7,2.3,3,3.8,4.1 c0.8,0.6,1.7,0.4,2.6,0c3.2-1.5,6.1-3.3,8.8-5.6c0.2,0.1,0.4,0,0.5-0.3c0.1-0.1,0.3-0.2,0.4-0.3c0.8,0,1.3-0.8,2.1-0.9 c0.1,0.1,0.1,0.1,0.2,0.2c-0.7,1.3-1.7,2.2-2.7,3.2c-3.9,3.9-7.8,7.8-11.7,11.7c-0.9,0.9-1.5,1.9-0.4,3c1.2,1,2.4,2.1,4,2.5l0,0 c0,0.3,0.1,0.4,0.3,0.4l0,0c0.1,0.1,0.2,0.2,0.3,0.3c6.4,4.6,13.1,9,19,14.3c4.7,4.2,8.2,9.2,11.3,14.5c3.9,6.7,8.1,13.3,11.6,20.3 c1.6,3.4,2.3,6.6,0.7,10.3c-1.1,2.4-0.7,3.7,1.5,5.3c2.3,1.7,2.7,3.9,2.1,6.5c-1.2,5-3.4,9.6-5.5,14.3c-0.3,0.2-0.4,0.5-0.3,0.8 l0,0c-2.3,3.1-2.3,4.9,0.4,7.6c1,1,2.1,2,3.3,2.9c3.9,2.9,7.8,5.6,12.3,7.6c0.4,0.4,0.7,0.7,1.1,1.1c-0.1,3.6-0.4,7.1,0,10.7 c0.5,5.7-1.1,10.8-4.4,15.4c-1.3,1.8-2.3,3.8-3.5,5.6c-0.6,0.9-0.7,1.7,0.1,2.5c1.9,4.6,4.3,8.9,6.7,13.2c0.1,0.2,0.2,0.3,0.3,0.5 c0,0.1,0.1,0.1,0.1,0.2c0,0.2,0,0.4,0.3,0.5l0,0c0,0.8,0.5,1.5,0.8,2.2c2.4,4.8,4.7,9.6,5.9,14.8c-0.4,2.2-1.9,3.8-3.1,5.6 c-1.6,2.4-3.5,4.6-4.8,7.2c-0.8,1.7-1.1,3.5,0.1,5.1c1.2,1.7,3.1,2,5.1,1.8c4.5-0.5,9-1.3,13.5-0.1c0.2,1.1-0.4,1.6-1.3,1.9 c-0.8,0.2-1.6,0.3-2.4,0.5c-5.1,0.9-10.2,1.5-15.2,2.9c-0.9,0.3-2.4,0.2-2.3,1.7c0.1,1.3,1.3,1.6,2.5,1.9c0.5,0.1,1,0.2,1.5,0.2 c3.6,0,7.1-0.6,10.5-1.8c2.5-0.2,4.6,0.5,6.3,2.4c-6.2,2.2-11.9,5.1-17,9.1c-1.6,1.7-1.5,2.4,0.7,2.9c2.1,0.5,4.1,0.3,6.2,0.2 c1.3-0.1,2.6-1,3.9-0.2c-0.6,1.3-1.4,2.2-2.8,2.8c-2.3,1-4,3.1-5.8,4.9c-2.8,2.9-3.1,4.8-1.5,8.4c0.4,0.8,0.7,1.5,1.1,2.3 c0.3,1.3,0.7,2.6,1,3.9c0.1,0.6,0.2,1.2-0.1,1.8c-1.6,2.9-1.3,6.1-1.7,9.2c-0.4,3.2-0.9,6.3-1.7,9.4c-0.6,2.2-1.7,4.1-3.4,5.6 c-5.1,4.5-10.8,8.1-17.3,10.2c-1.7,0.6-3.4,0.4-5-0.3c-3.2-1.4-5.8-3.7-8.9-5.1c-1-0.9-2.3-1.5-3.5-1c-1.1,0.5-0.8,1.9-1,3 c-0.1,0.6,0,1.2,0,1.8l0,0c-0.3,0.5-0.4,1-0.1,1.5c0,0.3,0,0.7,0,1c-0.3,0.5-0.2,1,0.1,1.5c0.5,3.4,1.3,6.8,2.6,10 c0.5,1.2,0.5,2.3,0,3.6c-1.2,2.9-3,5.3-5.1,7.6c-0.2,0-0.4,0.1-0.4,0.4l0,0c-0.2,0-0.4,0.1-0.4,0.4l0,0c-0.3,0-0.4,0.1-0.3,0.4l0,0 c-0.7-0.1-1.1,0.5-1.6,0.8c-3.7,2.3-7.6,4.1-12.2,4c-4.2-0.7-6.2-3.7-7.5-7.3c-1.8-5-1.9-10.3-2.1-15.6c-0.2-3.9-0.4-7.8-1.8-11.5 c-0.6-1.7-1.8-2.4-3.1-1.8c-1.9,1-3.7,2.3-4.6,4.3l0,0c-0.3-0.1-0.4,0.1-0.4,0.4l0,0c-0.3,0-0.4,0.1-0.4,0.4l0,0 c-0.2,0.1-0.4,0.3-0.6,0.4c-0.6,0.7-1.1,1.4-1.7,2.1c-0.7,0.5-0.9,1.4-1.9,1.8c0.2-6,0.2-11.9-1.6-18c-0.3,1-0.4,1.5-0.6,2.1 c-1.3,4-3,7.7-6.2,10.5c-1.5,1.3-3.2,2.6-5.4,2.5c-2.2-0.1-3.8-2.8-2.7-4.5c3.4-5.3,4.9-11.1,5.1-17.3c0.1-3.5,0-7,0.1-10.5 c0.1-2.8,0.8-5.2,3.8-6.4c1-0.4,1.8-1.1,2.4-2c1.9-2.6,4.1-4.9,6.7-6.8l0,0c0.2-0.1,0.4-0.2,0.6-0.3c0.6-0.3,1.3-0.5,1.9-0.8 c1.5-0.7,3.1-1.3,3.8-3c1.6-0.5,1.9-1.5,1.2-2.9c-0.3-0.6-0.7-1.2-1.1-1.9c1.1-2.5,2.4-4.8,4.3-6.7c1.6-1.6,2-1.5,3.5,0.1 c0.3,0.3,0.8,0.6,1.1,0.9c0.8,1.8,2,2.1,3.5,0.9c0.8-0.7,1.2-1.5,1.6-2.4c1.7-4.3,3.5-8.5,5-12.8c1.1-3.2,1.4-6.6-0.2-9.8 c0-0.2-0.1-0.4-0.1-0.6c0.5-1.8,0.1-2.5-1.8-2.9c-2.3-0.5-4.6-0.2-6.9-0.2c-1.8-0.3-2.7-1.7-3.7-2.9c-1.4-1.8-3.1-0.7-4.7-0.4 c-1.5,0.2-1.4,1.4-1.5,2.5c-0.1,0.7-0.2,1.3-0.2,2c-2.2,1.6-2.3,1.7-0.5,4c0.8,1,1,1.8,0.6,3c-0.6,1.9-1.1,3.9-1.6,5.8h0.1 c-0.3-0.1-0.3,0.1-0.3,0.3c-0.8,0.8-1.8,1.3-2.8,1.8c-2-0.6-4.1-0.7-6.2-1c-1.7-0.2-2.8,0.6-3.4,2.1c-0.6,1.6-0.9,3.3-0.8,5.1 c0.1,2.8,0.4,5.5,0.3,8.3c-0.1,4.2-2.6,7.4-6.6,8.7c-1.2,0.4-1.9,0.3-2.2-1.1c-0.8-3-1.7-5.9-2.7-8.8c-2.8-8.9-5.3-17.8-8.4-26.6 c-0.4-1.1-0.8-2.2-1.1-3.3c-0.3-1.3-1.6-2.2-1.4-3.7c-0.1-1.1,0.9-2.6-1.1-3.2c-0.3-0.1-0.2-0.5-0.2-0.8c1.2-5.1-0.9-9.4-3.1-13.7 c-0.1-0.2-0.3-0.3-0.4-0.5c-0.8-2.6-1.9-5.1-3.7-7.2l0,0c-0.2-0.1-0.4-0.3-0.5-0.4c-0.4-0.7-0.9-1.3-1.7-1.6c0-0.3,0-0.5-0.4-0.6 l0,0c-0.1-0.4-0.3-0.7-0.8-0.4l0,0c0.2-0.3,0-0.5-0.2-0.6c-4.8-3.4-10.1-5.5-15.7-6.8l0,0c-1.2-1.7-2.8-2.9-4.6-3.8 c-3-1.6-6.1-3.1-9.1-4.9c-2.9-1.7-2.8-2.6,0-4.1c0.9-0.5,1.6-0.8,0.9-2.2c-4.5-8.3-13.7-12.4-22.9-10.2c-1.2,0.3-1.8,0.8-1.5,2 c-0.1,0.6-0.4,0.5-0.7,0.2c-1.4-2.2-2.2-4.6-3.1-7c-0.4-1.6-0.7-3.3-1.1-4.9c0-0.2-0.1-0.3-0.1-0.5c-0.4-2.5-0.4-5.6-2.5-7.1 c-2.7-2-5.4-4.2-8.3-6c-2.1-1.2-4.4-1.8-6.7-2.2c-1.6-0.3-2.5-1-2.3-2.7c0.2-1,0.1-2.1-0.1-3.1c-0.7-4.4-2.3-5.8-6.7-5.9 c-0.5,0-1.1-0.1-1.6-0.1c-0.8-1-1.3-2.3-2.5-2.8c-2.1-1.8-4.7-1.9-7.2-2.2c-1.7-0.2-3.2-0.1-4.2,1.5c-0.1,0-0.3,0.1-0.4,0.1 c-1.4,0-2.6-0.6-3.8-1.4c-0.9-0.6-1.9-1-2.9-0.5c-2.7,0-5.4-0.1-8.1,0.1c-3.3,0.2-6.7,0.5-8.9,3.6c-1.9,1.2-4.2,1.7-6.3,2.7 c-0.3,0-0.7-0.1-0.8,0.3l0,0c-0.4,0-0.9-0.1-1.1,0.4l0,0c-3.2,0.5-6.1,1.8-9,3.2c-2.3,1.2-4.6,1.2-6.9,0.5c-5.2-1.4-9.8-4-14-7.3 c-0.1-0.1-0.2-0.3-0.4-0.4c-0.1-0.1-0.2-0.3-0.2-0.3c-4.4,0.8-8.8,0.6-13.2,1.5c-0.8,0.2-1.8,0.4-2.2,1.3c-1.3,2.8-3.5,4.9-5.6,7.1 c-0.5,0.5-0.8,1-0.6,1.6c0.8,2.8-0.3,5.1-2,7.1c-1.8,2.2-2.9,4.6-3,7.5c-0.1,1.7-0.2,3.7-1.6,5c-0.7,0.7-0.9,1.4-0.9,2.3 c0.1,4.1-0.1,8.3-0.4,12.4c-0.4,5.8-0.3,11.7-2.4,17.1c-1.6,4.3-1.9,8.6-1.6,13c0,1.1,0,2.3,0,3.4c0,3.3,0.1,6.5,4.1,7.7 c0.6,0.2,1.2,0.8,1.3,1.5c0.4,2.3,2.1,3,4,3.5c0.8,0.2,1.5,0.6,2.2,1c7.6,4,14.4,9,20.7,14.7c1.5,1.3,2.6,2.8,2.9,4.8 c0.3,2.1,1.5,3.6,3.5,4.1c3.3,1,4.8,3.6,6.3,6.3c0.7,1.3,0.7,2.6-0.5,3.6c-1.1,0.5-1.4,1.4-1.3,2.6c0.1,1.2-0.1,2.6-1.4,2.6 c-1.4-0.1-2.1,0.7-3,1.3c-0.7,0.1-1.4,0.1-2,0.2c-1.8,0-2.8,1.4-4.2,2.1c-5,2.3-10.2,2.7-15.5,2c-5-0.6-9.3-5.2-9.8-10.1 c0.1-1.9,0.5-3.8,0.4-5.8c0.5-2.9,1.1-5.8-1.1-8.4c1-0.5,1.8-0.5,2.7-0.6c3.2-0.5,6.5,0,9.7-0.3c1.3-0.1,2.2-0.7,2.7-1.9 c0.3-0.6,0.3-1.1-0.4-1.4c-1.5-0.9-2.9-2-4.7-2.3l0,0c-0.3-0.5-0.7-0.5-1.1-0.4l0,0c-0.1-0.5-0.4-0.4-0.8-0.4l0,0 c-3-1.7-6.4-2.3-9.7-2.8c-2.7-0.4-3.6,0.6-3.1,3.3c0.1,0.5,0.3,0.9,0.5,1.4c0,0.4,0.4,0.9,0,1.2c-0.1,0.1-0.6-0.2-0.9-0.3 c-0.2-0.1-0.4-0.1-0.7-0.2l0,0c0-0.4-0.1-0.6-0.5-0.6l0,0c0-0.3-0.1-0.4-0.3-0.4l0,0c0-0.3-0.1-0.4-0.4-0.4c-2.4-2.5-3.3-5.5-3.2-9 c0.2-4.2,0.2-8.3,0.7-12.5c0.2-1.6,0-3.2-0.3-4.7c-0.7-4-2.8-7.4-4.6-11c-1.6-3.2-2.3-6.5-1.7-10.1c0.4-2.4,0.5-4.8,0.1-7.3 c0.1-1.4-0.7-2.3-1.6-3.1c-1.2-1-2.5-2-3.7-3c-2.8-2.1-4.8-4.8-5.2-8.5c0.2-4.8-1.2-8.9-4.9-12.1l0,0c0.1-0.2,0-0.4-0.3-0.5 c0-0.1-0.1-0.2-0.1-0.2c-0.1-0.2-0.2-0.3-0.3-0.5c-0.9-1.8-1.5-3.6-1.9-5.5c0-4.7-0.7-9.4,0-14.1c0.2-1.4-0.2-2.4-1.2-3.5 c-2-2.2-3.5-4.7-3.3-7.9c0.5-2.9,2.4-5.1,4.2-7.3c0.6-0.8,1.6-1,2.5-0.9c1.5,0.1,2.9,0.3,4.4,0.3c1.6,0.1,3-0.4,4.4-1.2 s2.1-2,2-3.7c-0.1-1.5-0.2-3.1-0.2-4.6c0-2.7,1.3-5,3.1-6.9c0.9-1,2.2-0.7,3.3-0.9c4.1,0.6,6.9-1.4,9.3-4.4l0,0 c0.3,0,0.4-0.1,0.4-0.4c0.2-0.2,0.4-0.3,0.5-0.5c3.2-3.6,2.7-6-1.6-8.2c-1.2-0.6-2.4-1.2-3.6-1.8c-1.7-0.8-2.1-2.2-1.8-4 c0.5-2.6,1.8-4.8,2.5-7.3c1-2.6,0.9-3.2-1.6-4.5c-1.7-0.9-3.2-2-3.7-4c0-2.6,0.1-5.1,0.1-7.7c1.1-0.8,0.6-2,0.6-3.1 c0.1-2.2-0.4-2.8-2.5-2.5c-3.7,0.5-7.4,0.8-11.2,0.3l0,0c-0.1-0.4-0.4-0.4-0.7-0.4c-3.9-3.1-4.5-7.5-4.6-12.5 c6.2,4.9,12.5,6.8,19.4,2.2c0.2,0,0.4-0.1,0.4-0.3l0,0c0.3-0.1,0.6-0.1,0.9-0.2c6.4-3.4,12.1-7.8,18.4-11.3c0.1,0,0.1-0.1,0.2-0.1 c0.3,0.1,0.6,0,0.8-0.3c4.9-1.9,9.8-1.6,14.8-0.8c1.3,0.2,2.7,0.4,4,0.6c3.4,0.3,3.6,0.1,4.2-3.2c0.5-2.9,0.6-5.8,0.6-8.8 c0-0.7-0.3-1.5,0.5-2c2.1,1.4,3.7,3.3,5.5,4.9c1.5,1.4,2.9,2.8,4.8,3.6c1.8,1.4,3.6,1.4,5.4,0.2c2.5-1.7,4.6-3.8,6.2-6.4 c0.6-0.6,1.3-0.4,2.1-0.4c3.5,0,6.9-0.1,10.4-0.1c2.9,0.1,5.3-0.8,6.8-3.5c1.4-2.5,3.6-3.9,6.2-4.9c2.2-0.4,4.4-0.4,6.6-0.4 c0.7,0,1.8,0.5,1.8-1.1c0-0.7,0.6-0.2,1-0.1c1.3,0.1,2.6,0.4,3.8-0.2c0.5-0.3,1.3-0.8,1.3-1.2c0-2.3,1.6-2.3,3.2-2.5 c0.7,0.1,1.2-0.3,1.7-0.6c8-4.1,16.1-7.8,25.3-8.3c0.6,0.1,1.2,0.2,1.8,0.2c0.2,0,0.5,0,0.7,0c1.7,0.4,3.5,0.8,5.2,1.2 c1.8,0.8,3.8,0.8,5.7,0.8c1.5,0,2.5-0.9,3.2-2.1c0.8-1.5,1.2-3.2,1.7-4.8c0.6-1.7,1.7-2.4,3.5-2.7c2.6-0.3,5.2,0,7.8-0.4 c0.2,0,0.5,0,0.7,0c0.4,0.3,0.9,0.2,1.4,0.2C264.6,2.8,270,3.2,275.5,3.4z M347.2,219.8c1.6-0.2,1.4-1.4,1.4-2.4 c0-1.2-0.6-1.8-1.8-1.8c-0.1-0.1-0.2-0.1-0.3-0.1c-1.1,0.2-2.9-0.8-2.6,1.6c0,1.4,0,2.8,0,4.2c0.1,1.1,0.8,1.5,1.5,0.8 C346.1,221.4,347.1,220.9,347.2,219.8L347.2,219.8z M225.1,81c-0.1,0.3,0.2,0.3,0.4,0.3c0.9,0,1.8,0.3,2.5-0.4 c2.4-0.3,1.7-2.3,1.9-3.7c0.2-1.4-0.4-2.5-1.7-3.1c-1.4-0.7-1.7,0.7-2.5,1.2c-0.1,0-0.3,0-0.4,0c-0.8,0.2-1.1,1-1.4,1.6 C223.1,78.4,223.9,80.7,225.1,81L225.1,81z M363.9,187.5c0.5,0,1,0,1.6,0c1.1,0.3,1.4-0.5,1.7-1.3c0.5-1.7-0.1-2.2-2.8-2.9 c-1.6-0.4-2.2,0-1.8,1.6c0,0.2,0,0.5,0,0.7C362.2,186.8,362.3,187.8,363.9,187.5z M278.4,82.3c0.1,0.2,0.3,0.4,0.4,0.6 c0,0.1,0,0.1,0.1,0.2c0.6,1,1.8,1.4,2.4,2.5c0.2,0.5,0.9,0.5,1.3,0.2c0.8-0.5,0.8-1.4,0.6-2.1c-0.6-2-0.9-3.9-0.5-5.9 c0.2-1.9,0.5-3.9,1.2-5.7c0.3-0.7,0.2-1.4-0.3-2.1c-0.2-1.4-1.3-0.7-2-0.8c-0.7-0.1-0.9,0.3-1.1,0.9c-0.3,0.8-0.7,1.6-0.9,2.4 c-0.5,1.7-1.8,3-1.6,4.9c-0.1,0.2-0.2,0.5-0.2,0.7c-1.6,0.6-3.2,0.1-4.8,0.4c-0.6-0.1-1.2-0.1-1.7,0.3c-1,0.9-1.8,2.1-2.8,3 c-0.9,0.8-0.1,2.1,1.1,2.2c1.2,0,2.2-0.3,2.7-1.4c0.4-0.2,0.8-0.4,1.2-0.5C275.1,81.1,276.8,80.2,278.4,82.3z M358,181.7 c-0.8-1.7-0.8-1.7-1.9-1c-0.3,0-0.6,0-0.9,0c-1.5-0.9-1.8-0.7-1.9,1c-0.1,1.2-0.2,2.3,1,3c0.4,1.1,1,1.8,2.3,1.2s2.9-2.6,2.6-3.4 C359,181.9,358.5,181.6,358,181.7L358,181.7z M157.7,118.4c-0.7,0.2-1.8-0.6-2,0.6c-0.3,1.8,0.7,3.6,2,3.8c0.3,0.3,0.7,0.4,1.1,0.4 c0.2,0.7,0.3,1.3,1.3,1.1c1-0.2,1.9-0.4,1.9-1.7v-0.1v-0.1c2.2-0.7,3.6-2.4,5.1-3.9c1.9-1.9,1.4-5-1-6c-0.2-0.1-0.8-0.1-0.9,0 c-0.4,0.8-1.4,0.8-1.9,1.5c-0.8,1.2-1.7,2.4-2.9,3.3C159.5,117.5,158.5,117.8,157.7,118.4z M106.7,75.3c-1.7,1.5-2.2,3.4-2,5.6 c-0.6,2.4-1.4,4.8-3,6.7c-1.6,1.8-1.7,3.9-1.2,6.2c0.2,1,0.9,1.4,1.5,0.9c1.4-1.2,3.2-1.5,4.5-2.8c0.7-0.2,1.5-0.4,1.5-1.3 c2.2-0.9,4-3.4,3.3-4.9c-1-2-1.6-3.9-0.4-5.9c0.1-0.1,0-0.2,0-0.4c0.2-0.4,0.6-0.7,0.7-1.1c0.7-2.2,2-3.6,4.2-4.2 c1.4-0.4,2.6-1.1,3.9-1.6c4.2-1.6,8.1-4.3,12.9-3.7c0.7,0.1,1.5,0.2,2.2,0c4.4-1.4,9-1.7,13.4-2.5c1.8-0.3,3.8-0.4,5.3-1.8 c-7.2,0.7-14.5-1.6-21.6,1.3c-2,0.8-4.2,0.8-6.1,1.7c-1.5,0.2-3,0.3-4.4,0.9c-3.7,1.8-7.4,3.4-11.4,4.6c-1.2,0.3-2.2,0.8-2.6,2.1 C107.2,75.1,106.9,75.2,106.7,75.3z M322.4,80c0.2-0.9-0.3-1.5-1.1-1.5c-1.1,0-0.6,1-0.6,1.5c-0.1,0.6,0.1,1.2,0,1.8 c-0.3,1.6,0.4,2.5,1.7,3.2c0.3,0.8,1,0.5,1.5,0.6c0.2,0.7,0.6,1.1,1.4,0.8c0.4-0.2,0.9-0.7,0.7-1.2c-0.5-1.2-0.5-2.8-2-3.5 c-0.1,0-0.1-0.1-0.1-0.1c0-0.8-0.2-1.5-1.2-1.3C322.5,80.2,322.4,80.1,322.4,80z M250.1,115.1c-1.1-0.8-2.2-1.2-3.5-1.2 s-1.6,0.5-1.4,1.7c0,0.3,0,0.6,0,0.8c-0.1,1,0,2.1,1.2,2.3c1.8,0.3,3.5,0.7,5.2,1.1c0.6,0.1,1.4,0.4,1.7-0.6c0.2-0.9,1-1.9-0.4-2.5 C252.6,115.1,251.2,115.4,250.1,115.1z M232.9,138.4c0.4-0.1,0.4-0.4,0.1-0.7c-0.3-1-0.2-2.2-1.7-2.3c-3-0.2-3.5-0.5-3.2,3 c0.8,2,2.7,2.4,4.4,3.2c1.3,0.6,2.8,0.9,3.8,2.1c0.4,0.5,0.9,1.3,1.6,0.6c0.7-0.7,0.9-1.8,0.1-2.6c-0.8-0.8-1.9-1.1-3-1.2 C233.7,140.5,233.1,139.7,232.9,138.4L232.9,138.4z M370.4,209.2c-0.7-1.2-2-1.8-2.9-1.1c-0.9,0.6-2.2,1.2-2.2,2.9s0.6,2.6,1.8,3.6 c1.6,1.3,3.7,1.2,4.6-0.7c1,0,1.3-0.8,1.4-1.6c0.1-0.5,0.1-1.1-0.5-1.2C371.4,210.9,371.1,209.8,370.4,209.2z M344,138 c-0.3,1.1,0.2,1.7,1.2,1.9c0.4,1.3,1.3,1.6,2.4,1s1.2-1.6,0.6-2.6c-0.2-0.4-0.6-0.8-0.8-1.2c-0.6-1.2-1.7-1.8-2.8-1.4 C343.3,136,344.1,137.2,344,138z M342.1,112.3c-2-0.6-3.7,0-5.2,1.3c-0.1,0-0.1,0-0.2,0.1c-0.9,0.3-2.4,0-1.9,1.7 c0,0.4,0,0.8,0,1.2c-0.4,1.7,1,1.4,1.9,1.7c0.8,0,1.6,0,2.4,0c0.9-0.2,1.8-0.3,2.3-1.3c0.5-1.1,1.5-1.6,2.4-2.2 c0.4-0.3,1.2-0.1,1.2-0.9c0-0.7-0.7-1-1.2-1.2c-0.4-0.2-0.8-0.2-1.2-0.3C342.3,112.4,342.2,112.3,342.1,112.3z M224.1,123 c-0.1,0-0.2,0-0.3,0.1c-1.7,0.6-2.6,2.2-4.1,2.9c-1.1,0.6-0.7,1.4-0.7,2.2c0,1,0.8,0.9,1.5,0.9c1.1-0.1,2,0.5,2.9,1.1 c1.6,0.9,3.1,0.2,3.6-1.6c0-0.2,0-0.4,0-0.6c0.6-0.5,0.9-1.2,1.1-2c0.5-1,0.8-2-0.1-3C226.6,122.8,225.4,122.8,224.1,123z M240.8,153.8c1.1-0.3,2.2-0.1,3.3-0.2c0.6,0,1.4,0.3,1.5-0.5s-0.1-1.8-1.1-2.1c-0.6-0.2-1.2-0.3-1.8-0.3c-1.6,0-3.2,0-4.8,0 c-1.6-1.3-4.2-1.7-5-0.8c-2,2.4-2,5.1-0.1,6.9c0,0.6,0.3,0.9,0.7,1.3l0,0V158c0.1,0.1,0.3,0.1,0.4,0.2c0.2,0.6,0.1,1.5,1,1.6 s1.7-0.1,2.3-0.9C238.7,157.4,239.7,155.6,240.8,153.8z M204.1,59.7c-0.1,0.1-0.3,0.2-0.4,0.2c-2,0.2-3.8,1.2-5.8,1.7 c-0.7,0.1-1.6,1.1-2.2,1.8c-0.3,0.4-0.4,1.4,0.2,1.9c0.9,0.6,2,0.5,2.9-0.2c1-0.8,1.8-1.8,3.2-2.1c5.4-1.2,10.4-3.5,15.8-4.7 c2.2-0.5,4.4-0.9,6.5-1.8c1.6-0.5,3.2-0.9,4.8-1.4c0.4,0,0.8,0.1,1.1,0c3.4-1.3,6.9-1.5,10.6-1.3c3.2,0.1,6.4-0.8,9.5-1.7 c0.5-0.1,1.1-0.1,1-0.8c-0.1-0.6-0.7-0.6-1.2-0.6c-3.1,0-6.2,0-9.2,0c-0.9,0-1.9-0.2-2.7,0.2c-3,1.2-6.1,1.4-9.2,1.3 c-1.5-0.1-3,0.3-4.2,1.4c-2.6,0.6-5.1,1.2-7.7,1.9c-2,0.2-4.1,0.2-6.1,0.9C208.4,57,206.3,58.4,204.1,59.7z M121.4,269.5 c-3.8-0.1-4.8,1.2-3.5,4.4c1.1,2.6,4.9,5.2,7.7,5.2c0.5,0,0.9-0.2,1-0.7c0.2-1.1,0.4-2.4-0.6-3.2c-0.8-0.6-0.9-1.4-1-2.3 C124.8,269.9,124.5,269.6,121.4,269.5z M336.2,91.5c0.1-1.5-0.4-2.2-1.7-2.3c-0.8,0-2.8,1.7-2.8,2.5c0,1.2,1.3,2.8,2.3,2.6 C335.3,93.9,336.1,92.9,336.2,91.5z M185.2,74.2c0,1.7-0.6,3.1-0.1,4.6c0.4,1.2,1.3,1,2.1,0.8c0.8-0.3,1.5-1.4,0.9-1.9 C187,76.7,186.7,75.1,185.2,74.2z M347.7,115.5c-0.6,0-1.1,0-1.5,0c-0.2,0-0.5,0-0.6,0.3s0.1,0.5,0.3,0.6c1.3,0.5,2.1,1.6,3.3,2.3 c0.3,0.2,0.6,0.5,1,0.2c0.4-0.2,0.4-0.6,0.2-1C349.9,116.6,349.7,114.9,347.7,115.5z"></path> <path class="st0" d="M210.3,432.7c4.6,0.2,8.8-1.3,12.8-3.6c3.1-1.8,6.1-3.7,9.3-5.3c3-1.4,5.5-3.5,7.4-6.3 c0.8-1.1,1.8-1.8,3.1-2.1c11.2-2.6,22.4-5.2,33.6-7.8c0.3-0.1,0.7-0.1,1.6-0.2c-3.2,2.3-5.9,4.4-8.7,6.3c-0.6,0.4-1.7,0-2.5,0.2 c-4,0.8-7.7,2.5-10.6,5.5c-2.7,2.7-6.2,3.6-9.8,4.4c-3.1,0.6-6.3,1.2-9.1,2.9c-1.3,0.8-2.7,1.6-3.5,2.9c-0.3,0.1-0.6,0.3-0.9,0.4 c-0.7,0-1.5,0-2.2,0c-4.6-1-7.8,1.7-11.2,4.1c-0.1,0-0.1,0.1-0.2,0.1c-3.2,0-6.5,0.1-9.7,0.1c-3.2-0.1-6.4-0.2-9.6-0.2 c-3.1,0-6.1-0.6-9.2-0.2c-0.4-0.1-0.8-0.2-1.2-0.2c-0.1-0.2-0.1-0.3-0.2-0.5c0-0.7,0-1.4,0.3-2c0.2,0,0.5,0,0.7,0 c0.7,0.2,1.6,0.2,2.1,0.6c1.9,1.5,4.1,1.4,6.3,1.2C202.7,433.1,206.5,433.2,210.3,432.7z"></path> <path class="st0" d="M174.6,382.2c1.5,1.7,3.7,1.3,5.7,2c-5.9,0.1-11.7,0.3-17.5-0.2c1.7,5.2,8.1,10.2,13.4,10.3 c4.9,0.1,9.8-0.3,14.7,0.4c0.8,0.1,1.7,0.2,2.7,0.4c-1.9,2.4-4.3,3.6-7.2,3.7c-3.1,0.1-6.3-0.2-9.4-0.4l0,0 c-3.9-1-7.7-2.2-11.2-4.5c-4.6-3-7.8-7.2-10.6-11.8c-0.9-1.9-1.8-3.8-2.7-5.8c0-0.2-0.1-0.4-0.3-0.5l0,0c0.1-1-0.6-1.7-0.7-2.6 c-0.1-0.6-0.9-1.4-0.1-1.7c0.6-0.2,1.9-1,2.2,0.7c0.1,0.6,0.9,0.6,1.4,0.6c2.7,0.2,5.5-0.4,8,1.3c1.8,0.4,3.6-0.3,5.4,0.3 c0.7,1.6,1.8,2.9,2.8,4.3c0.4,0.4,0.7,0.8,1.1,1.3c0,0.1,0.1,0.2,0.2,0.2C173.1,381.1,173.9,381.6,174.6,382.2z"></path> <path class="st0" d="M188.2,246.2c0.1,0,0.2,0,0.4-0.1c0.1,0.1,0.3,0.1,0.4,0.2c3.3,0.1,6.7,0.3,9.9-0.8c2.8-0.5,5.3-1.5,7.3-3.5 c0.7-0.6,1.4-1,2.3-0.7c4,1.2,8.2,1.3,12.3,2c3.5,0.5,3.7,0.3,5.4-2.9c0.3,0,0.6-0.2,0.9,0c2.7,1.2,5.5,1,8.2,0.2 c0.7-0.2,1.4-0.3,2.2-0.1l0,0c0.2,0.4,0.3,0.9,1,0.8l0,0c0,0.3,0.1,0.4,0.4,0.4l0,0c0,0.3,0.1,0.5,0.4,0.4l0,0 c0.3,1.5,1.9,2.2,2.2,3.6c-0.7,0.2-1.4,0-2.1-0.1c-3.1-0.6-6.1-1.2-9.2-1.9c-1.2-0.2-2.6-0.4-3.3,0.5c-1.5,1.8-3.5,2.2-5.5,2.8 c-0.3,0.1-0.5,0.3-0.7,0.5c-0.9,0.1-1.8,0.2-2.7,0.4c-2.5-0.1-5-0.7-7.4,0.9c-1.8,1.3-4,1.9-6.2,2c-1.9,0.1-3.2,0.9-4.5,2 c-3.1,2.7-6.8,3.6-10.8,3.2c-1.9-0.2-3.1-1.4-3.6-3.3c-0.4-1.7-0.9-3.5,1.3-4.6C187.3,247.8,188,247.2,188.2,246.2z"></path> <path class="st0" d="M265,473c-0.4,0-0.8-0.1-1.2-0.1h0.1c-0.3-0.2-0.7-0.3-1-0.5c0-0.3-0.1-0.4-0.3-0.4l0,0 c-0.3-1.5-0.9-2.8-1.8-4c-0.2-1.1-1-1.3-1.9-1.1c-2.1,0.3-2.6,0.9-2.9,3.5c-0.2,2.2-1.4,2.9-3.4,2c-1.6-0.7-2.8-1.8-3.4-3.4 c-0.4-1-0.7-2.1-1.1-3.1c0-1.4,0-2.8,0-4.2c0.2-1.4-0.1-3,0.9-4.3c1.8-0.6,3.3,0.4,4.8,1.2c2.3,1.1,3.2,0.7,4.4-1.7l0,0 c0.4,0.1,0.6-0.2,0.8-0.4l0,0c1.9-0.7,3.9-0.6,5,1c2,2.8,4.6,4.5,8,4.9c0.7,0.1,0.8,0.4,0.5,1C270.2,466.8,268.7,470.8,265,473z"></path> <path class="st0" d="M148.2,358.8c3.4,1.6,7.2,2.4,10.5,4.5c-3.3,0-6.5-0.1-9.8,0c-1.4,0-2.5-0.3-3.4-1.4c-0.3-0.8-1.2-0.8-1.8-1 c-1.7-0.6-2.9-1.5-3.2-3.4c-0.1-0.9,0-1.4,1.2-0.9c1.3,0.5,2.5,1.4,3.9,1.2l0,0c0.1,0.5,0.4,0.4,0.8,0.4l0,0c0.4,0.5,1,0.6,1.6,0.7 C148.1,358.7,148.1,358.7,148.2,358.8z"></path> <path class="st0" d="M282.8,436.8c-0.9,1.8-2.6,3-3.7,4.6c-0.1,0.2-0.3,0.4-0.4,0.6l0,0c-0.1,0.3-0.3,0.5-0.4,0.8l0,0 c-0.3,0.2-0.4,0.4-0.4,0.8l0,0c-0.4,0.1-0.4,0.4-0.4,0.8l0,0c-0.4,0.1-0.4,0.5-0.4,0.8l0,0c-0.4,0.3-0.4,0.7-0.4,1.1l0,0 c-0.3,0.1-0.3,0.4-0.4,0.7c-0.1,0.2-0.2,0.3-0.3,0.5c-0.4,0.1-0.5,0.3-0.5,0.7l0,0c-0.3,0-0.4,0.1-0.4,0.4l0,0 c-0.5,0-0.7,0.3-0.8,0.8l0,0c-0.4,0.1-0.8,0.2-0.4,0.8l0,0c-1-0.4-1.4,0.7-2.2,0.9c-0.8,0.2-1.4,0.3-2-0.3c-0.7-0.7-0.3-1.3,0.1-2 c3.5-5.4,7.1-10.6,9.8-16.4c0.5-1,0.9-0.5,1.4-0.1C282.8,433.2,282.7,435.1,282.8,436.8z"></path> <path class="st0" d="M224.6,366.6L224.6,366.6c0.2,0,0.5,0,0.6-0.4l0,0c2.3-0.8,4.5-1.4,7-0.8c1.7,0.4,2.2,1.2,1.5,2.6l0,0 c-2.1,0.5-4.7-0.1-5.7,2.7c-0.2,0.2-0.4,0.4-0.6,0.6c-0.2,0.1-0.5,0.1-0.4,0.4l0,0c-1.2-0.2-2.2,0.5-3.4,0.7c-4.6,1-9.2,1.9-13.7,3 c-2.6,0.6-5.1,1.3-7.6,2.3c-1.4,0.5-2.5,1.5-3.1,2.9l0,0c-0.3,0-0.4,0.1-0.4,0.4l0,0c-0.3,0-0.5,0-0.4,0.4l0,0 c-0.8-0.1-1.4,0.6-2.2,0.7c-0.7,0.1-1.7,0.7-2.1-0.6c0.2-1.1,0.2-2.2,0-3.3c0.2-1.4-0.5-2.5-1.3-3.6c0.3-0.8,0.9-0.1,1.3-0.3 c3.6,0.5,7.2,0.1,10.7-0.8c0.7-0.2,1.3-0.3,2-0.3c1.4,0,2.9-0.1,4.2-0.7c4.2-1.8,8.4-3.7,12.5-5.5l0,0 C224,366.9,224.4,366.9,224.6,366.6z"></path> <path class="st0" d="M214.8,382.9c-0.7,0.7-1.5,1.3-2.2,2c-1.4-0.2-3.1-0.9-3.4,1.5c-0.1,0.8-0.8,0.4-1.1,0c-0.4-0.5-1.6-1-0.8-1.6 c1.5-1.1,2.5-2.8,4.4-3.2C213.1,381.2,214.3,381.2,214.8,382.9z"></path> <path class="st0" d="M188.4,383.7c0.9-0.6,1.8,0.1,2.6-0.1c-0.1,2.2-1.1,2.8-3.6,2C187.7,384.9,188.5,384.5,188.4,383.7z"></path> <path class="st0" d="M190.5,280.8c-0.3-0.6-0.6-1.2-1-1.8c-0.5-3.3-0.3-6.6,0.3-9.9c0.4-2.1,1.9-3.7,3.1-5.4 c1.2-1.8,2.7-3.3,4.2-4.8c0.5-0.3,1-0.4,1.5-0.4c4.8,0.8,9.6,0.3,14.4-0.1c1.4-0.2,2.6,0.4,3.9,0.9c1.7,1.2,3.6,1.7,5.7,1.3 c1.8-0.3,3.1,1,4.4,2c1.1,0.8,2.1,1.2,3.5,1.1c5.1-0.4,8.1,2.8,11,6.3c1,1.2,1.9,2.5,2.9,3.8c0.4,0.6,0.7,1.2,1.1,1.7 c0.2,1.2-0.4,2-1.4,2.6c-4.5,2.9-9.3,4.7-14.7,4.5c-1.7,0-3.3,0-4.9-0.5c-1.3-0.3-2.5-0.6-3.8,0.4c-1.3,0.9-2.9-0.3-3.7-2.4 c0.4-1.1-0.4-1.5-1.1-1.9c0-0.4-0.3-0.6-0.7-0.5l0,0c-2.3-2.7-3.3-5.8-3.5-9.3c-0.1-1.9-2.4-3-4.3-2.2c-3.5,1.5-6.9,3.2-9.7,5.8 c-1,0.9-2.1,1.9-2.1,3.5l0,0c-0.3,0.1-0.3,0.3-0.3,0.5c-0.2,1,0,1.9,0.4,2.7c1,2.2,2.1,2.8,4.2,1.7c1.2-0.6,2-0.4,3,0.3 c2.4,1.6,5.2,2.2,8,2.5c0.6,0.1,1.7-0.2,1.7,0.6c0,0.9-1.1,0.8-1.8,0.9c-4.1,0.2-8.1-0.3-12.2-0.5c-3-0.2-5.6-1.1-7.8-3.2l0,0 C190.7,281,190.6,280.9,190.5,280.8z M231.1,277.1c0,0.3,0.1,0.3,0.3,0.2c0.7,0,1.3-0.1,2-0.1c0.4,0,0.9,0,0.9-0.4 c0-0.7-0.1-1.5-0.4-2.1c-0.4-0.7-1.2-0.4-1.8-0.4c-0.9,0.1-1,0.7-1,1.4c-0.5,0.1-1.3-0.4-1.3,0.4 C229.7,276.6,230.2,277.3,231.1,277.1L231.1,277.1z"></path> <path class="st0" d="M369,51.8c0.1-0.1,0.2-0.2,0.2-0.2c0.2,0.1,0.1,0.3,0,0.4C369.1,51.9,369.1,51.8,369,51.8z"></path> <path class="st0" d="M247.6,496.2c-1.1-0.4-1.6-1.4-2.1-2.4c-0.1-1.7,0-3.5,0.5-5.2c0.5-0.9,1.1-1.9,1.1-3c0.4-1.1,0.2-2.1,0-3.2 c-0.1-0.4-0.5-1.2,0.6-0.9c0.7,0.6,1.5,1.1,1.8,2c0.1,0.4,0.3,1.1,0.1,1.2c-2.1,1.4-0.2,2.9-0.1,4.4c0,0.4,0.3,0.8,0.4,1.2 c0,1.2,0.1,2.3,0,3.5C249.9,495.1,249.2,496.1,247.6,496.2z"></path> </g> <g> <path class="st1" d="M300.6,231.4c0.1,0.2,0.3,0.3,0.4,0.5c-0.1,3.5,0.7,6.8,1,10.3c0.3,2.8,0.9,5.5,3.2,7.4 c-0.2,1.5,1,2.4,1.4,3.7c0.3,1.1,0.7,2.2,1.1,3.3c0.1,2.6,0.1,5.2,0.4,7.7c1.6,16.1,5.2,31.8,9.5,47.3c0.1,0.5,0.3,1.3,0.7,1.4 c1.6,0.6,0.7,1.2,0.1,1.9c-2.4,3-3.9,6.3-3.7,10.2c0.1,2.5,0.6,5,1.1,7.5c0.2,0.8,0.1,1.4-0.2,2.1c-3.3,8.2-5.3,16.8-6.7,25.5 c-0.3,2.2,0,2.6,2.3,3.4c0,0.3,0,0.6-0.1,0.9c-3.3,6.9-6.9,13.7-12.6,18.9c-2.4,2.2-3,4.6-2.9,7.5c0,0.1,0,0.2,0,0.4 c0.5,3.5,2,4.2,5,2.5c0.4-0.3,0.8-0.8,1.6-0.7c-0.6,1.9-1.9,3.3-3.2,4.6c-5,5-11,8.7-17.1,12.1c-0.2,0.1-0.5,0.1-0.7,0.1 c1.8-1.9,4-3.4,5.6-5.6c1.4-1.8,2.1-3.5,1.6-5.9s-0.1-4.5,2.1-6.5c5.3-5,8.2-11.5,9.7-18.5c0.2-0.9,0.6-1.8,0.2-2.8 c-0.6,0.1-0.9,0.5-1.2,0.9c-6.2,6.5-12.2,13-17.8,20c-8.9,11.1-20.7,17.1-34.5,19.7c-0.2-3.7-0.4-2.9,2.7-4.2 c8.2-3.3,16.5-6.6,23.3-12.5c4.7-4.1,9.3-8.4,12.4-14c2.4-4.4,5.4-8.4,9.1-11.8c1.3-1.2,2.7-2.4,4.5-2.9c1.2-0.4,1.3-1.1,1.1-2.1 c-0.3-1.4-0.5-2.8-0.8-4.2c-0.9-4,0.1-7.2,3.5-9.6c0.8-0.6,1.2-1.3,1.1-2.3c-0.2-3.4-0.2-6.9-0.4-10.3c0-0.6-0.2-1.2-0.3-1.8 c-0.2-1.1-0.7-1.3-1.6-0.5c-1.4,1.3-3,2.4-4.7,3.2c-1.1,0.5-2.3,0.9-3.6,0.5c-1.6-0.5-2.5-1.2-2.5-3.2c0.4-10.5,1.2-21,4.1-31.2 c1.1-4,2.8-7.5,6.1-10.3c3.9-3.2,4.6-7.9,5.4-12.6c1.6-10-0.7-19.6-3.2-29.1c-1.4-5.3-3-10.7-3.7-16.2c-0.2-2-0.2-3.9-0.1-5.9 C299.9,230.6,300.3,231,300.6,231.4z"></path> <path class="st1" d="M248.9,457.4c-0.9,1.3-0.6,2.9-0.9,4.3c-0.9-1.1-1.9-2-0.3-3.6c0.7-0.7,0.5-2.4,0.6-3.7 c0.1-1.1,0.5-1.3,1.5-0.9c2.2,0.8,4.5,1.1,6.8,1.7c4.1,1,8.1-3.6,7.5-7.7c-0.3-1.8-0.7-3.6-1.4-5.3c-0.8-1.8-1.1-3.8-1.3-5.7 c-0.3-3.2-1.9-5.4-4.6-6.8c-2.1-1.1-4.2-2.3-5.8-4.1c5.5,0.1,10.8,1.5,16.1,2.9c0.9,0.3,1,0.8,1,1.7c0.2,6.8,0.5,13.6,0.7,20.4 c0.1,2.5,0.1,2.5,2.4,1.8c0.4-0.1,0.8-0.4,1.2-0.2c-1.1,1.2-2.5,1.9-4,2.2c-1.3,0.2-1.6,0.8-1.6,2c0,1.1,0,2.2,0,3.3 c-1.2-0.4-2-1.3-2.1-2.5c-0.1-1.1-0.5-1.3-1.5-1.2c-1,0.1-2.1,0-3.1,0c-0.6,0-1.3-0.1-1.4,0.7l0,0c-0.3,0-0.6,0-0.8,0.4l0,0 c-2.8,0.8-5.5,0.6-8.2-0.5C248.7,455.8,248.7,456.5,248.9,457.4z"></path> <path class="st1" d="M200.6,253.9c0,0.3,0.2,0.6,0.1,0.9c-0.2,1.6,0.6,1.9,2,1.9c2.1,0,4.3,0.3,6.4,0.2c3.9-0.1,7.5,1,11.2,1.8 c-1.1,0.2-2.3,0.1-3.3,0.6c-1.3-0.5-2.5-1.1-3.9-0.9c-4.8-2.1-9.6-1.4-14.4,0.1c-0.6,0-1.1,0.1-1.5,0.4c-3.5,0.7-5.9,3.2-8.2,5.6 c-2.9,3-4.4,6.4-2.9,10.6c0.3,0.9,0.7,1.8,1.1,2.7c-4.8-1.6-6-4.6-3.5-8.9c0.8-1.4,2.5-2.5,2.2-4.1c-0.2-1.4-2-2.2-3-3.4 c-2.3-2.8-3.4-6.1-3.5-9.7c0-0.6-0.1-1.2,0.7-1.3c1.9-0.4,3-1.7,4.1-3.2c-0.2,1.3-0.5,2.5-0.6,3.8c-0.3,4.7,2.1,6.8,6.8,6.1 C193.9,256.7,197.2,255.1,200.6,253.9z"></path> <path class="st1" d="M292.9,434.4c-3.8-6.7-8.1-12.6-16.5-14.1c-5.8-1-11.2-0.3-16.6,1.6c-0.7,0.2-1.7,1.2-2.1-0.5 c-0.3-1.3-0.5-2.5,1.3-2.8c2.1-0.4,4-1.5,6.2-1.5c1.5,1.1,3.3,0.8,5,1c4.2,0.5,8.3,0.8,12.5,0.5c0.6,0,1.3,0,1.8-0.3 c2.1-1.5,3.6-0.2,5.3,0.9C295.1,423.2,296.4,429.2,292.9,434.4z"></path> <path class="st1" d="M312.1,362.9c-0.9-2.7,0.4-4.4,2.3-6.2c5-4.6,10-9.3,15.3-13.7c0.5-0.4,1-0.7,1.7-1.3c0,2.5-0.8,4.7-0.7,6.9 c0,1,0.1,2,1.5,2c-1.3,2.5-2.5,5-3.9,7.6c-0.2-0.4-0.4-0.6-0.5-0.9c-1.3-3.2-1.3-3.2-4.3-1.4C319.6,358.3,315.9,360.6,312.1,362.9z "></path> <path class="st1" d="M177.1,398.4c2.2,1.8,4.7,2.1,7.4,1.7c7.6-1,14.1-4.5,20.2-8.9c2.8-2,5.4-4,7.9-6.3c0.7-0.7,1.5-1.3,2.2-2 c2.6-1.6,5.2-3,7.4-5.1c1.9-1.8,3.7-3.6,4.8-6l0,0c0.2-0.1,0.4-0.2,0.4-0.4c0.2-0.2,0.4-0.4,0.6-0.6c2-0.6,3.8-1.7,5.7-2.7l0,0 c0.4,0,0.7,0,1.1,0c-1.4,1.5-3.3,2.3-5,3.3c-0.8,0.4-1.3,0.8-1.3,1.8c-0.1,2.1-1.3,3.3-3.1,4.1c-1.7,0.8-3.3,1.6-4.2,3.6 c-0.6,1.4-2.2,1.9-3.7,2.3c-1.6,0.4-2.7,1.3-3.9,2.3c-7.4,6.5-15.6,11.8-24.8,15.4c-4.8,1.9-9.4,0.8-14.1-0.1 c-2.8-0.6-5.4-1.4-7.6-3.4c1.2-0.1,2.1,0.5,3,1s1.9,0.9,3,0.5C174.4,398.4,175.8,398.4,177.1,398.4L177.1,398.4z"></path> <path class="st1" d="M163.1,152.1c2-1,4.3-1.4,6.3-2.7c0.4-0.1,0.8,0,1.1-0.2c3.2-1.7,6.7-2,10.2-1.7c0.9,0.1,1.9-0.1,2.8,0 c1.5,0.2,2.4-0.4,3-1.7c1.1-0.4,2-0.1,2.9,0.5c1.1,0.8,2.3,1.3,3.8,1.4c-2.7,2.6-2.1,2.8-5.6,1c-2.7-1.4-5.3-0.5-7.9-0.2 c-8.6,1.3-16.3,5-24.1,8.5c-8.6,3.9-16.4,2.2-23.8-2.8l0.1-0.1c0.7,0.1,1.4,0.2,2.2,0.3c4.3,0.6,8.2,2.5,12.4,3.3 c1.4,0.2,2.9,0.6,4.2,0.1c3.6-1.6,7.2-3.4,10.7-5.1l0,0c0.5,0.1,0.9,0,1.1-0.4l0,0C162.6,152.4,162.9,152.4,163.1,152.1z"></path> <path class="st1" d="M103.9,236.4c-2.2-2-3.5-4.6-5.3-6.9c-0.5-0.6-0.9-1.2-1.3-1.7c0-1.1,0-2.3,0-3.4c4.7-8.7,6.6-17.9,4.6-27.8 c-0.4-2.2-0.5-4.3,1.6-5.8c0.4,5.4,0.5,10.8,0.3,16.2c0,1.2-0.1,2.5-0.4,3.7c-2.2,8.4-1.8,16.7,0.5,25 C103.9,235.9,103.9,236.1,103.9,236.4z"></path> <path class="st1" d="M158.7,365c0-1.2,0.5-1.6,1.7-1.5c0.5,0.1,1.1,0.2,1.5-0.6c2.3-4.6,6-7.7,10.5-9.9c0.4-0.2,1-0.2,1.3-0.7 c-1.2-1.1-2.8-0.7-4.2-1.3c0.2-0.5,0.4-1,1.1-1.2c2.1-0.6,4.3-1.1,6.5-1c0.7,0,1.5,0.2,1.6,0.9c0.2,0.9-0.7,1-1.2,1.3 c-0.2,0.1-0.4,0.2-0.7,0.3c-3.9,1.7-4.2,2.4-2.3,6.2c0.4,0.8,0.1,1.3-0.4,1.7c-1.4,1.3-3.2,1.9-5,2.3c-2.7,0.7-5.6,0.7-7.9,2.7 C160.7,365,159.6,365,158.7,365z"></path> <path class="st1" d="M239.7,190.8c0.3,0.3,0.6,0.4,0.7-0.2c0.8-0.1,1.6-0.3,2.4-0.3c2.6-0.3,5.3-0.5,7.9,0c0.9,0.2,1.9,0.5,2,1.6 s-0.2,1.9-1.2,2.5c-0.4,0.2-0.7,0.4-1.2,0.7c4.5,5.4,9.5,10,15.6,13.5l-0.1,0.1c-3.8-1-7.5-2.5-10.8-4.7c-1.1-0.7-1.7-1.9-2.4-3 c-1.4-2.5-2.7-5.1-4.2-7.6c-1.7-2.7-2.7-3-5.7-1.9c-2.7,0.9-5.3,2.1-8.2,1.5c-0.2-0.1-0.5-0.1-0.7-0.2c-1.1-0.4-2.8-0.5-3-1.8 s1.6-1.4,2.5-2c-0.7,2.7-0.4,2.9,2.5,2.8C237.2,191.6,238.5,191.4,239.7,190.8z"></path> <path class="st1" d="M204.9,148.3c1.3,0.6,1.7,1.9,2.5,2.8c0.4,2,1.7,3.7,2.6,5.5c1.2,2.4,3.1,3.7,5.8,3.7 c-0.3,1.7,0.6,2.4,2.3,2.7c2.3,0.5,4.6,1.1,6.7,2.2c0.1,1.1,0.3,2.2,0.4,3.3c-2.6-2.2-5.7-3.6-8.9-4.6c-1.7-0.5-3.2-1.3-4.7-2.1 c-1.2-0.7-2.5-1.2-2.3-3.1c0.1-0.8-0.5-1.4-1.5-1.6c-2.2-0.3-2.9-0.9-2.9-3.2c0-1.8-0.7-2.7-2.2-3.4c-1.5-0.8-2.9-1.8-4.4-2.7 C200.5,148.1,202.7,148.2,204.9,148.3z"></path> <path class="st1" d="M232.9,430.1c0.3-0.1,0.6-0.2,0.9-0.4c0.9,0.3,1.6-0.1,2.3-0.7c2.4-2.1,5.2-3.2,8.4-3.4 c-1.6,0.8-3.2,1.6-4.8,2.3c-1.2,0.5-1.3,1.1-0.8,2.2c2.8,6.4,5.5,12.9,8.3,19.3c0.4,1,0.9,1.9,0,3.2c-2.7-4.5-5.3-8.8-8-13.1 c1.2-2.9,0.3-5-2.6-6.3c-0.7-0.3-0.9-0.1-0.9,0.5C234.9,432.7,233.9,431.4,232.9,430.1z"></path> <path class="st1" d="M113.8,254.9c0.2,0.2,0.4,0.5,0.6,0.7c-2.4,0-4.8-0.2-7.2-0.5c-0.1-0.1-0.3-0.3-0.4,0c0,0,0.2,0.1,0.2,0.2 c3.2,2.7,5.1,2.8,7.4,0.4c1.3,1.1,1.2,1.7-0.4,2.3c-2.3,0.9-4.6,0.3-6.9,0c-1.5-0.2-2.9-0.4-4.3-0.6c-1.2-0.2-1.4,0.4-1.3,1.5 c0.2,1.1,1,2.1,0.8,3.3c-1.7-1.7-3.4-3.3-4.4-5.6c0.2,0.1,0.5,0.1,0.7,0.2c0.3,0.1,0.8,0.4,0.9,0.3c0.4-0.3,0-0.8,0-1.2 c0.6-0.3,0.7-0.6,0.4-1.3c-0.7-1.9-0.3-2.4,1.8-2.4c0.7,0,1.4,0.1,2,0.2c2.7,0.5,5.4,1.1,8.1,1.6l0,0c0.1,0.4,0.5,0.4,0.8,0.4l0,0 C113,254.8,113.4,254.9,113.8,254.9L113.8,254.9z M106.3,254.6c-1-0.5-1.8-1-2.8-0.7c-0.2,0.1-0.4,0.4-0.2,0.6 c0.8,0.7,1.7,0.2,2.6,0.3C106.1,254.8,106.1,254.8,106.3,254.6z"></path> <path class="st1" d="M121.2,288.2c2.8-0.5,5.7-0.8,8.3-2c2.1-1,3.7-2.4,4.5-4.6c0.7-0.1,1.4-0.1,2.1-0.2c1.7,0.2,3.4,0.7,5,1.3 c2.9,1.1,5.1,0.4,6.9-2.1c0.6,2.6,0.1,3.1-2.4,3.1c-2,0.1-4,0.6-6,0c-0.8-0.2-1.3,0.6-1.7,1.2c-1.9,2.6-4.7,3.7-7.8,3.9 C127.1,289,124.1,289.3,121.2,288.2z"></path> <path class="st1" d="M426.8,270.8c-3.4,1.2-6.9,1.8-10.5,1.8c-0.5,0-1-0.1-1.5-0.2c-1.1-0.2-2.4-0.6-2.5-1.9 c-0.1-1.5,1.4-1.4,2.3-1.7c5-1.5,10.1-2,15.2-2.9c0.8-0.1,1.6-0.3,2.4-0.5c0.9-0.2,1.5-0.8,1.3-1.9c0.9-0.1,1.4,0.3,1.6,1.2 c0.1,0.8-0.5,1.2-1.2,1.5c-2.4,1-5,1.1-7.5,1.5c-1.4,0.2-2.8,0.3-3.9,1.5c-0.2,0.2-0.4,0.5-0.3,0.8c0,0.4,0.5,0.3,0.7,0.3 C424.2,270.5,425.5,270.7,426.8,270.8z"></path> <path class="st1" d="M103.6,190.1c-1.6-3.7-1.1-7.1,1.1-10.4c1.3-2,1.2-4.5,1-6.8c-0.1-1.4,0.2-2.4,1.3-3.4 c2.1-1.9,2.7-4.6,3.2-7.3c0.3-1.7,0.9-3.2,2.6-3.9c1.1,3.6-0.2,6.6-2.4,9.4c-0.8,1-1.4,2.2-2.1,3.2c-1.2,1.9-1.9,3.9-1.8,6.3 c0.2,4.1,0.1,8.3-2.5,11.8C103.7,189.2,103.7,189.7,103.6,190.1z"></path> <path class="st1" d="M195.3,288c4.8-0.6,9.6-1,14.3-1.7c3.4-0.5,6.6-1.8,10.1-1.4c-2.4,2.3-5.4,3.7-8.6,4.3 C205.8,290.1,200.4,290.5,195.3,288z"></path> <path class="st1" d="M102.3,306.6c1.2-4.7,1.7-9.5,2.3-14.3c0.1-0.4,0.2-0.8,0.3-1.2c1,19.8,0.7,29.6-0.8,32.2 C103.3,317.7,102.5,312.2,102.3,306.6z"></path> <path class="st1" d="M408.6,212.7c-0.8-0.8-0.7-1.6-0.1-2.5c1.2-1.8,2.3-3.8,3.5-5.6c3.3-4.6,4.9-9.7,4.4-15.4 c-0.3-3.6-0.1-7.1,0-10.7c0.6,0.3,0.9,0.8,1,1.5c1.5,9.3,0.9,18.3-4.9,26.3c-0.8,1.1-1.7,2.2-2.6,3.1 C409.1,210.4,408.6,211.5,408.6,212.7z"></path> <path class="st1" d="M105.1,288.5c0.3-1.5,0.1-3.2,0.8-4.9c4.2,3.1,8.9,4.3,13.9,4.5C115,291.2,110.1,291.8,105.1,288.5z"></path> <path class="st1" d="M358.4,72.4c-1.6-0.4-2.8-1.5-4-2.5c-1.2-1.1-0.5-2.1,0.4-3c3.9-3.9,7.8-7.8,11.7-11.7c1-1,2-2,2.7-3.2 c0.1-0.1,0.2-0.3,0-0.4c0,0-0.2,0.1-0.2,0.2c-0.8,0.1-1.2,0.9-2.1,0.9c0-0.6,0.5-1,0.9-1.4c0.5-0.6,0.4-2.1,1.8-1.3 c0.9,0.5,0.9,2.7,0.1,3.5c-1.7,1.7-3.5,3.3-5.2,5c-1.9,1.8-3.6,3.9-5.2,6C357.4,67,357.3,69.6,358.4,72.4z"></path> <path class="st1" d="M113.8,156.8c0.2-1.6,1.1-2.8,2.1-3.9c0.4-0.5,1-0.6,1.7-0.5c5.1,1,9.3-0.8,13.4-3.7c0.1,0.1,0.2,0.3,0.4,0.4 c0,1.6-0.1,3.2-0.1,4.8l0,0c-4.1-0.2-8.1,0.1-12.1,0.9C117.2,155.2,115.5,156,113.8,156.8z"></path> <path class="st1" d="M294.7,222.2c0.8,0.3,1.3,0.9,1.7,1.6c0.2,0.1,0.4,0.3,0.5,0.4l0,0c0.1,0.5,0.3,1,0.4,1.5 c-1.9-2-3.8-2.1-6.2-0.5c-2.3,1.5-5,1.9-8.1,0.8c4.5-0.5,4.6-3.9,5.4-6.9l0,0c1.7,0.7,3.5,1.5,5.2,2.2l0,0c0.1,0.4,0.4,0.6,0.8,0.4 l0,0C294.3,221.9,294.5,222,294.7,222.2z"></path> <path class="st1" d="M138.3,360.7c-5.7-0.1-6.7-5.4-5-8.5c0.7-1.2,1.6-1.6,2.9-1.4c1.2,0.2,2.3,0.5,2.4,2c-0.7,1-0.3,2.5-1.3,3.3 c-1.8,1.4-1.1,2.5,0.2,3.7C137.8,360,138,360.3,138.3,360.7z"></path> <path class="st1" d="M227.4,10.5c-9.2,0.4-17.3,4.1-25.3,8.3c-0.5,0.3-1.1,0.6-1.7,0.6c5.8-4.4,11.9-8,19.2-9.4 C222.2,9.4,224.8,10.1,227.4,10.5z"></path> <path class="st1" d="M110.2,45.9c-6.3,3.5-12,7.9-18.4,11.3c-0.3,0.1-0.6,0.2-0.9,0.2c3.1-3.6,6.2-7.2,10.9-8.8 C104.6,47.7,107.3,46.3,110.2,45.9z"></path> <path class="st1" d="M155.4,382c-0.1,1.7,1.5,2.8,1.4,4.5c-1.7-2.2-2.8-4.7-4.1-7.2c-1-1.9-2.1-3.7-3.8-5.1c-1.6-1.4-2.8-3.1-3.7-5 c-0.5-1.1-0.1-1.5,1-1.5c1.1-0.1,2.2,0.3,3.2,0.8c2.5,1.1,4.8,2.5,7.5,3c-3.2,0-6.3-0.9-9.6-1.4c0.7,3,2.5,4.7,5.1,5.8l0,0 c-0.1,0.3,0.1,0.4,0.3,0.5C153.5,378.2,154.4,380.1,155.4,382z"></path> <path class="st1" d="M231.5,362.9c-0.1-4.3-0.1-4.3,3.9-3.7c3.8,0.5,4.8,2.8,2.6,6c-0.5,0.8-1.1,1.6-2.1,2 C235.9,362.9,235.9,362.8,231.5,362.9z"></path> <path class="st1" d="M353.8,44.7c0.5-0.6,1.3-0.7,1.9-1.1c0.6-0.3,1.5-0.5,1.3-1.3c-0.2-0.9-1.1-0.9-1.8-0.9 c-2.6-0.2-5.1,0.1-7.2,2.4c-0.4-1.6-0.1-3,0.1-4.2c0.5-3.7-0.3-6.9-2.9-9.6c-0.4-0.4-0.8-0.8-0.8-1.4c2.6,0.8,3.8,2.2,4.1,4.8 c0.3,2.1,0.3,4.3,0.3,6.4c0,1.2,0.4,1.5,1.5,1.5c2.5,0,4.8-0.3,5.9-3.1c0.4-1.1,0.9-0.6,1.3,0.1C359.2,41.7,357.9,44.1,353.8,44.7z "></path> <path class="st1" d="M142.3,266.7c-1.6-0.9-3.3-1.5-5.1-1.8c-1.4-0.3-2.1-1-1.8-2.4c0.2-1.1-0.3-1.7-1-2.5c-2-2.2-4.2-4.4-5.7-7 c2.1,0.9,3.5,2.6,5.2,4.1c2.9,2.5,5.6,5.2,8,8.2C142.1,265.7,142.6,266,142.3,266.7z"></path> <path class="st1" d="M288.4,219c-3,1.6-5.4,0-7.6-1.6c-2-1.5-4-2.5-6.6-2.4c-3.7,0.1-5.8-2.2-7.2-5.3c0.1-0.1,0.2-0.2,0.3-0.3 c3,2.6,6.3,4.5,10.5,4.3l0,0c0.8,1.6,2.2,2.1,3.7,2.7C283.7,217.3,286.2,217.8,288.4,219L288.4,219z"></path> <path class="st1" d="M415.4,177.5c-4.5-2-8.4-4.7-12.3-7.6c-1.2-0.9-2.3-1.9-3.3-2.9c-2.6-2.7-2.7-4.4-0.4-7.6 c0,0.4,0.1,0.8-0.1,1.1c-1.4,3.1,0.2,4.9,2.5,6.6c4.1,3,8.4,5.8,12.3,9C414.6,176.6,415.2,176.9,415.4,177.5z"></path> <path class="st1" d="M65.4,141.7c-0.2,3.2,1.2,5.7,3.3,7.9c1,1,1.4,2.1,1.2,3.5c-0.7,4.7,0,9.4,0,14.1c-1.5-5-2.1-10.1-1.9-15.2 c0-0.9-0.2-1.4-0.8-2.1C64.9,147.5,64.4,144.7,65.4,141.7z"></path> <path class="st1" d="M245.7,5.8c-2.4,0.8-4.2,2.6-6.5,3.5c1.7-2.8,3.6-5.5,6.2-7.4c1.6-1.1,3.9-0.7,5.8-0.2 c1.9,0.5,3.8,0.8,5.8,0.9c-2.6,0.5-5.2,0.1-7.8,0.4C247.4,3.4,246.3,4.2,245.7,5.8z"></path> <path class="st1" d="M282.8,436.8c1.6-1.4,3.4-1.8,5.4-1.2c0.7,0.2,1.6,0.1,2.4,0.1c-1.1,0.6-2.4,0.7-3.6,0.5 c-1.4-0.2-2,0.3-2.7,1.4c-2.5,4.1-5.1,8.2-8.7,11.6c-0.1-0.1-0.2-0.2-0.2-0.2c0-0.2,0-0.5,0-0.7l0,0c0.3,0,0.4-0.2,0.4-0.4l0,0 c0.2-0.2,0.3-0.5,0.5-0.7c0.1-0.2,0.2-0.3,0.3-0.5c0.1-0.2,0.2-0.5,0.4-0.7l0,0c0.3-0.3,0.5-0.7,0.4-1.1l0,0 c0.4-0.1,0.4-0.4,0.4-0.8l0,0c0.4-0.1,0.5-0.4,0.4-0.8l0,0c0.5-0.1,0.4-0.4,0.4-0.8l0,0c0.5-0.1,0.4-0.4,0.4-0.8l0,0 c0.3-0.1,0.3-0.3,0.4-0.6C280.3,439.8,282,438.6,282.8,436.8z"></path> <path class="st1" d="M211.5,370.6c-2.8,1.5-5.8,1.8-8.9,2.2c-2.8,0.3-5.6,0.7-8.4,1.4c-0.4,0.1-1-0.6-1.3,0.3 c-0.4,0.5-2.2-0.4-1.4,1.4c-1,0-2.1,0-3.1-0.1c-0.8-0.1-1.4-0.6-1.7-1.7c0.9,0,1.7,0,2.5,0c0.5,0,1.2,0.2,1.4-0.3 c1-1.8,2.6-1.2,4-1.3c5-0.1,10-0.6,14.9-1.7C210.3,370.6,210.9,370.7,211.5,370.6z"></path> <path class="st1" d="M178.3,372.6c-2.2,1.8-4.8,1.5-7.3,1.7c-0.8,0.1-1.6,0.1-2.4,0.1c-1.8-0.5-3.6,0.2-5.4-0.3 c0.8-2.1-1.3-1.4-2-1.9C166.9,372.2,172.6,372.3,178.3,372.6z"></path> <path class="st1" d="M275.5,3.4C270,3.2,264.6,2.8,259.1,3c-0.5,0-1,0.1-1.4-0.2c3.1-0.1,6-0.4,8.8-2.1c2-1.3,4.3-0.3,6.3,0.8 C273.7,1.9,274.8,2.4,275.5,3.4z"></path> <path class="st1" d="M235.6,178.9c0.4,1.6,0.7,3.3,1.1,4.9c-0.1,0.7-0.2,1.4-0.2,2.1c-0.1,1-0.6,1.7-1.7,1.6 c0.2-1.1,0.5-2.1,0.4-3.3c-2.2,0.3-4.1-0.7-4.8-2.4c-0.5-1-0.4-1.7,1-1.6c0.2,0,0.4,0,0.5,0C233.5,181,234.7,180.3,235.6,178.9z"></path> <path class="st1" d="M103.2,280.7c0.3,2.2,0.2,4.4,0.8,6.6c0.2,1-0.2,1.3-1,1.2c-1.4-0.2-1.5,0.6-1.4,1.6c0,5,0,10.1,0.1,15.1 c-1.4-0.5-2-1.5-1.7-2.8c1.2-4.7,1.3-9.5,1.5-14.4c0.1-1.7-0.6-3.8,1.6-5C103.4,282.8,103.2,281.5,103.2,280.7z"></path> <path class="st1" d="M339.5,26.4c-1.6,2.7-3.1,5.5-4.8,8.2c-1.4,2.1-2.3,2.4-4.7,1.7c-2.2-0.7-4.4-1.4-5-4.1 c1.6,1.2,3.3,2.3,5.3,2.8c1.9,0.5,3,0,3.9-1.8c1.1-2.1,2.3-4.2,3.5-6.2C338.1,26.2,338.6,25.6,339.5,26.4z"></path> <path class="st1" d="M312.3,13.5c-3.6-2.4-7.7-3-11.9-3.2c-1.3-0.1-2.5-0.5-3.5-1.4c2.4-0.2,4.8-0.2,7.2-0.3 C308,8.4,310.3,10.7,312.3,13.5z"></path> <path class="st1" d="M135.3,31.4c-0.8,0.5-0.5,1.3-0.5,2c0,2.9-0.1,5.9-0.6,8.8c-0.6,3.3-0.8,3.5-4.2,3.2c2.1-1.8,2.4-4.3,2.9-6.8 c0.5-2.1,0.6-4.4,0.8-6.6C133.9,30.8,134.3,30.5,135.3,31.4z"></path> <path class="st1" d="M209.6,434.5c3.2,0,6.5-0.1,9.7-0.1c-3.8,1.8-7.9,2.4-12,2.3c-3.4,0-6.7-0.6-10.1-1c-0.2,0-0.4-0.2-0.6-0.3 c1-0.3,2.1,0,3.1,0.1C203.2,436.1,206.5,435.9,209.6,434.5z"></path> <path class="st1" d="M182.7,24.9c-2.6,0.9-4.8,2.4-6.2,4.9c-1.5,2.7-3.9,3.5-6.8,3.5c1.2-0.5,1.9-1.6,2.8-2.6 C175.1,27.3,178,24.6,182.7,24.9z"></path> <path class="st1" d="M147.1,277.2c-1-0.5-2-0.4-3.1-0.4c-0.9,0-2.1,0.1-2-1.5c1.4-0.1,1.8-1,1.8-2.3c0.1-2.2-0.7-4.3-1.5-6.3 c0.7-0.1,0.9,0.5,1.2,0.9C145.4,270.5,147.3,273.5,147.1,277.2z"></path> <path class="st1" d="M426.9,285.2c-1.3-0.8-2.6,0.1-3.9,0.2c-2.1,0.1-4.2,0.3-6.2-0.2c-2.2-0.5-2.3-1.2-0.7-2.9 c0.6,1.6,2,2,3.3,1.5c2.1-0.8,4.1-0.8,6.3-0.4C426.7,283.5,427.4,284,426.9,285.2z"></path> <path class="st1" d="M76.5,68.5c3.7,0.5,7.4,0.2,11.2-0.3c2.1-0.3,2.6,0.3,2.5,2.5c-0.1,1,0.4,2.2-0.6,3.1c0.2-4.6,0.1-4.7-4.4-3.5 C82,71,79.1,70.6,76.5,68.5z"></path> <path class="st1" d="M422.7,244.2c-1.2-5.2-3.5-10-5.9-14.8c-0.3-0.7-0.9-1.4-0.8-2.2c3,3.8,5.5,7.9,7,12.5 C423.5,241.2,423.3,242.7,422.7,244.2z"></path> <path class="st1" d="M358.7,373.3c4.5,0.1,8.4-1.6,12.2-4c0.5-0.3,0.9-0.9,1.6-0.8C369.7,373.5,363.7,375.6,358.7,373.3z"></path> <path class="st1" d="M157.2,33.8c-1.6,2.6-3.6,4.7-6.2,6.4c-1.8,1.2-3.6,1.2-5.4-0.2c3.7,0.2,6.1-2,8.4-4.4 C154.9,34.7,155.6,33.4,157.2,33.8z"></path> <path class="st1" d="M210.3,432.7c-3.8,0.5-7.6,0.3-11.3,0.4c0.1-0.5,0.1-0.9,0.2-1.4c4.4,0.2,8.9-0.4,13.3-0.4 C211.7,431.8,211,432.3,210.3,432.7z"></path> <path class="st1" d="M174.6,382.2c-0.7-0.6-1.4-1.2-1.9-2c3.3,0.1,6.6,0.4,9.8,1.2c1.2,0.3,2.5,0.6,3.3,1.8 C182.1,381.8,178.3,382.6,174.6,382.2z"></path> <path class="st1" d="M245.2,493.9c-0.6-3.4-0.1-6.9,0-10.3c0.1-1.6,1.4-2.6,2-4.1c0.7,0.3,0.9,0.8,1.3,1.2 c-0.2,0.2-0.5,0.5-0.7,0.7c-1.1-0.3-0.7,0.5-0.6,0.9c0.2,1.1,0.4,2.2,0,3.2c-1.5,0.6-1.3,1.8-1.1,3c-0.5,1.7-0.6,3.4-0.5,5.2 C245.4,493.8,245.3,493.9,245.2,493.9z"></path> <path class="st1" d="M247.1,245.5c0.9-2.1-0.6-2.8-2-3.5c3,0.2,5.9,0.5,9.2,1.7C251.8,245.1,249.4,245.2,247.1,245.5z"></path> <path class="st1" d="M201.3,243.4c-0.6,1-1.7,1.4-2.5,2.2c-3.2,1.1-6.6,0.9-9.9,0.8c-0.1-0.1-0.2-0.2-0.3-0.3 C192.9,245.2,197.1,244.3,201.3,243.4z"></path> <path class="st1" d="M417.8,303.7c-0.4-0.8-0.7-1.5-1.1-2.3c-1.6-3.6-1.3-5.5,1.5-8.4C417.5,296.5,418,300.1,417.8,303.7z"></path> <path class="st1" d="M188.4,383.7c-0.7-0.1-1.5-0.2-2.2-0.2c0.1-1.2,0.7-1.7,1.9-1.6c1,0.1,1.9,0,2.9-0.1c2.9-0.3,3.4-1,2.7-3.7 c0.2-0.2,0.4,0,0.5,0.1c0.2,1.1,0.2,2.2,0,3.3c-0.8,1.1-2,1.7-3.2,2.2C190.2,383.8,189.3,383.1,188.4,383.7z"></path> <path class="st1" d="M190.6,431.3c-0.2,0-0.5,0-0.7,0c-2.2-0.2-4.3-0.9-6.5-0.7v-0.1l0,0c0,0.1,0,0.2,0.1,0.3 c-0.1,0.1-0.1,0.1-0.1,0.2c-1.6-0.7-2.7-1.9-4.2-3.6c4.6,1.1,8.4,2.9,12.5,3.7C191.3,431.2,190.9,431.2,190.6,431.3z"></path> <path class="st1" d="M350.9,54.8c-1-0.7-1.5-1.8-2-2.8c-1.6-3.1-0.7-5.1,2.7-6.2c-1.9,1.8-1.8,4-1.2,6.3 C350.6,53,351.1,53.9,350.9,54.8z"></path> <path class="st1" d="M72.3,173.9c3.7,3.2,5.1,7.3,4.9,12.1c-0.7-3.7-2.8-6.9-4.3-10.2C72.6,175.2,72.3,174.6,72.3,173.9z"></path> <path class="st1" d="M89.5,81.4c0.5,2,1.9,3.1,3.7,4c2.4,1.3,2.6,1.9,1.6,4.5c0-1.1-0.6-1.8-1.6-2.3C90.4,86.4,89.4,84.2,89.5,81.4 z"></path> <path class="st1" d="M161.6,353.2c-1.8,2.6-3.5,5.4-7.3,5.2c-0.1-1,0.2-1.6,1.2-2C157.7,355.7,159.3,353.8,161.6,353.2z"></path> <path class="st1" d="M103.2,264.2c0.6,1.2,0.4,2.5,0.3,3.7c-0.1,1.1,0.3,1.7,1.4,1.8c0.1,1.9-0.2,3.8-0.4,5.8 c-0.4,0.4-0.9,0.8-1.3,1.2C103.2,272.6,103.2,268.4,103.2,264.2z"></path> <path class="st1" d="M339.4,341.4c2-0.5,3.5-2.2,5.7-2.2c-2.9,2-5.7,4.2-8.2,6.7c-0.2,0.2-0.5,0.2-0.8,0.4c0.1-0.5,0.2-1.1,0.3-1.6 c0.6-0.7,1.1-1.4,1.7-2.1c0.2-0.1,0.4-0.3,0.6-0.4l0,0c0.2,0,0.4-0.1,0.4-0.4l0,0C339.3,341.8,339.5,341.7,339.4,341.4L339.4,341.4 z"></path> <path class="st1" d="M250.1,488c1.8,3.5,1.1,6.7-1.4,9.7c-0.5,0.6-1,1.1-1.7,1.3c-0.5-1.1,0.1-2,0.6-2.9c1.6,0,2.3-1,2.4-2.5 c0.1-1.1,0-2.3,0-3.5C250,489.5,250,488.8,250.1,488z"></path> <path class="st1" d="M219.5,434.2c3.4-2.4,6.6-5.1,11.2-4.1c-3.2,0.9-6.2,2.4-9.3,3.6C220.8,433.9,220.3,434.4,219.5,434.2z"></path> <path class="st1" d="M98.3,112.1c-2.3,3-5.2,5.1-9.3,4.4C92.1,114.9,95.1,113.4,98.3,112.1z"></path> <path class="st1" d="M258.1,471.6c0.1-1,0.2-2.1,0.8-3c0.4-0.6,1-0.9,1.8-0.6c1,1.2,1.5,2.6,1.8,4 C261.1,471.6,259.6,471.7,258.1,471.6z"></path> <path class="st1" d="M124.6,250.1c-3.1-1.5-5.7-3.7-8.5-5.6c-1.4-1-3-1.8-4.1-3.2c1.4,0.1,2.3,1.1,3.3,1.8c2.8,1.9,5.6,3.9,8.3,5.9 C124.1,249.2,124.7,249.3,124.6,250.1z"></path> <path class="st1" d="M237.5,240.5c-1.3-1.2-3.1-1.2-4.6-1.8c1.3,0,2.6,0,3.8,0c0.3,0,0.9,0,1,0.2c1.6,2.4,4.1,2.6,6.6,3 c-1.7,0-3.4,0-5.1,0.1l0,0c0-0.3-0.2-0.4-0.4-0.4l0,0c-0.1-0.1-0.3-0.3-0.4-0.4l0,0C238.3,240.8,238,240.6,237.5,240.5L237.5,240.5 z"></path> <path class="st1" d="M244.4,273.8c-0.1-2.3-1.3-4.1-2.4-6c2.2,1.2,4.4,5.4,3.9,7.6c-0.1,0-0.3,0.1-0.4,0.1 C245.2,275,244.8,274.4,244.4,273.8z"></path> <path class="st1" d="M220.6,247.5c1.7,0.4,3.2,0.3,4.8-0.5c0.9-0.4,1.8-0.7,2.8-0.6c-0.2,0.8-0.9,1-1.6,1.1c-3.1,0.5-6.2,1-9.2,1.5 c0.2-0.4,0.3-0.7,0.5-1.1C218.8,247.7,219.7,247.6,220.6,247.5z"></path> <path class="st1" d="M376.1,342.1c0-0.6-0.1-1.2,0-1.8c0.2-1-0.1-2.5,1-3c1.2-0.5,2.5,0.1,3.5,1 C377.9,338.3,377.2,340.5,376.1,342.1z"></path> <path class="st1" d="M138.6,361c2.2,0.7,4.3,1.3,6.6,1.2c0,0.4,0,0.7,0.1,1.1c-0.4,0-0.9-0.1-1.2,0.1 C141.3,364.6,140,362.7,138.6,361z"></path> <path class="st1" d="M145.7,357.7c-1.8-1.6-4.3-2.3-6-4c3.1,0.7,6.3,1.4,7.9,4.7c-0.4-0.1-0.8-0.2-1.1-0.3l0,0 C146.2,357.8,146,357.7,145.7,357.7L145.7,357.7z"></path> <path class="st1" d="M187.8,348.8c-0.9,1.4-1.9,2.1-3.1,2.6c-0.5,0.2-1.3,0.8-1.5-0.2c-0.1-0.7-0.2-1.8,1-2 C185.3,349.1,186.3,349,187.8,348.8z"></path> <path class="st1" d="M224.1,241.6c-1.3,1.2-2.9,0.9-4.4,0.5c-2.3-0.5-4.5-1.3-6.7-1.9c1.7-0.2,3.2-0.1,4.8,0.7 C219.8,241.7,221.9,241.7,224.1,241.6z"></path> <path class="st1" d="M181,376.6c0.8-1.1,1.2-2.3,0.8-3.7c0.9,0,2.3-0.3,2.5,0.8c0.2,1-0.8,2-1.8,2.5 C182.1,376.4,181.6,376.6,181,376.6z"></path> <path class="st1" d="M171.4,378.7c-0.3-2.1-0.2-2.3,1.8-2.2c1.9,0.1,3.8,0.4,5.8,0.6c-1.3,0-2.6,0.1-3.9,0.1c-2.8,0-2.8,0-2.6,2.7 C172.1,379.6,171.8,379.2,171.4,378.7z"></path> <path class="st1" d="M187.8,278.5c0.6,0.2,1.2,0.3,1.7,0.5c0.3,0.6,0.6,1.2,1,1.8c0.1,0.1,0.2,0.2,0.3,0.3l0,0 c-0.4,1.2,0.6,2.2,0.4,3.3C189.6,282.7,188.8,280.6,187.8,278.5z"></path> <path class="st1" d="M228.8,283.5c2.7,0.2,5.5,0.4,8.2,0.7C234.2,285.1,231.4,285.6,228.8,283.5z"></path> <path class="st1" d="M237.2,246.1c1.6-0.2,3.2,0,4.8,0.2c0,1.3-1.1,1.2-1.9,1.1C239.1,247.3,237.6,247.8,237.2,246.1z"></path> <path class="st1" d="M167.2,351.1c-1.6,1.1-3.3,1.7-5.3,1.8C163.1,350.5,165.2,351,167.2,351.1z"></path> <path class="st1" d="M232.3,261.9c-2.2,0.8-4-0.4-5.7-1.5C228.6,260.6,230.5,261.2,232.3,261.9z"></path> <path class="st1" d="M265.1,417.2c1.9-1.1,4-1.8,6.1-2.2C269.4,416.3,267.5,417.4,265.1,417.2z"></path> <path class="st1" d="M189.5,433.3c0.1,0.2,0.1,0.3,0.2,0.5c-1.8-0.2-3.5-1-5-2c0.1-0.1,0.2-0.2,0.2-0.3 C186.5,432.1,188,432.7,189.5,433.3z"></path> <path class="st1" d="M225.9,365.1c-0.3,0.4-0.5,0.8-0.8,1.1l0,0c-0.2,0.1-0.4,0.3-0.6,0.4l0,0c-0.4,0.1-0.8,0-1,0.4l0,0 c-0.6,0-1.2,0-1.8,0C223.1,366.2,224.3,365.2,225.9,365.1z"></path> <path class="st1" d="M274.1,461.6c-1.9-0.2-3.7-0.6-5.4-1.4C270.5,460.5,272.5,460.2,274.1,461.6z"></path> <path class="st1" d="M229.2,363.3c-1.1,0.6-2,1.6-3.3,1.8C226.6,363.8,227.8,363.3,229.2,363.3z"></path> <path class="st1" d="M254.8,368.5c0.9-0.2,1.4,0,1.7,0.7c0.1,0.3,0,0.5-0.3,0.6C255.3,369.9,255.1,369.2,254.8,368.5z"></path> <path class="st1" d="M227.1,238.5c-0.3,0.6-0.5,1.3-0.8,1.9c-0.2,0-0.5,0-0.7,0C225.4,239.3,225.4,238.2,227.1,238.5z"></path> <path class="st1" d="M236.5,263.8c-0.9-0.2-2.2,0.5-2.4-1.2C235,262.8,235.8,263,236.5,263.8z"></path> <path class="st1" d="M325,32.2c-0.8-1.1-0.7-2.2-0.1-3.4C324.9,30,325,31.1,325,32.2z"></path> <path class="st1" d="M273.9,450.9c0.1-0.4,0.3-0.7,0.4-1.1l0,0c0.4-0.1,0.7-0.3,0.4-0.8l0,0c0.3,0.3,0.5,0,0.7,0 c0.1,0.1,0.2,0.1,0.2,0.2C275.2,449.9,274.7,450.5,273.9,450.9z"></path> <path class="st1" d="M145.6,363.6c0.8,0.1,1.4,0.6,1.9,1.1C146.6,364.8,145.9,364.6,145.6,363.6z"></path> <path class="st1" d="M194.4,435c0.8,0.1,1.6-0.2,2.3,0.4C195.9,435.4,195.1,435.5,194.4,435z"></path> <path class="st1" d="M125.7,250.8c-0.6,0-0.9-0.2-1.1-0.8C125.2,249.9,125.6,250.2,125.7,250.8z"></path> <path class="st1" d="M375.9,343.7c-0.2-0.5-0.2-1.1,0.1-1.5C376.2,342.7,376.2,343.2,375.9,343.7z"></path> <path class="st1" d="M241.8,267.5c-0.2-0.2-0.4-0.4-0.6-0.6C241.8,266.6,241.6,267.2,241.8,267.5z"></path> <path class="st1" d="M376,346.2c-0.3-0.5-0.4-1-0.1-1.5C376.2,345.2,376.1,345.7,376,346.2z"></path> <path class="st1" d="M273.2,451.3c0.2-0.3,0.4-0.4,0.7-0.4C273.8,451.1,273.7,451.5,273.2,451.3z"></path> <path class="st1" d="M212.7,370.3c-0.4,0.3-0.8,0.4-1.3,0.4C211.8,370.1,212.3,370.3,212.7,370.3z"></path> <path class="st1" d="M221.9,366.9c-0.2,0.4-0.6,0.4-0.9,0.4C221.2,367.1,221.5,366.9,221.9,366.9z"></path> <path class="st1" d="M266.9,209.8c-0.1-0.2-0.3-0.4-0.4-0.6c0-0.1,0.1-0.1,0.2-0.2c0.2,0.2,0.4,0.3,0.6,0.5 C267.1,209.6,267,209.7,266.9,209.8z"></path> <path class="st1" d="M234.8,368c0-0.4,0.4-0.4,0.7-0.4C235.3,367.9,235.1,368.1,234.8,368z"></path> <path class="st1" d="M266.5,209.2c-0.2-0.1-0.5-0.3-0.7-0.4l0.1-0.1c0.3,0,0.6,0.1,0.7,0.4C266.6,209,266.5,209.1,266.5,209.2z"></path> <path class="st1" d="M193.3,377.4c0.3,0.1,0.6,0.2,0.5,0.7C193.4,377.9,193.4,377.6,193.3,377.4z"></path> <path class="st1" d="M399.4,159.5c-0.1-0.3,0-0.6,0.3-0.8C399.8,159,399.8,159.3,399.4,159.5z"></path> <path class="st1" d="M156.8,386.5c0.5,0.1,0.4,0.4,0.4,0.7C157,387,156.9,386.8,156.8,386.5z"></path> <path class="st1" d="M165.3,396.2c0.2,0.1,0.5,0.2,0.7,0.4C165.7,396.6,165.5,396.4,165.3,396.2z"></path> <path class="st1" d="M166.4,396.9c0.3-0.1,0.7-0.1,0.8,0.4C166.8,397.3,166.5,397.2,166.4,396.9z"></path> <path class="st1" d="M280.6,410.2c0.1-0.4,0.4-0.5,0.7-0.4C281.3,410.2,281,410.3,280.6,410.2z"></path> <path class="st1" d="M271.2,415c0.3-0.4,0.7-0.5,1.1-0.4C272,414.9,271.6,415.1,271.2,415z"></path> <path class="st1" d="M184,431.4c-0.2-0.1-0.5-0.3-0.7-0.4c0-0.1,0.1-0.1,0.1-0.2c0.3,0.1,0.5,0.2,0.8,0.3 C184.1,431.3,184.1,431.4,184,431.4z"></path> <path class="st1" d="M184.7,431.8c-0.2-0.1-0.5-0.3-0.7-0.4c0.1-0.1,0.1-0.2,0.2-0.2c0.3,0.1,0.5,0.2,0.8,0.4 C184.9,431.7,184.8,431.8,184.7,431.8z"></path> <path class="st1" d="M352.8,45.2c0.1-0.4,0.4-0.4,0.8-0.4C353.4,45.1,353.1,45.2,352.8,45.2z"></path> <path class="st1" d="M352.1,45.6c0.1-0.4,0.4-0.5,0.7-0.4C352.7,45.5,352.4,45.6,352.1,45.6z"></path> <path class="st1" d="M111.3,45.5c-0.2,0.3-0.5,0.4-0.8,0.3C110.7,45.5,110.9,45.5,111.3,45.5z"></path> <path class="st1" d="M75.7,68.1c0.3,0,0.6,0.1,0.7,0.4C76.1,68.5,75.9,68.4,75.7,68.1z"></path> <path class="st1" d="M128.3,252.7c-0.4,0.2-0.6-0.1-0.7-0.4C127.9,252.2,128.1,252.3,128.3,252.7z"></path> <path class="st1" d="M97.5,256.1c0.4,0,0.6,0.2,0.5,0.6C97.6,256.7,97.5,256.4,97.5,256.1z"></path> <path class="st1" d="M126.4,251.2c-0.4,0.2-0.6,0-0.7-0.4C126,250.7,126.3,250.8,126.4,251.2z"></path> <path class="st1" d="M230,10.7c-0.2,0-0.5,0-0.7,0C229.5,10.5,229.7,10.5,230,10.7z"></path> <path class="st1" d="M237.6,264.1c-0.4,0-0.9,0-1.1-0.4C236.9,263.7,237.2,263.9,237.6,264.1z"></path> <path class="st1" d="M224.8,241c0,0.5-0.3,0.6-0.7,0.5C224.3,241.4,224.5,241.2,224.8,241z"></path> <path class="st1" d="M111.6,240.8c-0.4,0.1-0.6-0.1-0.7-0.4C111.2,240.4,111.5,240.5,111.6,240.8z"></path> <path class="st1" d="M219.6,284.8c0.1-0.4,0.5-0.4,0.8-0.4C220.2,284.7,220,284.9,219.6,284.8z"></path> <path class="st1" d="M106,237.7c-0.3-0.1-0.7-0.1-0.7-0.5C105.7,237.1,106,237.2,106,237.7z"></path> <path class="st1" d="M105.3,237.1c-0.4,0.1-0.7-0.1-0.9-0.4C104.8,236.7,105.1,236.7,105.3,237.1z"></path> <path class="st1" d="M335.8,346.9c0-0.3,0.1-0.5,0.4-0.7C336.2,346.5,336,346.7,335.8,346.9z"></path> <path class="st1" d="M332.1,350.7c0.1-0.4,0.4-0.4,0.7-0.5C332.6,350.5,332.5,350.8,332.1,350.7z"></path> <path class="st1" d="M72.1,173.4c0.2,0.1,0.3,0.2,0.3,0.5C72.1,173.8,72,173.7,72.1,173.4z"></path> <path class="st1" d="M71.7,172.7c0.1,0.2,0.2,0.3,0.3,0.5C71.9,173.1,71.8,172.9,71.7,172.7z"></path> <path class="st1" d="M104.4,236.7c-0.3,0-0.5-0.1-0.6-0.4C104.2,236.3,104.3,236.5,104.4,236.7z"></path> <path class="st1" d="M127.5,252.3c-0.2,0-0.4-0.1-0.4-0.4C127.4,251.9,127.6,252,127.5,252.3z"></path> <path class="st1" d="M311.6,363.3c0.2-0.1,0.4-0.3,0.5-0.4C312,363.1,311.8,363.3,311.6,363.3z"></path> <path class="st1" d="M113.4,157.4c0-0.3,0.1-0.5,0.4-0.5C113.7,157,113.5,157.2,113.4,157.4z"></path> <path class="st1" d="M145.3,363.2c0.3,0,0.4,0.1,0.4,0.4C145.4,363.6,145.2,363.5,145.3,363.2z"></path> <path class="st1" d="M166,396.5c0.2,0,0.4,0.1,0.4,0.3C166.3,396.8,166.1,396.7,166,396.5z"></path> <path class="st1" d="M131.6,154.3c-0.1-0.1-0.3-0.2-0.4-0.3l0,0c0.2,0.1,0.3,0.2,0.5,0.2L131.6,154.3z"></path> <path class="st1" d="M280.1,410.6c0.2-0.1,0.4-0.3,0.6-0.4C280.6,410.5,280.4,410.6,280.1,410.6z"></path> <path class="st1" d="M147.5,364.7c0.1,0.1,0.2,0.2,0.3,0.3C147.7,364.9,147.6,364.8,147.5,364.7z"></path> <path class="st1" d="M98.7,111.7c0,0.2-0.1,0.4-0.4,0.4C98.3,111.8,98.5,111.7,98.7,111.7z"></path> <path class="st1" d="M359.1,73.2c-0.1-0.1-0.2-0.2-0.3-0.3C358.9,72.9,359,73.1,359.1,73.2z"></path> <path class="st1" d="M358.8,72.8c-0.2,0-0.4-0.1-0.3-0.4C358.5,72.6,358.6,72.7,358.8,72.8z"></path> <path class="st1" d="M91,57.4c0,0.2-0.2,0.3-0.4,0.3C90.7,57.6,90.8,57.5,91,57.4z"></path> <path class="st1" d="M366.5,53c-0.1,0.3-0.2,0.3-0.5,0.3C366.1,53.1,366.3,52.9,366.5,53z"></path> <path class="st1" d="M110.9,240.4c-0.3-0.1-0.4-0.2-0.4-0.5C110.6,240.1,110.8,240.3,110.9,240.4z"></path> <path class="st1" d="M351.6,45.8c0-0.3,0.2-0.3,0.4-0.3C352,45.8,351.9,45.9,351.6,45.8z"></path> <path class="st1" d="M344.3,28.5c-0.3,0-0.4-0.1-0.4-0.4C344.1,28.1,344.3,28.2,344.3,28.5z"></path> <path class="st1" d="M314.3,15.2c-0.2,0-0.4-0.1-0.4-0.4C314.1,14.9,314.3,15,314.3,15.2z"></path> <path class="st1" d="M313.9,14.9c-0.2,0-0.4-0.1-0.4-0.4C313.8,14.5,313.9,14.6,313.9,14.9z"></path> <path class="st1" d="M313.5,14.5c-0.2,0-0.4-0.1-0.4-0.3C313.4,14.1,313.5,14.3,313.5,14.5z"></path> <path class="st1" d="M313.1,14.1c-0.2,0-0.4-0.1-0.4-0.4C313,13.8,313.1,13.9,313.1,14.1z"></path> <path class="st1" d="M415.6,226.5c-0.1-0.2-0.2-0.3-0.3-0.5C415.4,226.1,415.5,226.3,415.6,226.5z"></path> <path class="st1" d="M225.6,240.4c0,0.3-0.2,0.4-0.5,0.4C225.2,240.7,225.4,240.6,225.6,240.4z"></path> <path class="st1" d="M373.2,367.7c0-0.2,0.1-0.4,0.4-0.4C373.4,367.5,373.3,367.6,373.2,367.7z"></path> <path class="st1" d="M161.9,352.9c0,0.3-0.1,0.4-0.4,0.4C161.5,353,161.7,352.9,161.9,352.9z"></path> <path class="st1" d="M416,227.2c-0.3-0.1-0.3-0.2-0.3-0.5C415.9,226.8,416,226.9,416,227.2z"></path> <path class="st1" d="M372.8,368.1c0-0.2,0.1-0.4,0.4-0.4C373.2,368,373.1,368.1,372.8,368.1z"></path> <path class="st1" d="M187.1,277.8c0.3,0,0.4,0.2,0.4,0.5C187.3,278.1,187.2,277.9,187.1,277.8z"></path> <path class="st1" d="M138.2,360.6c0.2,0,0.4,0.1,0.4,0.4C138.4,361,138.2,360.9,138.2,360.6z"></path> <path class="st1" d="M372.5,368.5c0-0.3,0.1-0.4,0.3-0.4C372.8,368.3,372.7,368.5,372.5,368.5z"></path> <path class="st1" d="M112,241.2c-0.3,0-0.4-0.1-0.4-0.4C111.8,240.8,112,240.9,112,241.2z"></path> <path class="st1" d="M272.5,452c0-0.3,0.2-0.4,0.4-0.5C272.7,451.7,272.6,451.8,272.5,452z"></path> <path class="st1" d="M102.4,262.2c0.3,0,0.4,0.3,0.4,0.5C102.6,262.6,102.5,262.4,102.4,262.2z"></path> <path class="st1" d="M97.2,255.6c0.3,0,0.4,0.1,0.3,0.4C97.2,256,97.1,255.9,97.2,255.6z"></path> <path class="st1" d="M126.8,251.6c-0.3,0-0.4-0.1-0.4-0.4C126.6,251.2,126.8,251.3,126.8,251.6z"></path> <path class="st1" d="M262.5,472c0.3,0,0.4,0.2,0.3,0.4C262.6,472.3,262.5,472.2,262.5,472z"></path> <path class="st1" d="M96.8,255.2c0.2,0,0.4,0.2,0.4,0.4C96.9,255.6,96.8,255.5,96.8,255.2z"></path> <path class="st1" d="M127.2,251.9c-0.3,0-0.4-0.1-0.4-0.4C127,251.5,127.2,251.7,127.2,251.9z"></path> <path class="st1" d="M128.6,253c-0.3,0.1-0.5,0-0.4-0.4C128.5,252.7,128.6,252.8,128.6,253z"></path> <path class="st1" d="M110.9,79.3c-0.4,0.1-0.8,0.2-1.2,0.3c0.2-0.3,0.2-0.8,0.5-1c1.1-0.6,1.3-1.5,0.9-2.5s-1.5-0.9-2.4-0.9 c-0.3,0-0.6,0-0.9,0c-0.1-0.1-0.1-0.2-0.2-0.2c0.4-1.2,1.4-1.7,2.6-2.1c3.9-1.2,7.7-2.8,11.4-4.6c1.4-0.7,2.9-0.8,4.4-0.9 c1.7,0.7,3.5,0.2,5.3,0.3c0.7,0.1,1.6-0.2,1.5,1c-4.8-0.6-8.7,2.1-12.9,3.7c-1.3,0.5-2.6,1.2-3.9,1.6c-2.2,0.6-3.6,2-4.2,4.2 C111.4,78.6,111.1,78.9,110.9,79.3z"></path> <path class="st1" d="M239,153.8c-1.2-1.7-3.1-1-4.6-1.4c-0.2-1.1,0.3-1.6,1.4-1.5c0.7,0,1.5,0.2,2.1-0.2c1.6,0,3.2,0,4.8,0 c0.6,0,1.2,0.1,1.8,0.3c1,0.3,1.2,1.3,1.1,2.1c-0.1,0.9-1,0.5-1.5,0.5c-1.1,0.1-2.2-0.1-3.3,0.2C240.2,153.4,239.6,153.4,239,153.8 z"></path> <path class="st1" d="M339,118.3c-0.8,0-1.6,0-2.4,0c-0.1-1.2-0.5-2-1.9-1.7c0-0.4,0-0.8,0-1.2c1.5,0.3,1.8-0.6,1.9-1.7 c0.1,0,0.1,0,0.2-0.1c1.9,0.3,3.5-0.6,5.2-1.3c0.1,0,0.3,0.1,0.4,0.1c-0.2,0.9,0.7,2.2-0.7,2.6C339.9,115.5,339.3,116.7,339,118.3z "></path> <path class="st1" d="M228,81c-0.8,0.7-1.7,0.4-2.5,0.4c-0.1-0.1-0.3-0.2-0.4-0.3l0,0c0-1.9,0.1-3.8,0.1-5.6c0.1,0,0.3,0,0.4,0 c2.5,0.3,2.8,0.7,2.8,3.1C228.5,79.4,228.1,80.1,228,81z"></path> <path class="st1" d="M280.7,79.4c-0.3-1.3,0.2-2.4,0.6-3.5c0.2-0.6,0.4-1.3,0.6-1.9s0.5-1.4-0.2-1.6c-0.9-0.3-0.6,0.8-1,1.2 c-0.1-2.4,0.8-3.6,2.8-3.7c0.5,0.6,0.6,1.3,0.3,2.1c-0.7,1.8-1,3.8-1.2,5.7C281.6,77.7,281.5,79,280.7,79.4z"></path> <path class="st1" d="M252.9,116.7c-0.7,1.6-2,1.6-3.3,1c-1.4-0.6-2.8-1.1-4.4-1.3c0-0.3,0-0.6,0-0.8c1.6-0.5,3.3,0.2,4.9-0.5 C251.2,115.4,252.6,115.1,252.9,116.7z"></path> <path class="st1" d="M343.9,221.3c0-1.4,0-2.8,0-4.2c1.5,0.6,1.5-1.4,2.6-1.6c0.1,0,0.2,0,0.3,0.1c-0.2,1.2,1.1,1.3,1.5,1.9 c0.4,0.8-1.6,1-1.1,2.2l0,0c-0.7,0.1-1.5,0-1.7,0.8C345.2,221.5,344.5,221.2,343.9,221.3z"></path> <path class="st1" d="M277.7,78.1c0.4,0.6,0,1.2-0.1,1.8c-2.6-0.7-3.5-0.2-4.2,2.2c-0.4,0.2-0.8,0.4-1.2,0.5 c-0.5-0.2-1.2,0.2-1.6-0.5c1-1.1,1.2-2.7,2.3-3.7C274.4,78.2,276.1,78.7,277.7,78.1z"></path> <path class="st1" d="M106.4,91.8c-1.2-0.1-2.1-0.9-3.3-1c-0.9-0.1-1.4-1.1-1-2.1s1.1-0.4,1.7-0.2c1.5,0.4,2.9,1,4.1,2 C107.9,91.5,107.2,91.7,106.4,91.8z"></path> <path class="st1" d="M107.9,81c-1.4,1.6-1.9,1.5-3.2-0.1c-0.2-2.2,0.2-4.1,2-5.6c0.1,0.1,0.1,0.2,0.2,0.2c-0.1,0.9-0.2,1.8-0.3,2.7 C106.5,79.2,106.2,80.7,107.9,81z"></path> <path class="st1" d="M160.4,117.4c0.1,0.5,0,1-0.4,1.1c-1.4,0.5-1,1.6-1.1,2.6c-0.1,1.1,0.3,1.6,1.5,1.5c0.5,0,1,0,1.5,0v0.1 c-1,0.4-2.2-0.3-3.2,0.5c-0.4,0-0.8-0.1-1.1-0.4c-0.4-1.5-0.3-2.9,0-4.4C158.5,117.8,159.5,117.5,160.4,117.4z"></path> <path class="st1" d="M278.4,82.3c0-0.1,0.1-0.2,0.2-0.3c0.8,0.2,1.8,0.9,2.2-0.6c0.7,0.1,1.1,0.5,1.3,1.1c0.1,0.5,0.2,1-0.3,1.3 s-0.9,0.2-1.2-0.3c-0.4-0.8-1.1-0.6-1.8-0.6C278.7,82.7,278.5,82.5,278.4,82.3z"></path> <path class="st1" d="M106.7,75.3c0.3-0.1,0.6-0.2,0.8-0.2c0.1,0.1,0.1,0.2,0.2,0.2c-0.3,0.1-0.5,0.2-0.8,0.3 C106.8,75.4,106.7,75.4,106.7,75.3z"></path> <path class="st1" d="M233.2,153.6c-0.3-1.1,0.5-1.1,1.2-1.2C234.2,153,233.8,153.4,233.2,153.6z"></path> </g> <g> <path class="st2" d="M247,411c13.8-2.6,25.5-8.6,34.5-19.7c5.6-7,11.6-13.6,17.8-20c0.3-0.3,0.6-0.8,1.2-0.9c0.4,1,0,1.9-0.2,2.8 c-1.5,7.1-4.4,13.5-9.7,18.5c-2.1,2-2.6,4.1-2.1,6.5s-0.2,4.1-1.6,5.9c-1.6,2.1-3.8,3.7-5.6,5.6l0,0c-0.4-0.1-0.6,0-0.7,0.4l0,0 c-0.2,0.1-0.4,0.3-0.6,0.4c-2.6,1.3-5.2,2.7-7.8,4c-0.4-0.1-0.8,0-1.1,0.4l0,0c-2.2,0.4-4.2,1.1-6.1,2.2l0,0 c-2.2,0-4.1,1.1-6.2,1.5c-1.8,0.3-1.6,1.5-1.3,2.8c0.4,1.7,1.5,0.7,2.1,0.5c5.4-1.9,10.8-2.6,16.6-1.6c8.5,1.4,12.8,7.3,16.5,14.1 c-0.5,0.8-1.3,1.2-2.2,1.3c-0.8,0-1.6,0.1-2.4-0.1c-2.1-0.6-3.9-0.3-5.4,1.2c-0.2-1.8,0-3.6-1.5-5c-0.5-0.4-0.9-0.9-1.4,0.1 c-2.7,5.8-6.3,11.1-9.8,16.4c-0.4,0.6-0.8,1.3-0.1,2c0.6,0.6,1.2,0.5,2,0.3s1.2-1.3,2.2-0.9c-0.1,0.4-0.3,0.7-0.4,1.1h0.1 c-0.3,0-0.6,0.2-0.7,0.4c-0.1,0.1-0.3,0.2-0.4,0.3c-0.2,0.1-0.4,0.2-0.4,0.5l0,0c-0.5-0.1-0.8,0.1-1.2,0.2 c-2.3,0.8-2.3,0.8-2.4-1.8c-0.2-6.8-0.5-13.6-0.7-20.4c0-0.8-0.1-1.4-1-1.7c-5.3-1.4-10.6-2.8-16.1-2.9c-2.2-0.2-4.3-0.3-6.4,0.3 c-3.2,0.1-6,1.2-8.4,3.4c-0.7,0.6-1.4,1-2.3,0.7c0.8-1.4,2.2-2.1,3.5-2.9c2.8-1.7,5.9-2.3,9.1-2.9c3.6-0.7,7.1-1.6,9.8-4.4 c2.9-3,6.6-4.7,10.6-5.5c0.8-0.2,1.9,0.2,2.5-0.2c2.8-1.9,5.6-3.9,8.7-6.3c-0.9,0.1-1.3,0.1-1.6,0.2c-11.2,2.6-22.4,5.2-33.6,7.8 c-1.3,0.3-2.3,1-3.1,2.1c-1.9,2.7-4.4,4.8-7.4,6.3c-3.2,1.6-6.2,3.5-9.3,5.3c-3.9,2.3-8.1,3.8-12.8,3.6c0.7-0.5,1.4-1,2.1-1.5 c7.6-3.8,14.9-8.3,22.3-12.6C238.9,416.3,243.3,414.2,247,411z"></path> <path class="st2" d="M311.4,363.5c-2.3-0.8-2.6-1.2-2.3-3.4c1.4-8.7,3.4-17.3,6.7-25.5c0.3-0.7,0.3-1.4,0.2-2.1 c-0.6-2.5-1-5-1.1-7.5c-0.2-3.9,1.3-7.2,3.7-10.2c0.5-0.7,1.5-1.3-0.1-1.9c-0.4-0.1-0.5-0.9-0.7-1.4c-4.4-15.5-7.9-31.2-9.5-47.3 c-0.3-2.6-0.3-5.2-0.4-7.7c3.1,8.8,5.6,17.7,8.4,26.6c0.9,2.9,1.9,5.9,2.7,8.8c0.4,1.4,1,1.5,2.2,1.1c4-1.3,6.5-4.4,6.6-8.7 c0-2.8-0.2-5.5-0.3-8.3c0-1.7,0.2-3.4,0.8-5.1c0.6-1.6,1.7-2.3,3.4-2.1c2.1,0.3,4.2,0.4,6.2,1c-0.6,0.6-1.2,1.2-1.6,2 c-2.2,5.2-4.3,10.4-6.6,15.4c-1.3,2.7-0.6,5.1,0.4,7.6c0.6,1.4,1.7,2,3.3,1.8c1-0.1,1.9-0.6,2.9-0.4c-2.6,1.9-4.8,4.2-6.7,6.8 c-0.6,0.8-1.4,1.6-2.4,2c-3,1.1-3.7,3.6-3.8,6.4c-0.1,3.5,0,7-0.1,10.5c-0.1,6.2-1.6,12-5.1,17.3c-1.1,1.7,0.5,4.4,2.7,4.5 s3.9-1.2,5.4-2.5c3.2-2.8,4.9-6.5,6.2-10.5c0.2-0.6,0.3-1.2,0.6-2.1c1.8,6.1,1.8,11.9,1.6,18c1-0.4,1.2-1.4,1.9-1.8 c-0.1,0.5-0.2,1.1-0.3,1.6l0,0c-0.3,0.1-0.4,0.4-0.4,0.7c-0.4,1.6-1.6,2.6-3,3.3c-0.3,0.1-0.6,0.1-0.7,0.5l0,0c-1.4,0-1.5-1-1.5-2 c-0.1-2.2,0.7-4.4,0.7-6.9c-0.7,0.5-1.2,0.9-1.7,1.3c-5.2,4.4-10.3,9-15.3,13.7c-1.9,1.7-3.2,3.5-2.3,6.2l0,0 c-0.2,0.1-0.4,0.3-0.5,0.4C311.5,363.3,311.4,363.4,311.4,363.5z"></path> <path class="st2" d="M185.7,383.2c0.2,0.1,0.3,0.2,0.5,0.2c0.7,0.1,1.5,0.2,2.2,0.2c0.1,0.8-0.7,1.2-0.9,1.9c2.5,0.8,3.5,0.2,3.6-2 c1.2-0.6,2.4-1.1,3.2-2.2c0.3,1.3,1.3,0.7,2.1,0.6s1.4-0.8,2.2-0.7c-0.5,0.6-0.9,1.3-1.4,1.9c-1.3,1.7-1,2.7,1,3.5 c0.8,0.3,1.7,0.4,2.5,0.1c2.7-1,5.2-2.5,6.9-4.9c1.1-1.5,0.3-2.8-0.7-4c-1-1.3-1.9-0.2-2.8,0.3c-1.6,0.9-2.8,2.4-4.8,2.4 c0.7-1.4,1.8-2.4,3.1-2.9c2.5-0.9,5-1.6,7.6-2.3c4.5-1.1,9.1-2,13.7-3c1.1-0.2,2.1-1,3.4-0.7c-1.1,2.4-2.9,4.3-4.8,6 c-2.2,2.1-4.9,3.6-7.4,5.1c-0.5-1.7-1.7-1.6-3.1-1.3c-1.9,0.4-2.9,2.1-4.4,3.2c-0.8,0.6,0.4,1.2,0.8,1.6c0.3,0.3,1,0.8,1.1,0 c0.4-2.4,2-1.7,3.4-1.5c-2.5,2.3-5.2,4.4-7.9,6.3c-6.1,4.4-12.6,7.9-20.2,8.9c-2.7,0.3-5.2,0-7.4-1.7c3.1,0.2,6.2,0.5,9.4,0.4 c2.9-0.1,5.2-1.3,7.2-3.7c-1.1-0.1-1.9-0.3-2.7-0.4c-4.9-0.6-9.8-0.2-14.7-0.4c-5.2-0.1-11.7-5.1-13.4-10.3 c5.8,0.5,11.6,0.3,17.5,0.2c-2-0.7-4.2-0.3-5.7-2C178.3,382.6,182.1,381.8,185.7,383.2z"></path> <path class="st2" d="M97.3,224.4c-0.2-4.4,0-8.8,1.6-13c2.1-5.5,1.9-11.4,2.4-17.1c0.3-4.1,0.5-8.2,0.4-12.4c0-0.9,0.2-1.6,0.9-2.3 c1.5-1.3,1.5-3.2,1.6-5c0.1-2.9,1.2-5.3,3-7.5c1.7-2.1,2.9-4.3,2-7.1c-0.2-0.7,0.2-1.2,0.6-1.6c2.1-2.1,4.3-4.3,5.6-7.1 c0.4-0.9,1.3-1.1,2.2-1.3c4.3-0.9,8.8-0.6,13.2-1.5c0.1,0,0.1,0.2,0.2,0.3c-4,2.9-8.3,4.7-13.4,3.7c-0.7-0.1-1.2,0-1.7,0.5 c-1,1.2-1.9,2.3-2.1,3.9l0,0c-0.3,0-0.4,0.3-0.4,0.5c-0.3,0.2-0.7,0.3-0.7,0.8c-1.7,0.8-2.2,2.3-2.6,3.9c-0.5,2.7-1.2,5.4-3.2,7.3 c-1.1,1-1.4,2-1.3,3.4c0.2,2.4,0.2,4.8-1,6.8c-2.1,3.4-2.6,6.8-1.1,10.4c0,0.2-0.1,0.5-0.1,0.7c-2.1,1.5-2.1,3.6-1.6,5.8 C103.8,206.4,102,215.6,97.3,224.4z"></path> <path class="st2" d="M195.3,288c-1.9-0.5-2.8-2.2-4.1-3.6c0.2-1.1-0.8-2.1-0.4-3.3c2.2,2,4.8,3,7.8,3.2c4,0.3,8.1,0.8,12.2,0.5 c0.7,0,1.8,0,1.8-0.9c0-0.8-1.1-0.6-1.7-0.6c-2.9-0.3-5.6-1-8-2.5c-1-0.7-1.8-0.9-3-0.3c-2.1,1.1-3.1,0.5-4.2-1.7 c3.3-0.4,6.4,0.3,9.5,1.7c2.4,1.1,4.9,1.4,7.5,1.4c1.8,0.1,3.3-0.3,4.4-1.8c0.8,2.2,2.4,3.4,3.7,2.4s2.5-0.7,3.8-0.4 c1.6,0.4,3.3,0.4,4.9,0.5c5.4,0.2,10.3-1.6,14.7-4.5c0.9-0.6,1.6-1.4,1.4-2.6c0.1,0,0.3-0.1,0.4-0.1c1.4,0.7,0.3,1.5-0.1,2 c-1.4,1.9-3.3,3.3-5.2,4.6c-1.1,0.8-2.2,1.8-3.7,2.1c-2.7-0.2-5.5-0.4-8.2-0.7c-2.8,0-5.7-0.8-8.3,0.9c-0.3,0-0.7,0-0.8,0.4l0,0 c-3.5-0.4-6.7,0.9-10.1,1.4C204.8,287,200,287.4,195.3,288z"></path> <path class="st2" d="M148.2,358.8c2,0,4.1,0.2,6.1-0.4c3.8,0.2,5.5-2.6,7.3-5.2l0,0c0.3,0,0.4-0.1,0.4-0.4l0,0 c1.9-0.1,3.7-0.7,5.3-1.8c0.8,0,1.6,0,2.4-0.1c1.3,0.6,3,0.2,4.2,1.3c-0.3,0.5-0.9,0.5-1.3,0.7c-4.5,2.2-8.2,5.4-10.5,9.9 c-0.4,0.8-1,0.7-1.5,0.6c-1.2-0.2-1.7,0.3-1.7,1.5c-3.6,0.6-7.3,0-10.9,0c-0.1-0.1-0.2-0.2-0.3-0.3l0,0c-0.5-0.6-1.1-1-1.9-1.1l0,0 c0-0.3-0.1-0.4-0.4-0.4l0,0c0-0.4,0-0.7-0.1-1.1c0.1-0.1,0.2-0.2,0.3-0.3c0.8,1.1,2,1.5,3.4,1.4c3.3-0.1,6.5,0,9.8,0 C155.3,361.2,151.6,360.4,148.2,358.8z"></path> <path class="st2" d="M104.6,275.5c0.4,4.9,4.8,9.5,9.8,10.1c5.3,0.7,10.6,0.3,15.5-2c1.4-0.7,2.5-2.1,4.2-2 c-0.8,2.2-2.4,3.6-4.5,4.6c-2.7,1.2-5.5,1.5-8.3,2c-0.4,0-0.9,0-1.3-0.1c-5-0.2-9.8-1.4-13.9-4.5c-0.7,1.7-0.6,3.3-0.8,4.9 c-0.1,0.8-0.1,1.7-0.2,2.5c-0.1,0.4-0.2,0.8-0.3,1.2c-0.6,4.8-1.1,9.6-2.3,14.3c-0.1,0.2-0.2,0.5-0.4,0.5c-0.3,0.1-0.3-0.3-0.3-0.5 c0-0.5-0.1-0.9-0.1-1.4c0-5,0-10.1-0.1-15.1c0-1,0-1.8,1.4-1.6c0.8,0.1,1.3-0.3,1-1.2c-0.6-2.1-0.5-4.4-0.8-6.6c0-1.3-0.2-2.7,0-4 C103.7,276.3,104.1,275.9,104.6,275.5z"></path> <path class="st2" d="M141.8,275c1.3-1.1,1.3-2.3,0.5-3.6c-1.5-2.7-3-5.4-6.3-6.3c-2-0.6-3.1-2-3.5-4.1c-0.3-2-1.4-3.5-2.9-4.8 c-6.4-5.7-13.1-10.8-20.7-14.7c-0.7-0.4-1.4-0.8-2.2-1c-1.9-0.5-3.6-1.3-4-3.5c-0.1-0.6-0.7-1.3-1.3-1.5c-4-1.2-4.1-4.4-4.1-7.7 c0.4,0.6,0.8,1.2,1.3,1.7c1.8,2.3,3.1,4.9,5.3,6.9l0,0c0.1,0.3,0.3,0.4,0.6,0.4l0,0c0.2,0.3,0.5,0.5,0.9,0.4l0,0 c0.1,0.4,0.5,0.4,0.7,0.5c1.6,0.5,2.9,1.5,4.4,2.3c0,0.3,0.2,0.5,0.4,0.5l0,0c0.1,0.3,0.4,0.5,0.7,0.4l0,0c0,0.3,0.1,0.4,0.4,0.4 l0,0c1.1,1.5,2.7,2.2,4.1,3.2c2.8,1.9,5.4,4.1,8.5,5.6l0,0c0.2,0.5,0.6,0.8,1.1,0.8l0,0c0.1,0.4,0.3,0.6,0.7,0.4l0,0 c-0.1,0.3,0.1,0.4,0.4,0.4l0,0c0,0.3,0.1,0.4,0.4,0.4l0,0c0,0.3,0.2,0.4,0.4,0.4l0,0c0.1,0.3,0.3,0.6,0.7,0.4l0,0 c-0.1,0.3,0,0.5,0.4,0.4l0,0c1.6,2.6,3.7,4.7,5.7,7c0.7,0.8,1.2,1.4,1,2.5c-0.2,1.4,0.4,2.1,1.8,2.4c1.8,0.3,3.5,0.9,5.1,1.8l0,0 c0.8,2,1.6,4.1,1.5,6.3c0,1.2-0.4,2.2-1.8,2.3C141.9,275.2,141.9,275.1,141.8,275z"></path> <path class="st2" d="M200.6,253.9c-3.4,1.2-6.7,2.8-10.3,3.4c-4.7,0.7-7.1-1.4-6.8-6.1c0.1-1.3,0.4-2.5,0.6-3.8 c1.3-0.8,2.7-1,4.2-1.1c-0.2,0.9-0.9,1.5-1.6,1.9c-2.2,1.1-1.7,2.9-1.3,4.6c0.4,1.8,1.7,3.1,3.6,3.3c4,0.4,7.7-0.5,10.8-3.2 c1.4-1.2,2.6-2,4.5-2c2.2-0.1,4.4-0.7,6.2-2c2.4-1.7,4.9-1,7.4-0.9c-0.2,0.4-0.3,0.7-0.5,1.1c-2.1,0.7-4.4,0.6-6.5,1 C207.2,250.6,204,252.5,200.6,253.9z"></path> <path class="st2" d="M113.8,254.9c1.8,0.3,3.2,1.4,4.7,2.3c0.6,0.4,0.6,0.9,0.4,1.4c-0.5,1.2-1.4,1.8-2.7,1.9 c-3.2,0.2-6.5-0.2-9.7,0.3c-0.8,0.1-1.7,0.1-2.7,0.6c2.2,2.6,1.6,5.5,1.1,8.4c-1.1-0.1-1.5-0.7-1.4-1.8c0.1-1.2,0.2-2.5-0.3-3.7 c0-0.5-0.1-1-0.4-1.4c0-0.3,0-0.5-0.4-0.5l0,0c0.2-1.2-0.6-2.2-0.8-3.3c-0.1-1.1,0.1-1.7,1.3-1.5c1.4,0.2,2.9,0.4,4.3,0.6 c2.3,0.3,4.6,0.9,6.9,0c1.6-0.6,1.7-1.3,0.4-2.3h-0.1C114.2,255.4,114,255.1,113.8,254.9z"></path> <path class="st2" d="M187.1,277.8c-0.4-0.9-0.8-1.8-1.1-2.7c-1.4-4.2,0-7.6,2.9-10.6c2.4-2.4,4.7-4.9,8.2-5.6 c-1.5,1.5-3,3.1-4.2,4.8c-1.2,1.7-2.7,3.3-3.1,5.4c-0.6,3.3-0.8,6.6-0.3,9.9c-0.6-0.2-1.2-0.3-1.7-0.5c-0.1-0.1-0.3-0.2-0.4-0.3 C187.5,278,187.3,277.8,187.1,277.8L187.1,277.8z"></path> <path class="st2" d="M225.2,168.6c-0.1-1.1-0.3-2.2-0.4-3.3c2.9,1.8,5.5,4,8.3,6c2,1.5,2,4.6,2.5,7.1c-0.7-0.8-1.5-1.3-2.5-1.4 c-4-0.5-6.1-3.1-7.2-6.7C225.7,169.7,225.4,169.1,225.2,168.6z"></path> <path class="st2" d="M220.6,247.5c0.2-0.2,0.5-0.4,0.7-0.5c2-0.7,4-1.1,5.5-2.8c0.7-0.8,2.2-0.7,3.3-0.5c3.1,0.6,6.1,1.3,9.2,1.9 c0.7,0.1,1.3,0.3,2.1,0.1c-0.3-1.5-1.9-2.2-2.2-3.6c1.7,0,3.4,0,5.1-0.1c0.3,0,0.5,0.1,0.8,0.1c1.4,0.8,2.9,1.5,2,3.5 c-1.6,0.7-3.4,0.6-5.1,0.8c-1.6-0.2-3.2-0.4-4.8-0.2c-3,0-6-0.4-9,0.2c-1-0.1-2,0.2-2.8,0.6C223.8,247.7,222.2,247.9,220.6,247.5z"></path> <path class="st2" d="M148,280.7c-1.8,2.5-4,3.2-6.9,2.1c-1.6-0.6-3.2-1.1-5-1.3c1-0.5,1.6-1.3,3-1.3c1.3,0.1,1.5-1.4,1.4-2.6 c-0.1-1.1,0.1-2.1,1.3-2.6c0.1,0.1,0.1,0.1,0.2,0.2c-0.1,1.5,1.1,1.5,2,1.5c1.1,0,2.1,0,3.1,0.4C147.9,278.2,148.4,279.3,148,280.7 z"></path> <path class="st2" d="M217,259.3c1-0.5,2.2-0.4,3.3-0.6c2.2,0,4.3,0.7,6.3,1.7c1.8,1.1,3.5,2.3,5.7,1.5c0.6,0,1.4-0.4,1.8,0.6 c0.2,1.7,1.5,1,2.4,1.2l0,0c0.3,0.4,0.7,0.4,1.1,0.4c1.2,0.9,2.7,1.5,3.6,2.7c0.2,0.2,0.4,0.4,0.6,0.6c0.1,0.1,0.2,0.2,0.3,0.3 c1.1,1.9,2.3,3.8,2.4,6c-1-1.3-1.9-2.6-2.9-3.8c-2.9-3.5-6-6.7-11-6.3c-1.4,0.1-2.4-0.3-3.5-1.1c-1.3-1-2.6-2.3-4.4-2 C220.6,261,218.7,260.6,217,259.3z"></path> <path class="st2" d="M177.1,398.4c-1.3,0-2.7,0-4,0.4c-1.1,0.4-2,0-3-0.5c-0.9-0.5-1.9-1.2-3-1l0,0c-0.1-0.5-0.4-0.4-0.8-0.4l0,0 c0-0.3-0.2-0.3-0.4-0.3l0,0c-0.2-0.1-0.5-0.2-0.7-0.4c-3.6-2.2-5.9-5.5-8.2-8.9c0-0.3,0.1-0.7-0.4-0.7l0,0c0-1.7-1.5-2.8-1.4-4.5 c2.8,4.6,6,8.8,10.6,11.8C169.4,396.1,173.2,397.3,177.1,398.4z"></path> <path class="st2" d="M171.4,378.7c-1-1.4-2.2-2.7-2.8-4.3c0.8,0,1.6,0,2.4-0.1c2.5-0.2,5.2,0.1,7.3-1.7c1.2-0.2,2.4,0.1,3.5,0.3 c0.4,1.4,0,2.6-0.8,3.7c-0.7,0.2-1.3,0.4-2,0.6c-1.9-0.2-3.8-0.5-5.8-0.6C171.2,376.5,171.1,376.7,171.4,378.7z"></path> <path class="st2" d="M226.3,240.4c-1.7,3.2-2,3.4-5.4,2.9c-4.1-0.6-8.3-0.8-12.3-2c-0.9-0.3-1.6,0.1-2.3,0.7c-2,2-4.6,3-7.3,3.5 c0.8-0.8,1.8-1.2,2.5-2.2c2.8-0.3,5.1-1.9,7.6-3c1.4-0.6,2.7-0.3,4.1-0.3c2.2,0.7,4.4,1.4,6.7,1.9c1.5,0.3,3,0.6,4.4-0.5l0,0 c0.4,0,0.7-0.1,0.7-0.5c0.1-0.1,0.1-0.2,0.2-0.2c0.3,0.1,0.5,0,0.5-0.4l0,0C225.8,240.4,226,240.4,226.3,240.4L226.3,240.4z"></path> <path class="st2" d="M138.3,360.7c-0.3-0.3-0.5-0.7-0.8-1c-1.3-1.2-2-2.3-0.2-3.7c1.1-0.8,0.6-2.3,1.3-3.3c0.3,0.3,0.7,0.6,1,0.9 c1.7,1.7,4.2,2.4,6,4c-1.5,0.2-2.7-0.7-3.9-1.2s-1.3,0-1.2,0.9c0.2,1.9,1.5,2.9,3.2,3.4c0.7,0.2,1.5,0.1,1.8,1 c-0.1,0.1-0.2,0.2-0.3,0.3c-2.3,0.1-4.4-0.5-6.6-1.2l0,0C138.7,360.7,138.5,360.6,138.3,360.7C138.2,360.6,138.3,360.7,138.3,360.7 z"></path> <path class="st2" d="M248,465.8c0.4,1,0.7,2.1,1.1,3.1c0.6,1.7,1.7,2.8,3.4,3.4c2,0.9,3.2,0.2,3.4-2c0.2-2.6,0.8-3.2,2.9-3.5 c1-0.1,1.7,0.1,1.9,1.1c-0.7-0.2-1.4,0-1.8,0.6c-0.6,0.9-0.7,1.9-0.8,3c-2.3,3.8-6.2,3.7-8.6-0.2c-0.9-1.5-1.8-3-2.6-4.6 C246.3,465.4,247.8,466.3,248,465.8z"></path> <path class="st2" d="M258.8,456.4c0.2-0.9,0.8-0.7,1.4-0.7c1,0,2.1,0,3.1,0c0.9-0.1,1.4,0.2,1.5,1.2c0.1,1.2,0.9,2.1,2.1,2.5 c0.5,0.5,1.1,0.7,1.8,0.8c1.7,0.8,3.5,1.2,5.4,1.4c0.1,0.2,0.3,0.4,0.2,0.5c-1.9,3.6-3.6,7.4-6.8,10c-0.8,0.6-1.5,1-2.5,0.9 c3.7-2.2,5.2-6.2,7.4-9.6c0.3-0.6,0.2-0.9-0.5-1c-3.4-0.4-6-2-8-4.9C262.7,455.9,260.7,455.7,258.8,456.4z"></path> <path class="st2" d="M245.7,5.8c-0.4,1.6-0.8,3.3-1.7,4.8c-0.7,1.3-1.7,2.2-3.2,2.1c-1.9,0-3.9,0-5.7-0.8c1.4-0.8,2.9-1.5,4.1-2.6 C241.6,8.4,243.4,6.6,245.7,5.8z"></path> <path class="st2" d="M87.8,200.6c0.4,2.4,0.2,4.9-0.1,7.3c-0.6,3.7,0.2,6.9,1.7,10.1c1.7,3.6,3.9,7,4.6,11 c-2.3-4.8-4.8-9.6-6.5-14.8c-0.9-2.6-1.4-5.3-0.4-8.2C87.7,204.3,87.6,202.4,87.8,200.6z"></path> <path class="st2" d="M212.7,370.3c2.7-1,5.6-1.7,8.2-2.9c0.4,0,0.7,0,0.9-0.4l0,0c0.6,0,1.2,0,1.8,0c-4.2,1.8-8.3,3.7-12.5,5.5 c-1.3,0.5-2.7,0.7-4.2,0.7c-0.7,0-1.3,0.1-2,0.3c-3.5,0.9-7.1,1.3-10.7,0.8c2.8-0.6,5.6-1,8.4-1.4c3-0.4,6.1-0.7,8.9-2.2l0,0 C212,370.7,212.4,370.6,212.7,370.3z"></path> <path class="st2" d="M161.2,372.2c0.7,0.6,2.7-0.1,2,1.9c-2.5-1.7-5.3-1.1-8-1.3c-0.6,0-1.3,0-1.4-0.6c-0.3-1.7-1.6-0.9-2.2-0.7 c-0.9,0.3,0,1.1,0.1,1.7c0.1,0.9,0.8,1.7,0.7,2.6c-2.6-1.1-4.4-2.8-5.1-5.8c3.3,0.5,6.4,1.4,9.6,1.4 C158.3,371.7,159.7,372,161.2,372.2z"></path> <path class="st2" d="M234.7,187.5c1.1,0.1,1.6-0.5,1.7-1.6c0.1-0.7,0.2-1.4,0.2-2.1c0.9,2.4,1.6,4.9,3.1,7 c-1.2,0.5-2.5,0.8-3.9,0.8c-2.9,0.2-3.2-0.1-2.5-2.8C233.8,188.4,234.2,188,234.7,187.5z"></path> <path class="st2" d="M231.5,362.9c4.4-0.1,4.4-0.1,4.4,4.3c-0.2,0.1-0.3,0.2-0.5,0.4c-0.3,0.1-0.6,0-0.7,0.4l0,0 c-0.4,0-0.7,0-1.1,0c0.7-1.4,0.2-2.2-1.5-2.6c-2.4-0.6-4.7,0-7,0.8c0.3-0.4,0.5-0.8,0.8-1.1l0,0c1.3-0.2,2.2-1.2,3.3-1.8 C229.9,363.2,230.8,363.3,231.5,362.9z"></path> <path class="st2" d="M237.5,240.5c-0.7-0.2-1.5-0.1-2.2,0.1c-2.8,0.9-5.5,1-8.2-0.2c-0.2-0.1-0.6,0-0.9,0l0,0 c0.3-0.6,0.5-1.3,0.8-1.9c2-0.4,3.9,0.1,5.9,0.1C234.5,239.2,236.2,239.3,237.5,240.5z"></path> <path class="st2" d="M209.6,434.5c-3.2,1.5-6.5,1.6-9.9,1c-1-0.2-2-0.4-3.1-0.1l0,0c-0.7-0.6-1.5-0.3-2.3-0.4 c-1.2-0.3-2.3-0.6-3.5-0.9c3.1-0.5,6.1,0.2,9.2,0.2C203.3,434.2,206.4,434.4,209.6,434.5z"></path> <path class="st2" d="M204.9,148.3c-2.2-0.1-4.4-0.2-6.6-0.3c-1.6-0.1-3.2-0.3-4.8-0.4c1-1.5,2.5-1.6,4.2-1.5 C200.2,146.4,202.8,146.5,204.9,148.3z"></path> <path class="st2" d="M235.9,434c0-0.7,0.2-0.8,0.9-0.5c2.8,1.3,3.7,3.4,2.6,6.3c-1.3-0.9-2-2.3-2.6-3.7 C236.4,435.4,236.1,434.7,235.9,434z"></path> <path class="st2" d="M339.4,341.4c1-2.1,2.7-3.4,4.6-4.3c1.3-0.7,2.5,0.1,3.1,1.8c-0.7,0-1.5-0.2-2.1,0.3 C342.9,339.2,341.4,340.9,339.4,341.4z"></path> <path class="st2" d="M190.6,431.3c0.3,0,0.7-0.1,1-0.1c2.1,0.1,4.1,0.1,6.2,0.2c0.5,0,1-0.2,1.3,0.4c-0.1,0.5-0.1,0.9-0.2,1.4 c-2.2,0.2-4.4,0.3-6.3-1.2C192.1,431.5,191.3,431.5,190.6,431.3z"></path> <path class="st2" d="M250.1,488c-0.1,0.7-0.1,1.5-0.2,2.2c-0.1-0.4-0.4-0.8-0.4-1.2c-0.1-1.4-2-3,0.1-4.4c0.2-0.1,0-0.8-0.1-1.2 c-0.3-0.9-1.1-1.5-1.8-2c0.2-0.2,0.5-0.5,0.7-0.7c1.7-0.1,2.3,0.7,2,2.4C250.1,484.7,249.7,486.3,250.1,488z"></path> <path class="st2" d="M247.6,496.2c-0.5,0.9-1.2,1.7-0.6,2.9c-0.1,0.7-0.1,1.6-1.1,0.5c-1.4-1.7-1.4-3.6-0.7-5.5 c0.1-0.1,0.2-0.1,0.3-0.1C246,494.8,246.4,495.8,247.6,496.2z"></path> <path class="st2" d="M297.3,225.6c-0.1-0.5-0.3-1-0.4-1.5c1.9,2.1,2.9,4.6,3.7,7.2c-0.4-0.4-0.7-0.8-1.1-1.2 C298.8,228.7,298,227.1,297.3,225.6z"></path> <path class="st2" d="M194.3,378.1c-0.2-0.1-0.3-0.3-0.5-0.1l0,0c0.1-0.4-0.2-0.6-0.5-0.7c-0.6-0.5-1.1-1-1.7-1.5 c-0.9-1.8,1-0.9,1.4-1.4C193.8,375.5,194.5,376.6,194.3,378.1z"></path> <path class="st2" d="M146.4,358.1c0.4,0.1,0.8,0.2,1.1,0.3c0.2,0.1,0.3,0.2,0.5,0.3C147.4,358.6,146.8,358.6,146.4,358.1z"></path> <path class="st2" d="M188.7,246.1c0.1,0.1,0.2,0.2,0.3,0.3c-0.1-0.1-0.3-0.1-0.4-0.2C188.6,246.1,188.6,246.1,188.7,246.1z"></path> <path class="st2" d="M263.8,472.9L263.8,472.9L263.8,472.9z"></path> <path class="st2" d="M266.6,209c-0.1-0.3-0.4-0.4-0.7-0.4c-6-3.5-11.1-8.1-15.6-13.5c0.5-0.3,0.8-0.4,1.2-0.7 c0.9-0.6,1.3-1.5,1.2-2.5c-0.1-1.2-1.1-1.5-2-1.6c-2.6-0.5-5.3-0.3-7.9,0c-0.8,0.1-1.6,0.2-2.4,0.3c-0.2-1.2,0.4-1.7,1.5-2 c9.2-2.2,18.3,1.9,22.9,10.2c0.7,1.3,0.1,1.7-0.9,2.2c-2.8,1.5-2.8,2.4,0,4.1c3,1.7,6.1,3.2,9.1,4.9c1.8,1,3.4,2.2,4.6,3.8 c-4.2,0.1-7.5-1.8-10.5-4.3C267,209.3,266.8,209.2,266.6,209z"></path> <path class="st2" d="M110.9,79.3c0,0.1,0.1,0.3,0,0.4c-1.2,2.1-0.6,3.9,0.4,5.9c0.7,1.5-1.1,4-3.3,4.9c-1.2-1-2.7-1.5-4.1-2 c-0.6-0.2-1.3-0.8-1.7,0.2c-0.3,0.9,0.1,1.9,1,2.1c1.2,0.2,2.1,1,3.3,1c-1.3,1.3-3.1,1.6-4.5,2.8c-0.6,0.6-1.3,0.1-1.5-0.9 c-0.5-2.3-0.4-4.3,1.2-6.2c1.7-1.9,2.4-4.3,3-6.7c1.3,1.7,1.8,1.7,3.2,0.1c0.4-0.6,1-1.1,1.7-1.4C110,79.5,110.4,79.4,110.9,79.3z"></path> <path class="st2" d="M224.7,53.4c1.2-1,2.7-1.4,4.2-1.4c3.2,0.1,6.3-0.2,9.2-1.3c0.9-0.3,1.8-0.2,2.7-0.2c3.1,0,6.2,0,9.2,0 c0.5,0,1.1,0,1.2,0.6c0.1,0.7-0.5,0.7-1,0.8c-3.1,0.9-6.4,1.9-9.5,1.7c-3.7-0.2-7.2,0-10.6,1.3c-0.3,0.1-0.7,0-1.1,0 c0.3-1.4-0.8-1.2-1.6-1.3C226.6,53.5,225.6,53.9,224.7,53.4z"></path> <path class="st2" d="M132.6,68.8c0.1-1.2-0.8-1-1.5-1c-1.8-0.1-3.6,0.4-5.3-0.3c2-0.9,4.2-0.9,6.1-1.7c7.1-2.9,14.4-0.6,21.6-1.3 c-1.5,1.4-3.5,1.5-5.3,1.8c-4.5,0.8-9.1,1.1-13.4,2.5C134.1,69,133.4,68.9,132.6,68.8z"></path> <path class="st2" d="M224.3,56.4c-2.1,0.9-4.3,1.3-6.5,1.8c-5.4,1.2-10.4,3.5-15.8,4.7c-1.3,0.3-2.2,1.3-3.2,2.1 c-0.9,0.7-2,0.8-2.9,0.2c-0.6-0.4-0.6-1.5-0.2-1.9c0.6-0.7,1.5-1.6,2.2-1.8c2-0.4,3.8-1.4,5.8-1.7c0.4,1.2,2.3,1.5,3.5,0.8 C212.5,57.5,218.2,56.2,224.3,56.4z"></path> <path class="st2" d="M131.7,154.1c-0.2-0.1-0.3-0.2-0.5-0.2c0-1.6,0.1-3.2,0.1-4.8c4.2,3.3,8.8,5.9,14,7.3c2.4,0.7,4.6,0.6,6.9-0.5 c2.8-1.4,5.8-2.7,9-3.2c-3.6,1.7-7.1,3.5-10.7,5.1c-1.3,0.5-2.8,0.2-4.2-0.1c-4.2-0.8-8.1-2.7-12.4-3.3 C133.2,154.4,132.4,154.2,131.7,154.1z"></path> <path class="st2" d="M361.2,256.9c-1.2-1.8-5.7-2.3-7.3-0.8c-0.5,0.5-0.3,1-0.2,1.5c0.2,1.6,0.4,3.2,0.5,4.8 c0.1,1.1-0.5,1.6-1.6,0.9c-0.6-0.4-1.2-0.7-1.7-1.1c-1.1-1-2.8-2-2.4-3.6c0.5-1.7,2-2.7,3.7-3.3c0.4-0.1,1,0,1.1-0.5 c0.2-0.6-0.6-0.6-0.9-1c2.3,0,4.6-0.3,6.9,0.2C361.3,254.5,361.7,255.2,361.2,256.9z"></path> <path class="st2" d="M215.8,160.3c-2.7,0-4.6-1.3-5.8-3.7c-0.9-1.8-2.2-3.4-2.6-5.5c0.5,0,1.1,0.1,1.6,0.1c4.4,0.2,5.9,1.6,6.7,5.9 C215.9,158.2,216,159.3,215.8,160.3z"></path> <path class="st2" d="M351.3,281.7c1.9,0.1,3-0.8,3.5-2.6c0.4-1.7,1.3-3.1,2.2-4.5c1.9-2.9,2.9-6.2,3.4-9.6c0.4-2.5,0.6-5,0.9-7.5 c1.5,3.3,1.3,6.6,0.2,9.8c-1.5,4.3-3.3,8.6-5,12.8c-0.4,0.9-0.9,1.8-1.6,2.4C353.4,283.9,352.1,283.6,351.3,281.7z"></path> <path class="st2" d="M305.3,249.5c-2.3-1.9-2.9-4.6-3.2-7.4c-0.4-3.4-1.1-6.8-1-10.3c2.2,4.3,4.3,8.6,3.1,13.7 c-0.1,0.3-0.2,0.7,0.2,0.8C306.2,246.9,305.2,248.4,305.3,249.5z"></path> <path class="st2" d="M186.3,145.8c-0.5,1.3-1.5,2-3,1.7c-0.9-0.1-1.8,0-2.8,0c-3.5-0.2-7,0-10.2,1.7c-0.3,0.2-0.7,0.1-1.1,0.2 c2.2-3.1,5.6-3.3,8.9-3.6C180.9,145.7,183.6,145.8,186.3,145.8z"></path> <path class="st2" d="M226.9,128.6c-0.5,1.8-2,2.5-3.6,1.6c-0.9-0.5-1.8-1.1-2.9-1.1c-0.7,0-1.5,0.1-1.5-0.9c0-0.8-0.4-1.6,0.7-2.2 c1.5-0.8,2.5-2.4,4.1-2.9c0,1.1-0.3,2.2-1.1,3c-0.3,0.4-0.6,0.6-0.1,1.1C223.7,128.3,225,129.4,226.9,128.6z"></path> <path class="st2" d="M342.3,255c0,2.1,0.8,4,1.9,5.7c0.9,1.4,0.9,2.7-0.3,4c-1,1.1-1.8,2.4-3.1,3.1c0.5-1.9,1-3.9,1.6-5.8 c0.3-1.2,0.2-2-0.6-3C340,256.7,340.1,256.6,342.3,255z"></path> <path class="st2" d="M233,138.4c0.1,1.3,0.7,2.1,2.2,2.2c1.1,0.1,2.2,0.4,3,1.2s0.6,1.9-0.1,2.6c-0.7,0.7-1.2-0.1-1.6-0.6 c-1-1.2-2.5-1.5-3.8-2.1c-1.6-0.8-3.6-1.2-4.4-3.2c0.6,0,1.2-0.1,1.6,0.6c0.3,0.5,1,0.7,1.1,0.1C231.4,138,232.3,138.5,233,138.4z"></path> <path class="st2" d="M288.4,219c-2.2-1.2-4.7-1.7-7-2.5c-1.5-0.5-3-1.1-3.7-2.7c5.7,1.3,11,3.4,15.7,6.8c0.2,0.1,0.4,0.3,0.2,0.6 C291.9,220.5,290.2,219.7,288.4,219z"></path> <path class="st2" d="M336.2,91.5c-0.1,1.4-0.9,2.5-2.2,2.8c-1,0.2-2.3-1.4-2.3-2.6c0-0.8,2-2.5,2.8-2.5 C335.7,89.2,336.2,89.9,336.2,91.5z"></path> <path class="st2" d="M371.7,213.8c-0.8,1.9-3,2-4.6,0.7c-1.2-1-1.9-1.9-1.8-3.6c0-1.7,1.3-2.3,2.2-2.9c0.9-0.6,2.2,0,2.9,1.1 c-0.1,0.1-0.2,0.2-0.4,0.3c-0.6,0-1.2-0.1-1.8,0c-1.2,0.2-1.8,1.5-1.8,2.2c0.1,1.5,1.5,2.2,2.7,3c1.1,0.7,0.9-1.2,1.8-1 c0.2,0,0.3-0.1,0.5-0.1C371.5,213.7,371.6,213.8,371.7,213.8z"></path> <path class="st2" d="M237.9,150.6c-0.7,0.4-1.4,0.3-2.1,0.2c-1.1,0-1.6,0.4-1.4,1.5l0,0c-0.7,0.1-1.6,0.1-1.2,1.2 c-0.5,1-0.1,2.1-0.3,3.2c-2-1.8-2-4.5,0.1-6.9C233.7,148.9,236.3,149.3,237.9,150.6z"></path> <path class="st2" d="M162,122.5c0.7-1.7,1.7-3.2,3.3-4.1c1.8-1,2.3-2.2,1.3-3.8c-0.8-1.4-2.2-0.6-3.3-0.6c0.5-0.7,1.5-0.7,1.9-1.5 c0.1-0.1,0.6-0.1,0.9,0c2.4,1.1,2.9,4.1,1,6C165.6,120.1,164.1,121.8,162,122.5z"></path> <path class="st2" d="M252.9,116.7c1.4,0.6,0.7,1.6,0.4,2.5c-0.3,1-1.1,0.7-1.7,0.6c-1.7-0.5-3.4-0.9-5.2-1.1 c-1.2-0.2-1.3-1.3-1.2-2.3c1.5,0.2,2.9,0.7,4.4,1.3C250.8,118.3,252.1,118.3,252.9,116.7z"></path> <path class="st2" d="M185.2,74.2c1.5,0.9,1.8,2.5,3,3.5c0.6,0.5-0.1,1.6-0.9,1.9c-0.8,0.3-1.7,0.4-2.1-0.8 C184.6,77.3,185.2,75.9,185.2,74.2z"></path> <path class="st2" d="M217,55.3c-4.1,2-8.5,3.1-12.9,4.5c2.2-1.4,4.3-2.7,6.8-3.6C212.9,55.4,215,55.5,217,55.3z"></path> <path class="st2" d="M283.6,69.9c-2,0-3,1.3-2.8,3.7c-0.7,1.4-1.5,2.8-2.8,3.8c-0.2-1.9,1.2-3.3,1.6-4.9c0.2-0.8,0.7-1.6,0.9-2.4 c0.2-0.6,0.4-1.1,1.1-0.9C282.2,69.2,283.3,68.5,283.6,69.9z"></path> <path class="st2" d="M112,254.1c-2.7-0.5-5.4-1.1-8.1-1.6c-0.7-0.1-1.3-0.2-2-0.2c-2.1,0-2.5,0.4-1.8,2.4c0.2,0.7,0.2,1-0.4,1.3 c-0.2-0.5-0.4-0.9-0.5-1.4c-0.5-2.7,0.5-3.7,3.1-3.3C105.7,251.8,109,252.4,112,254.1z"></path> <path class="st2" d="M280.7,79.4c0.8-0.4,0.9-1.7,2-1.7c-0.4,2,0,4,0.5,5.9c0.2,0.8,0.2,1.6-0.6,2.1c-0.4,0.3-1.1,0.3-1.3-0.2 c-0.5-1.1-1.8-1.5-2.4-2.5c0-0.1,0-0.1-0.1-0.2c0.6,0,1.4-0.1,1.8,0.6c0.3,0.6,0.7,0.7,1.2,0.3c0.5-0.3,0.4-0.9,0.3-1.3 c-0.2-0.6-0.6-1-1.3-1.1C280.7,80.8,280.7,80.1,280.7,79.4z"></path> <path class="st2" d="M272.8,78.5c-1.1,1-1.3,2.5-2.3,3.7c0.4,0.7,1.1,0.2,1.6,0.5c-0.6,1.1-1.6,1.4-2.7,1.4c-1.3,0-2-1.3-1.1-2.2 c1-1,1.8-2.1,2.8-3C271.6,78.3,272.2,78.4,272.8,78.5z"></path> <path class="st2" d="M239,153.8c0.6-0.4,1.1-0.5,1.7-0.1c-1,1.8-2,3.6-3.4,5.2c-0.6,0.7-1.4,1-2.3,0.9c-0.9-0.1-0.8-1-1-1.6 c0.7,0,1.5,0,2.2,0c0.4,0,0.9,0,0.9-0.4C237.2,156.3,238.8,155.4,239,153.8z"></path> <path class="st2" d="M228,81c0.1-0.9,0.5-1.6,0.5-2.5c0-2.4-0.3-2.8-2.8-3.1c0.8-0.5,1.1-1.9,2.5-1.2c1.3,0.7,2,1.7,1.7,3.1 C229.7,78.7,230.4,80.7,228,81z"></path> <path class="st2" d="M347.7,115.5c2-0.6,2.2,1.2,2.7,2.5c0.1,0.3,0.1,0.8-0.2,1c-0.4,0.2-0.7,0-1-0.2c-1.1-0.7-2-1.9-3.3-2.3 c-0.2-0.1-0.4-0.3-0.3-0.6c0.1-0.3,0.4-0.3,0.6-0.3C346.7,115.5,347.1,115.5,347.7,115.5z"></path> <path class="st2" d="M339,118.3c0.3-1.6,1-2.8,2.7-3.3c1.4-0.4,0.5-1.7,0.7-2.6c0.4,0.1,0.8,0.1,1.2,0.3c0.6,0.2,1.2,0.5,1.2,1.2 c0,0.8-0.8,0.6-1.2,0.9c-0.9,0.6-1.9,1.1-2.4,2.2C340.8,118,339.9,118.1,339,118.3z"></path> <path class="st2" d="M362.5,184.9c-0.4-1.7,0.2-2.1,1.8-1.6c2.7,0.7,3.3,1.2,2.8,2.9c-0.2,0.8-0.6,1.6-1.7,1.3 c0.2-0.8,0.1-1.8,1.3-2.1C365.3,184.1,363.9,184.8,362.5,184.9z"></path> <path class="st2" d="M354.3,184.6c0.3,0,0.6-0.1,0.9-0.1c2.9-0.1,2.9-0.1,2.8-2.9c0.6,0,1.1,0.3,1.3,0.8c0.3,0.8-1.3,2.8-2.6,3.4 C355.2,186.5,354.7,185.7,354.3,184.6z"></path> <path class="st2" d="M273.3,82.1c0.7-2.4,1.6-2.9,4.2-2.2c0.1,0.8,0.5,1.5,1,2.2c-0.1,0.1-0.2,0.2-0.2,0.3 C276.8,80.2,275.1,81.1,273.3,82.1z"></path> <path class="st2" d="M322.4,80c-1.5,0.1-1.9,1-1.1,2.5c0.4,0.8,1.4,1.4,1.1,2.5c-1.3-0.6-2-1.6-1.7-3.2c0.1-0.6,0-1.2,0-1.8 c0.1-0.6-0.4-1.5,0.6-1.5C322.1,78.5,322.5,79.1,322.4,80z"></path> <path class="st2" d="M323.8,85.7c0.5-0.1,1-0.3,2.1-0.5c-2.6-0.5-1.9-2.1-2-3.4c1.5,0.7,1.4,2.3,2,3.5c0.2,0.5-0.3,1-0.7,1.2 C324.5,86.8,324,86.3,323.8,85.7z"></path> <path class="st2" d="M157.7,118.4c-0.3,1.5-0.3,2.9,0,4.4c-1.3-0.2-2.3-2-2-3.8C155.9,117.8,157,118.6,157.7,118.4z"></path> <path class="st2" d="M225.3,75.4c0,1.9-0.1,3.8-0.1,5.6c-1.2-0.4-2-2.6-1.3-4C224.2,76.4,224.5,75.7,225.3,75.4z"></path> <path class="st2" d="M348.7,250.9c-2.5-0.7-4.5,0.3-6.2,2.1c0.1-1.1,0-2.3,1.5-2.5C345.7,250.2,347.3,249.2,348.7,250.9z"></path> <path class="st2" d="M250.1,115.1c-1.6,0.6-3.3,0-4.9,0.5c-0.3-1.1,0.1-1.6,1.4-1.7C247.9,113.9,249.1,114.3,250.1,115.1z"></path> <path class="st2" d="M342.3,292.2c-0.2-1.6-0.7-3.2,0.1-4.7c0.4,0.6,0.8,1.2,1.1,1.9C344.2,290.7,343.9,291.7,342.3,292.2z"></path> <path class="st2" d="M370.4,209.2c0.8,0.6,1,1.8,2.2,1.9c0.6,0.1,0.6,0.7,0.5,1.2c-0.2,0.8-0.4,1.5-1.4,1.6 c-0.1-0.1-0.2-0.2-0.3-0.3c0.3-1,0.5-2-0.8-2.5c-0.7-0.3-0.6-1-0.6-1.6C370.1,209.4,370.2,209.3,370.4,209.2z"></path> <path class="st2" d="M343.9,221.3c0.6-0.1,1.3,0.2,1.6-0.8c0.2-0.7,1.1-0.7,1.7-0.8c-0.1,1.2-1.2,1.7-1.9,2.3 C344.7,222.7,344,222.3,343.9,221.3z"></path> <path class="st2" d="M347.2,219.8c-0.5-1.2,1.5-1.5,1.1-2.2c-0.3-0.7-1.6-0.7-1.5-1.9c1.2,0,1.8,0.6,1.8,1.8 C348.6,218.4,348.8,219.6,347.2,219.8z"></path> <path class="st2" d="M342.1,112.3c-1.7,0.6-3.3,1.6-5.2,1.3C338.4,112.3,340.1,111.7,342.1,112.3z"></path> <path class="st2" d="M346.5,215.5c-1.1,0.1-1.1,2.1-2.6,1.6C343.6,214.6,345.4,215.7,346.5,215.5z"></path> <path class="st2" d="M158.8,123.2c1-0.8,2.2-0.1,3.2-0.5c0,1.3-1,1.5-1.9,1.7C159.1,124.5,158.9,123.8,158.8,123.2z"></path> <path class="st2" d="M336.6,113.6c-0.1,1.1-0.5,2.1-1.9,1.7C334.3,113.6,335.8,114,336.6,113.6z"></path> <path class="st2" d="M334.7,116.6c1.4-0.3,1.8,0.6,1.9,1.7C335.7,118,334.3,118.4,334.7,116.6z"></path> <path class="st2" d="M355.1,180.6c-0.1,1.3-1.1,0.9-1.9,1C353.2,179.9,353.5,179.8,355.1,180.6z"></path> <path class="st2" d="M362.5,185.7c1.4-0.1,1.5,0.7,1.4,1.8C362.3,187.8,362.2,186.8,362.5,185.7z"></path> <path class="st2" d="M358,181.7c-0.7-0.3-2,0.6-1.9-1C357.1,179.9,357.1,180,358,181.7z"></path> <path class="st2" d="M344,138c1.1,0.2,1.3,0.9,1.2,1.9C344.1,139.7,343.6,139.1,344,138z"></path> <path class="st2" d="M227.9,123c-1.3,0.1-2.6,0.2-3.8-0.1C225.4,122.8,226.6,122.8,227.9,123z"></path> <path class="st2" d="M226.9,128c-0.3-1-0.1-1.8,1.1-2C227.8,126.8,227.5,127.5,226.9,128z"></path> <path class="st2" d="M323.8,81.6c-0.7-0.1-1.1-0.6-1.2-1.3C323.6,80.1,323.8,80.8,323.8,81.6z"></path> <path class="st2" d="M232.9,138.4c0-0.2,0.1-0.4,0.1-0.7C233.3,138,233.4,138.2,232.9,138.4z"></path> <path class="st2" d="M162.3,152.4c-0.3,0.4-0.7,0.5-1.1,0.4C161.4,152.3,161.9,152.4,162.3,152.4z"></path> <path class="st2" d="M296.9,224.2c-0.2-0.1-0.4-0.3-0.5-0.4C296.6,223.9,296.8,224,296.9,224.2z"></path> <path class="st2" d="M113.9,254.9c-0.4,0.1-0.8,0-1.1-0.4C113.2,254.4,113.6,254.4,113.9,254.9z"></path> <path class="st2" d="M294.4,221.6c-0.4,0.2-0.7,0-0.8-0.4C294.1,220.9,294.2,221.2,294.4,221.6z"></path> <path class="st2" d="M163.1,152.1c-0.2,0.3-0.5,0.3-0.8,0.3C162.4,152,162.8,152.1,163.1,152.1z"></path> <path class="st2" d="M112.8,254.5c-0.3,0-0.6,0-0.8-0.4C112.3,254.1,112.7,254,112.8,254.5z"></path> <path class="st2" d="M233.6,158.1L233.6,158.1L233.6,158.1z"></path> <path class="st2" d="M339.5,341.4c0,0.3-0.1,0.4-0.4,0.4C339,341.5,339.1,341.3,339.5,341.4z"></path> <path class="st2" d="M336.1,296.3c0-0.4,0.3-0.3,0.6-0.3C336.5,296.1,336.3,296.2,336.1,296.3z"></path> <path class="st2" d="M225.1,81c0.1,0.1,0.3,0.2,0.4,0.3C225.3,81.4,225.1,81.4,225.1,81z"></path> <path class="st2" d="M294.7,222.2c-0.2-0.1-0.5-0.3-0.4-0.6C294.7,221.6,294.8,221.8,294.7,222.2z"></path> <path class="st2" d="M338.7,342.1c-0.2,0.1-0.4,0.3-0.6,0.4C338.3,342.4,338.5,342.3,338.7,342.1z"></path> <path class="st2" d="M340.9,267.8c-0.1,0.1-0.2,0.2-0.3,0.3C340.6,267.9,340.7,267.7,340.9,267.8z"></path> <path class="st2" d="M339.1,341.8c0,0.3-0.2,0.4-0.4,0.4C338.7,341.9,338.8,341.7,339.1,341.8z"></path> <path class="st2" d="M184.9,431.6c-0.3-0.1-0.5-0.2-0.8-0.4c-0.3-0.1-0.5-0.2-0.8-0.3c0-0.1,0-0.2-0.1-0.3l0,0 c2.2-0.2,4.3,0.5,6.5,0.7c-0.3,0.6-0.3,1.4-0.3,2C188,432.7,186.5,432.1,184.9,431.6z"></path> <path class="st2" d="M152.6,376.3c-0.2-0.1-0.4-0.2-0.3-0.5C152.6,375.8,152.6,376,152.6,376.3z"></path> <path class="st2" d="M237.5,240.4c0.4,0.1,0.8,0.3,1,0.8C237.9,241.3,237.7,240.8,237.5,240.4z"></path> <path class="st2" d="M238.5,241.2c0.1,0.1,0.3,0.3,0.4,0.4C238.6,241.6,238.4,241.5,238.5,241.2z"></path> <path class="st2" d="M238.8,241.5c0.2,0,0.4,0.1,0.4,0.4C238.9,242,238.8,241.8,238.8,241.5z"></path> <path class="st2" d="M248.9,457.4c-0.2-0.8-0.2-1.5,1-1c2.7,1.1,5.4,1.2,8.2,0.5c-1.1,2.5-2,2.8-4.4,1.7 C252.2,457.8,250.7,456.8,248.9,457.4z"></path> <path class="st2" d="M258.1,456.8c0.1-0.4,0.4-0.4,0.8-0.4C258.6,456.7,258.5,456.9,258.1,456.8z"></path> <path class="st2" d="M213.1,258.5c-4.8,0.4-9.6,0.9-14.4,0.1C203.5,257,208.3,256.3,213.1,258.5z"></path> <path class="st2" d="M228,370.7c1-2.8,3.6-2.2,5.7-2.7C231.8,369,230,370.1,228,370.7z"></path> <path class="st2" d="M227,371.7c-0.1-0.3,0.2-0.4,0.4-0.4C227.4,371.6,227.2,371.7,227,371.7z"></path> <path class="st2" d="M145.6,357.7c0.3,0,0.6,0.1,0.8,0.4C146.1,358.1,145.7,358.2,145.6,357.7z"></path> <path class="st2" d="M276.9,446.1c0-0.4,0-0.9,0.4-1.1C277.4,445.4,277.3,445.8,276.9,446.1z"></path> <path class="st2" d="M274.7,449.1c0.1-0.4,0.3-0.7,0.8-0.8c0,0.2,0,0.5,0,0.7C275.2,449.1,275,449.3,274.7,449.1z"></path> <path class="st2" d="M277.7,444.3c0-0.3,0-0.6,0.4-0.8C278.1,443.8,278.1,444.2,277.7,444.3z"></path> <path class="st2" d="M278.4,442.8c0.1-0.3,0.3-0.5,0.4-0.8C278.8,442.3,278.9,442.7,278.4,442.8z"></path> <path class="st2" d="M278,443.5c0-0.3,0.1-0.6,0.4-0.8C278.5,443.1,278.5,443.4,278,443.5z"></path> <path class="st2" d="M277.3,445c0-0.3,0-0.6,0.4-0.8C277.7,444.6,277.8,444.9,277.3,445z"></path> <path class="st2" d="M276.6,446.7c0-0.3,0-0.6,0.4-0.7C276.8,446.3,276.7,446.5,276.6,446.7z"></path> <path class="st2" d="M275.8,447.9c-0.1-0.4,0-0.6,0.5-0.7C276.1,447.5,276,447.7,275.8,447.9z"></path> <path class="st2" d="M278.8,442c0.1-0.2,0.3-0.4,0.4-0.6C279.1,441.7,279.1,442,278.8,442z"></path> <path class="st2" d="M275.5,448.3c0-0.3,0.1-0.4,0.4-0.4C275.8,448.2,275.7,448.3,275.5,448.3z"></path> <path class="st2" d="M247.1,485.6c0,1.2-0.5,2.1-1.1,3C245.8,487.4,245.6,486.2,247.1,485.6z"></path> <path class="st2" d="M183.4,430.6l-0.1-0.1L183.4,430.6z"></path> <path class="st2" d="M190.5,280.8c0.1,0.1,0.2,0.2,0.3,0.3C190.7,281,190.6,280.9,190.5,280.8z"></path> <path class="st2" d="M224.6,366.6c-0.2,0.3-0.6,0.4-1,0.4C223.9,366.5,224.3,366.6,224.6,366.6z"></path> <path class="st2" d="M225.2,366.2c-0.1,0.3-0.3,0.4-0.6,0.4C224.8,366.4,225,366.3,225.2,366.2z"></path> <path class="st2" d="M274.3,449.8c-0.4-0.5,0-0.6,0.4-0.8C275,449.5,274.7,449.7,274.3,449.8z"></path> <path class="st2" d="M199.3,380.6c-0.1,0.1-0.3,0.3-0.4,0.4C198.9,380.7,199,380.6,199.3,380.6z"></path> <path class="st2" d="M198.9,381c0,0.2-0.2,0.4-0.4,0.4C198.4,381,198.6,380.9,198.9,381z"></path> <path class="st2" d="M215.2,277.8c-2.3-0.9-3.6-2.4-3.7-4.9c0-0.5-0.1-1.1-0.2-1.6c-0.3-1.1,0.3-2.7-1.2-3.2 c-1.8-0.5-3.6-0.7-5.3,0.4c-3.2,2.2-6.3,4.5-9.2,7.1c0-1.6,1.2-2.5,2.1-3.5c2.8-2.7,6.2-4.4,9.7-5.8c1.9-0.8,4.2,0.3,4.3,2.2 C211.9,272,212.9,275.1,215.2,277.8z"></path> <path class="st2" d="M231.1,275.6c0,0.5,0,1,0,1.5c-0.9,0.2-1.4-0.5-1.4-1.1C229.8,275.1,230.6,275.7,231.1,275.6z"></path> <path class="st2" d="M215.9,278.3c-0.3-0.1-0.7-0.1-0.7-0.5C215.6,277.7,215.8,277.9,215.9,278.3z"></path> <path class="st2" d="M231.1,277.1c0.1,0.1,0.2,0.1,0.3,0.2C231.2,277.3,231.1,277.4,231.1,277.1z"></path> <path class="st2" d="M195.6,275.5c-0.1,0.2-0.2,0.4-0.3,0.5C195.3,275.8,195.3,275.6,195.6,275.5z"></path> </g> </svg> 