<?xml version="1.0" encoding="utf-8"?>
<!-- Generator: Adobe Illustrator 25.3.1, SVG Export Plug-In . SVG Version: 6.00 Build 0)  -->
<svg version="1.1" id="Calque_1" xmlns="http://www.w3.org/2000/svg" xmlns:xlink="http://www.w3.org/1999/xlink" x="0px" y="0px"
	 viewBox="0 0 100 100" style="enable-background:new 0 0 100 100;" xml:space="preserve">
<style type="text/css">
	.st0{fill:#C81E1E;}
	.st1{fill:#F44335;}
	.st2{fill:#0377BC;}
	.st3{fill:#02A9F4;}
	.st4{fill:#DFC49C;}
	.st5{fill:#FFE0B2;}
	.st6{fill:#FEC108;}
	.st7{fill:#FFDC00;}
	.st8{fill:#CFD8DC;}
	.st9{fill:#F5F5F5;}
	.st10{fill:#37474F;}
	.st11{fill:#707070;}
	.st12{fill:#9E9E9E;}
	.st13{fill:#624421;}
	.st14{fill:#825A2C;}
	.st15{clip-path:url(#SVGID_2_);fill:#FFDC00;}
	.st16{clip-path:url(#SVGID_2_);}
	.st17{clip-path:url(#SVGID_4_);}
	.st18{clip-path:url(#SVGID_6_);}
	.st19{clip-path:url(#SVGID_8_);}
	.st20{fill:#86BF58;}
	.st21{fill:#1F2C58;}
	.st22{clip-path:url(#SVGID_10_);fill:#1F2C58;}
	.st23{clip-path:url(#SVGID_12_);fill:#1F2C58;}
	.st24{fill:#F7D400;}
	.st25{clip-path:url(#SVGID_14_);fill:#1F2C58;}
	.st26{clip-path:url(#SVGID_16_);fill:#1F2C58;}
	.st27{fill:#3F597D;}
	.st28{fill:#193651;}
	.st29{fill:#FFFFFF;}
	.st30{fill:none;}
	.st31{fill:#FF6161;}
	.st32{fill:#FAD207;}
</style>
<g>
	<g>
		<path class="st20" d="M67.2,15.2h0.4c2.6,0,4.7-2.1,4.7-4.7c0-2.6-2.1-4.7-4.7-4.7H53.5c-2.6,0-4.7,2.1-4.7,4.7
			c0,2.6,2.1,4.7,4.7,4.7h0.4v7.7h6.7h6.7V15.2z"/>
		<path class="st20" d="M60.5,22.9C39.8,22.9,23,39.7,23,60.4c0,20.7,16.8,37.5,37.5,37.5C81.3,97.9,98,81.2,98,60.4
			C98,39.7,81.3,22.9,60.5,22.9z"/>
	</g>
	<g>
		<defs>
			<rect id="SVGID_11_" y="3.9" width="100" height="96.1"/>
		</defs>
		<clipPath id="SVGID_2_">
			<use xlink:href="#SVGID_11_"  style="overflow:visible;"/>
		</clipPath>
		<path style="clip-path:url(#SVGID_2_);fill:#1F2C58;" d="M99.8,56.5c-0.9-9-4.9-17.5-11.4-24c-5.5-5.5-12.2-9-19.3-10.6v-5
			c2.9-0.7,5-3.3,5-6.4c0-3.7-3-6.6-6.6-6.6H53.5c-3.7,0-6.6,3-6.6,6.6c0,3.1,2.1,5.7,5,6.4v5c-7.1,1.6-13.8,5.1-19.2,10.6
			c-1.2,1.2-2.3,2.5-3.3,3.8c0,0-0.1,0-0.1,0H15.3c-1.1,0-2,0.9-2,2c0,1.1,0.9,2,2,2h11.4c-1.4,2.4-2.6,4.9-3.5,7.5H2
			c-1.1,0-2,0.9-2,2c0,1.1,0.9,2,2,2h20.2c-0.6,2.5-0.9,5-1,7.5h-8.6c-1.1,0-2,0.9-2,2c0,1.1,0.9,2,2,2h8.7c0.2,2.5,0.6,5,1.2,7.5
			H9.8c-1.1,0-2,0.9-2,2c0,1.1,0.9,2,2,2h13.9c1.9,5.1,4.9,9.8,9,13.9c6.4,6.4,15,10.5,24,11.4c1.3,0.1,2.6,0.2,3.9,0.2
			c7.6,0,15.1-2.2,21.5-6.4c0.9-0.6,1.2-1.8,0.6-2.7c-0.6-0.9-1.8-1.2-2.7-0.6c-14,9.1-32.7,7.1-44.5-4.7
			c-13.9-13.9-13.9-36.4,0-50.3c13.9-13.9,36.4-13.9,50.3,0c11.8,11.8,13.8,30.5,4.7,44.5c-0.6,0.9-0.3,2.1,0.6,2.7
			c0.9,0.6,2.1,0.3,2.7-0.6C98.5,74.4,100.7,65.4,99.8,56.5L99.8,56.5z M50.8,10.5c0-1.5,1.2-2.7,2.7-2.7h14.1
			c1.5,0,2.7,1.2,2.7,2.7c0,1.5-1.2,2.7-2.7,2.7H53.5C52,13.3,50.8,12.1,50.8,10.5L50.8,10.5z M55.8,21.3v-4.1h9.5v4.1
			C62.1,20.9,58.9,20.9,55.8,21.3L55.8,21.3z M55.8,21.3"/>
	</g>
	<path class="st21" d="M87.1,85c-0.5,0-1,0.2-1.4,0.6c-0.4,0.4-0.6,0.9-0.6,1.4c0,0.5,0.2,1,0.6,1.4c0.4,0.4,0.9,0.6,1.4,0.6
		c0.5,0,1-0.2,1.4-0.6C88.8,88,89,87.5,89,87c0-0.5-0.2-1-0.6-1.4C88.1,85.2,87.6,85,87.1,85L87.1,85z M87.1,85"/>
	<path class="st21" d="M60.5,30.1c-16.7,0-30.3,13.6-30.3,30.3c0,16.7,13.6,30.3,30.3,30.3c16.7,0,30.3-13.6,30.3-30.3
		C90.8,43.7,77.3,30.1,60.5,30.1L60.5,30.1z M60.5,86.8C46,86.8,34.2,75,34.2,60.4c0-14.6,11.8-26.4,26.4-26.4
		c14.6,0,26.4,11.8,26.4,26.4C86.9,75,75.1,86.8,60.5,86.8L60.5,86.8z M60.5,86.8"/>
	<path class="st21" d="M72.9,45.3L63.2,55c-0.8-0.4-1.7-0.6-2.7-0.6c-1,0-1.9,0.2-2.7,0.6l-4.3-4.3c-0.8-0.8-2-0.8-2.8,0
		c-0.8,0.8-0.8,2,0,2.8l4.3,4.3c-0.4,0.8-0.6,1.7-0.6,2.7c0,3.3,2.7,6.1,6.1,6.1c3.3,0,6.1-2.7,6.1-6.1c0-1-0.2-1.9-0.6-2.7l9.7-9.7
		c0.8-0.8,0.8-2,0-2.8C74.9,44.6,73.7,44.6,72.9,45.3L72.9,45.3z M60.5,62.6c-1.2,0-2.2-1-2.2-2.2c0-1.2,1-2.2,2.2-2.2
		c1.2,0,2.2,1,2.2,2.2C62.7,61.6,61.7,62.6,60.5,62.6L60.5,62.6z M60.5,62.6"/>
	<path class="st21" d="M81.4,58.5h-1.8c-1.1,0-2,0.9-2,2c0,1.1,0.9,2,2,2h1.8c1.1,0,2-0.9,2-2C83.4,59.4,82.5,58.5,81.4,58.5
		L81.4,58.5z M81.4,58.5"/>
	<path class="st21" d="M41.5,58.5h-1.8c-1.1,0-2,0.9-2,2c0,1.1,0.9,2,2,2h1.8c1.1,0,2-0.9,2-2C43.4,59.3,42.6,58.5,41.5,58.5
		L41.5,58.5z M41.5,58.5"/>
	<path class="st21" d="M60.6,43.3c1.1,0,2-0.9,2-2v-1.8c0-1.1-0.9-2-2-2c-1.1,0-2,0.9-2,2v1.8C58.6,42.5,59.5,43.3,60.6,43.3
		L60.6,43.3z M60.6,43.3"/>
	<path class="st21" d="M60.5,77.6c-1.1,0-2,0.9-2,2v1.8c0,1.1,0.9,2,2,2c1.1,0,2-0.9,2-2v-1.8C62.5,78.4,61.6,77.6,60.5,77.6
		L60.5,77.6z M60.5,77.6"/>
	<path class="st21" d="M2,70.5c-0.5,0-1,0.2-1.4,0.6C0.2,71.5,0,72,0,72.5c0,0.5,0.2,1,0.6,1.4c0.4,0.4,0.9,0.6,1.4,0.6
		c0.5,0,1-0.2,1.4-0.6c0.4-0.4,0.6-0.9,0.6-1.4c0-0.5-0.2-1-0.6-1.4C3,70.8,2.5,70.5,2,70.5L2,70.5z M2,70.5"/>
</g>
</svg>
