<?xml version="1.0" encoding="utf-8"?>
<!-- Generator: Adobe Illustrator 25.3.1, SVG Export Plug-In . SVG Version: 6.00 Build 0)  -->
<svg version="1.1" id="Calque_1" xmlns="http://www.w3.org/2000/svg" xmlns:xlink="http://www.w3.org/1999/xlink" x="0px" y="0px"
	 viewBox="0 0 100 100" style="enable-background:new 0 0 100 100;" xml:space="preserve">
<style type="text/css">
	.st0{fill:#C81E1E;}
	.st1{fill:#F44335;}
	.st2{fill:#0377BC;}
	.st3{fill:#02A9F4;}
	.st4{fill:#DFC49C;}
	.st5{fill:#FFE0B2;}
	.st6{fill:#FEC108;}
	.st7{fill:#FFDC00;}
	.st8{fill:#CFD8DC;}
	.st9{fill:#F5F5F5;}
	.st10{fill:#37474F;}
	.st11{fill:#707070;}
	.st12{fill:#9E9E9E;}
	.st13{fill:#624421;}
	.st14{fill:#825A2C;}
	.st15{clip-path:url(#SVGID_2_);fill:#FFDC00;}
	.st16{clip-path:url(#SVGID_2_);}
	.st17{clip-path:url(#SVGID_4_);}
	.st18{clip-path:url(#SVGID_6_);}
	.st19{clip-path:url(#SVGID_8_);}
	.st20{fill:#86BF58;}
	.st21{fill:#1F2C58;}
	.st22{clip-path:url(#SVGID_10_);fill:#1F2C58;}
	.st23{clip-path:url(#SVGID_12_);fill:#1F2C58;}
	.st24{fill:#F7D400;}
	.st25{clip-path:url(#SVGID_14_);fill:#1F2C58;}
	.st26{clip-path:url(#SVGID_16_);fill:#1F2C58;}
	.st27{fill:#3F597D;}
	.st28{fill:#193651;}
	.st29{fill:#FFFFFF;}
	.st30{fill:none;}
	.st31{fill:#FF6161;}
	.st32{fill:#FAD207;}
</style>
<g>
	<path class="st20" d="M75.9,44.3c0.8-2.6,1.3-5.4,1.3-8.4c0-15-12.2-27.2-27.2-27.2S22.7,20.9,22.7,36c0,2.9,0.5,5.7,1.3,8.4
		C11.3,46.6,1.6,57.8,1.6,71.2c0,15,12.2,27.2,27.2,27.2c8.5,0,16.2-3.9,21.2-10.1c5,6.2,12.6,10.1,21.2,10.1
		c15,0,27.2-12.2,27.2-27.2C98.4,57.7,88.7,46.6,75.9,44.3z"/>
	<path class="st21" d="M53.7,63.5c-0.1,0-0.1,0-0.2,0c0.8,2.4,1.2,5,1.2,7.7C54.6,85.4,43.1,97,28.8,97c-2.4,0-4.8-0.3-7.1-1
		c-0.8-0.2-1.6,0.2-1.8,1c-0.2,0.8,0.2,1.6,1,1.8c2.6,0.7,5.2,1.1,7.9,1.1c15.8,0,28.7-12.9,28.7-28.7c0-2.6-0.4-5.1-1-7.5
		C55.6,63.7,54.6,63.7,53.7,63.5z"/>
	<path class="st21" d="M77.8,43.2c0.6-2.3,0.9-4.8,0.9-7.3c0-15.9-12.9-28.8-28.8-28.8c-4.4,0-8.7,1-12.6,2.9c-0.7,0.4-1,1.2-0.7,2
		c0.4,0.7,1.2,1,2,0.7c3.5-1.7,7.3-2.6,11.3-2.6c14.3,0,25.9,11.6,25.9,25.9c0,2.3-0.3,4.6-0.9,6.7c-1.2-0.2-2.5-0.2-3.7-0.2
		c-0.4,0-0.9,0-1.3,0c0,0-0.1,0-0.1,0c-0.1,0-0.1,0-0.2,0c-5.6,0.3-11,2.2-15.5,5.6c-1.5,1.1-2.9,2.4-4.1,3.7
		c-1.2-1.3-2.6-2.6-4.1-3.7c-4.6-3.4-10-5.3-15.6-5.6c-0.1,0-0.1,0-0.2,0c0,0,0,0,0,0c-0.4,0-0.8,0-1.3,0c-1.3,0-2.5,0.1-3.8,0.2
		c-0.6-2.2-0.9-4.4-0.9-6.7c0-6.3,2.3-12.5,6.5-17.2c0.5-0.6,0.5-1.5-0.1-2.1c-0.6-0.5-1.5-0.5-2.1,0.1c-4.7,5.3-7.3,12.1-7.3,19.1
		c0,2.5,0.3,5,0.9,7.3C9.4,46.2,0,57.6,0,71.2c0,8.9,4,17.1,11,22.6c0.6,0.5,1.6,0.4,2.1-0.2c0.5-0.6,0.4-1.6-0.2-2.1
		c-6.3-4.9-9.9-12.3-9.9-20.3C2.9,59,11.5,48.7,23,46c3.3,8.9,11,15.7,20.4,17.9c-0.6,2.3-0.9,4.8-0.9,7.3
		c0,15.9,12.9,28.8,28.8,28.8S100,87.1,100,71.2C100,57.6,90.5,46.2,77.8,43.2z M47.9,82.5h4.1c-0.6,1.2-1.3,2.4-2.1,3.5
		C49.2,84.9,48.5,83.7,47.9,82.5z M45.4,71.2c0-0.4,0-0.7,0-1.1c0,0,0.1,0,0.1,0h9.1c0,0.4,0,0.7,0,1.1c0,0.7,0,1.4-0.1,2.1h-9.1
		C45.4,72.6,45.4,71.9,45.4,71.2z M52.8,61.6c-0.9,0.1-1.9,0.2-2.8,0.2c-0.9,0-1.8-0.1-2.7-0.1c0.7-1.8,1.7-3.6,2.8-5.2
		C51.1,58.1,52,59.8,52.8,61.6z M49.9,64.7c1.3,0,2.5-0.1,3.8-0.2c0.2,0.9,0.4,1.8,0.6,2.7h-8.6c0.1-0.9,0.3-1.8,0.6-2.7
		C47.5,64.6,48.7,64.7,49.9,64.7z M53.3,79.5h-6.5c-0.4-1.1-0.7-2.1-0.9-3.3h8.3C53.9,77.4,53.6,78.4,53.3,79.5z M59,60.1V48.4
		c1.1-0.6,2.1-1.1,3.3-1.5v11.7C61.2,59.2,60.1,59.7,59,60.1z M65.2,46.1c1-0.2,2.1-0.4,3.2-0.5V54c-1,1-2,1.9-3.2,2.7V46.1z
		 M71.3,45.4c0.9,0,1.8,0.1,2.6,0.1c-0.7,1.8-1.6,3.4-2.6,5V45.4z M55.8,50.4c0.1-0.1,0.1-0.1,0.2-0.2V61c-0.1,0-0.2,0.1-0.3,0.1
		c-0.9-2.5-2.2-4.9-3.9-7.1C53.1,52.7,54.4,51.5,55.8,50.4z M48.1,54.1c-1.6,2.2-2.9,4.5-3.9,7.1c-0.1,0-0.3-0.1-0.4-0.1V50.2
		c0.1,0.1,0.2,0.1,0.3,0.2C45.6,51.5,46.9,52.7,48.1,54.1z M40.9,60.1c-1.1-0.4-2.2-0.9-3.3-1.5V46.9c1.1,0.4,2.2,0.9,3.3,1.5V60.1z
		 M28.6,45.4v5.1c-1.1-1.5-1.9-3.2-2.6-4.9C26.8,45.4,27.7,45.4,28.6,45.4z M31.5,54v-8.5c1.1,0.1,2.1,0.3,3.2,0.5v10.7
		C33.6,56,32.5,55,31.5,54z M71.2,97.1c-7.7,0-14.6-3.4-19.3-8.7c3.7-4.9,5.7-11,5.7-17.2c0-2.5-0.3-4.9-0.9-7.3
		c9.4-2.2,17-9,20.3-17.9c11.5,2.6,20.1,12.9,20.1,25.2C97.1,85.5,85.5,97.1,71.2,97.1z"/>
</g>
</svg>
