<?xml version="1.0" encoding="utf-8"?>
<!-- Generator: Adobe Illustrator 25.3.1, SVG Export Plug-In . SVG Version: 6.00 Build 0)  -->
<svg version="1.1" id="Calque_1" xmlns="http://www.w3.org/2000/svg" xmlns:xlink="http://www.w3.org/1999/xlink" x="0px" y="0px"
	 viewBox="0 0 100 100" style="enable-background:new 0 0 100 100;" xml:space="preserve">
<style type="text/css">
	.st0{fill:#C81E1E;}
	.st1{fill:#F44335;}
	.st2{fill:#0377BC;}
	.st3{fill:#02A9F4;}
	.st4{fill:#DFC49C;}
	.st5{fill:#FFE0B2;}
	.st6{fill:#FEC108;}
	.st7{fill:#FFDC00;}
	.st8{fill:#CFD8DC;}
	.st9{fill:#F5F5F5;}
	.st10{fill:#37474F;}
	.st11{fill:#707070;}
	.st12{fill:#9E9E9E;}
	.st13{fill:#624421;}
	.st14{fill:#825A2C;}
	.st15{clip-path:url(#SVGID_2_);fill:#FFDC00;}
	.st16{clip-path:url(#SVGID_2_);}
	.st17{clip-path:url(#SVGID_4_);}
	.st18{clip-path:url(#SVGID_6_);}
	.st19{clip-path:url(#SVGID_8_);}
	.st20{fill:#86BF58;}
	.st21{fill:#1F2C58;}
	.st22{clip-path:url(#SVGID_10_);fill:#1F2C58;}
	.st23{clip-path:url(#SVGID_12_);fill:#1F2C58;}
	.st24{fill:#F7D400;}
	.st25{clip-path:url(#SVGID_14_);fill:#1F2C58;}
	.st26{clip-path:url(#SVGID_16_);fill:#1F2C58;}
	.st27{fill:#3F597D;}
	.st28{fill:#193651;}
	.st29{fill:#FFFFFF;}
	.st30{fill:none;}
	.st31{fill:#FF6161;}
	.st32{fill:#FAD207;}
</style>
<g>
	<path class="st20" d="M96.9,82.3L85.1,66.2c0.3-0.2,0.6-0.4,1-0.6c3.7-2,5.2-6.5,3.4-10.3c-1.2-2.6-1-5.7,0.7-8
		c2.5-3.4,1.8-8.1-1.4-10.7c-2.3-1.8-3.3-4.7-2.8-7.5c0.8-4.1-1.9-8.1-6-9.1c-2.8-0.6-5-2.8-5.8-5.6c-1.1-4-5.2-6.5-9.3-5.6
		c-2.8,0.6-5.8-0.3-7.7-2.5c-2.8-3.2-7.5-3.6-10.8-1c-2.3,1.8-5.3,2.2-8,1.1c-3.9-1.7-8.3,0-10.2,3.8c-1,2-2.8,3.5-4.9,4.1
		c-0.6,0.2-1.7,1.3-2.3,1.3c-4.2,0.2-6,3.1-6,7.3l-0.3-0.1c0,2.9-1.6,5.5-4.1,6.9l0.3,0.1c-3.7,2-4.7,5.9-2.9,9.7L8,39.7
		c1.2,2.6,1,5.5-0.7,7.8l-0.1,0.2c-2.5,3.4-1.4,7,1.9,9.6l-0.5-0.1c2.3,1.8,3.3,4.7,2.8,7.5l0.5,0.1c-0.2,1.2,0.3,2.8,1.2,4.3
		L4.6,83.4c-0.5,0.7-0.1,1.7,0.7,1.8l1.9,1.7l5.7,1c0.9,0.2,1.6,0.7,2,1.5l5.2,7.8c0.4,0.8,1.5,0.8,2,0.1l1.7-1.1L32.9,84
		c2.2,0,4.3,1,5.7,2.7c2.8,3.2,7.5,3.6,10.8,1c2.3-1.8,5.3-2.2,8-1.1c3.6,1.5,7.8,0.2,9.8-3.1l10.9,13c0.5,0.7,1.6,0.6,2-0.1l1.9-1
		l3.1-5.9c0.4-0.8,1.2-1.3,2-1.5l7.5-2.3c0.8-0.2,1.2-1.1,0.7-1.8L96.9,82.3z"/>
	<g>
		<defs>
			<rect id="SVGID_9_" y="1" width="100" height="99"/>
		</defs>
		<clipPath id="SVGID_2_">
			<use xlink:href="#SVGID_9_"  style="overflow:visible;"/>
		</clipPath>
		<path style="clip-path:url(#SVGID_2_);fill:#1F2C58;" d="M99.5,82.3L95.6,77c-0.5-0.7-1.4-0.8-2-0.3c-0.7,0.5-0.8,1.4-0.3,2
			l3.6,4.9l-10,1.8c-1.3,0.2-2.4,1.1-3.1,2.3l-4.8,9l-9.6-13.1c1.1-1.7,3-2.8,5.1-2.9c5-0.2,8.9-4.3,8.9-9.3c0-1.5,0.5-3,1.5-4.1
			l4.3,5.9c0.3,0.4,0.7,0.6,1.2,0.6c0.3,0,0.6-0.1,0.9-0.3c0.7-0.5,0.8-1.4,0.3-2l-4.3-5.9c4.1-2.5,5.6-7.6,3.6-12
			c-1-2.1-0.8-4.6,0.6-6.5c2.9-4,2.2-9.6-1.7-12.8c-1.8-1.5-2.7-3.8-2.3-6.1c0.9-4.9-2.2-9.6-7.1-10.7C78,17,76.2,15.2,75.6,13
			c-1.3-4.8-6.2-7.7-11-6.6c-2.3,0.5-4.7-0.3-6.2-2C55,0.5,49.4,0,45.5,3.1C43.7,4.6,41.2,4.9,39,4C34.4,2,29.1,4,27,8.5
			c-1,2.1-3.1,3.5-5.5,3.6c-5,0.2-8.9,4.3-8.9,9.3c0,2.4-1.3,4.5-3.4,5.6c-4.4,2.4-6.2,7.7-4,12.2c1,2.1,0.8,4.6-0.6,6.5
			c-2.9,4-2.2,9.6,1.7,12.8c1.8,1.5,2.7,3.8,2.3,6.1c-0.4,2-0.1,3.9,0.7,5.6l-2.3,3.1c-0.5,0.7-0.3,1.6,0.3,2c0.4,0.3,1.4,0.5,2-0.3
			l1.7-2.3c1.2,1.2,2.8,2.2,4.6,2.6c2.3,0.5,4.1,2.3,4.7,4.5c1,3.8,4.2,6.4,7.9,6.8l-7.4,10l-4.8-9c-0.6-1.2-1.8-2-3.1-2.3l-10-1.8
			l2.3-3.1c0.5-0.7,0.3-1.6-0.3-2c-0.7-0.5-1.6-0.3-2,0.3l-2.6,3.5C0,83.1-0.1,84,0.2,84.9c0.3,0.8,1.1,1.5,2,1.6l10.4,1.9
			c0.4,0.1,0.8,0.4,1,0.7l5,9.4c0.4,0.8,1.2,1.3,2.1,1.4c0.1,0,0.1,0,0.2,0c0.8,0,1.6-0.4,2.1-1.1l9.1-12.4c2.1-0.2,4.2,0.5,5.5,2.1
			c1.8,2.1,4.4,3.2,7,3.2c2,0,4.1-0.7,5.8-2c1.8-1.5,4.3-1.8,6.5-0.9c3.8,1.7,8.2,0.5,10.8-2.5L77,98.9c0.5,0.7,1.3,1.1,2.1,1.1
			c0.1,0,0.1,0,0.2,0c0.9-0.1,1.7-0.6,2.1-1.4l5-9.4c0.2-0.4,0.6-0.7,1-0.7l10.4-1.9c0.9-0.2,1.6-0.8,2-1.6
			C100.1,84,100,83.1,99.5,82.3L99.5,82.3z M58.2,86.2c-3.2-1.4-6.8-0.9-9.5,1.3c-2.7,2.1-6.5,1.8-8.8-0.8c-1.8-2.1-4.4-3.2-7-3.2
			c-0.7,0-1.4,0.1-2.1,0.2c-3.3,0.8-6.7-1.2-7.6-4.5c-0.9-3.3-3.5-5.8-6.9-6.6c-1.6-0.3-3.2-1.5-4.1-3c-0.7-1.3-1.1-2.8-0.8-4.4
			c0.6-3.4-0.7-6.8-3.3-8.9c-2.7-2.1-3.2-6-1.2-8.7c2-2.8,2.4-6.4,0.9-9.5c-1.5-3.1-0.3-6.8,2.7-8.4c3-1.6,4.9-4.8,4.9-8.2
			c0-3.4,2.7-6.2,6.1-6.4c3.4-0.1,6.5-2.2,8-5.3c1.5-3.1,5.1-4.4,8.3-3.1c3.2,1.4,6.8,0.9,9.5-1.3c2.7-2.1,6.5-1.8,8.8,0.8
			c2.3,2.6,5.7,3.7,9.1,3c3.3-0.8,6.7,1.2,7.6,4.5c0.9,3.3,3.5,5.8,6.9,6.6c3.3,0.8,5.5,4,4.8,7.4c-0.6,3.4,0.7,6.8,3.3,8.9
			c2.7,2.1,3.2,6,1.2,8.7c-2,2.8-2.4,6.4-0.9,9.5c1.5,3.1,0.3,6.8-2.7,8.4c-2.8,1.4-5,4.8-4.9,8.2c0,3.4-2.7,6.2-6.1,6.4
			c-3.4,0.1-6.5,2.2-8,5.3C64.9,86.2,61.3,87.5,58.2,86.2L58.2,86.2z M58.2,86.2"/>
	</g>
	<path class="st21" d="M82.7,46.4c0-0.6,0-1.3-0.1-1.9c0-0.8-0.7-1.4-1.5-1.4c-0.8,0-1.4,0.7-1.4,1.5c0,0.6,0,1.2,0,1.8
		C79.8,64,65.5,78.2,48,78.2S16.2,64,16.2,46.4c0-17.5,14.3-31.8,31.8-31.8c14.4,0,27,9.7,30.7,23.5c0.2,0.8,1,1.2,1.8,1
		c0.8-0.2,1.2-1,1-1.8C77.5,22.3,63.7,11.7,48,11.7c-19.1,0-34.7,15.6-34.7,34.7c0,19.1,15.6,34.7,34.7,34.7S82.7,65.6,82.7,46.4
		L82.7,46.4z M82.7,46.4"/>
	<path class="st21" d="M73.2,49.2v-1.9c0-1.6-1-3-2.3-3.6c0.1-0.3,0.2-0.7,0.2-1.1v-2.5c0-2-1.6-3.6-3.6-3.6c-1.1,0-9.8,0-10.6,0
		c-1.3,0-2.4-0.5-3.2-1.5c-0.8-1-1.1-2.2-0.9-3.5l0.8-4.3c0.6-3.3-1-6.6-4-8.1c-0.9-0.4-1.8-0.5-2.7-0.1c-0.9,0.4-1.6,1.1-1.9,2
		l-2,6c-0.3,0.8,0.2,1.6,0.9,1.9c0.8,0.3,1.6-0.2,1.9-0.9l2-6c0-0.1,0.1-0.2,0.2-0.2c0.1,0,0.2-0.1,0.3,0c1.8,0.9,2.8,2.9,2.5,4.9
		l-0.8,4.3c-0.4,2.1,0.2,4.3,1.5,5.9c0.8,0.9,1.8,1.6,2.9,2.1c-0.3,0.6-0.5,1.3-0.5,2v0.8c0,1.2,0.5,2.3,1.2,3.1
		c-0.8,0.9-1.3,2-1.3,3.3c0,1.3,0.5,2.5,1.4,3.4c-0.8,0.9-1.4,2.1-1.4,3.4c0,1.3,0.5,2.4,1.3,3.3c-0.8,0.8-1.3,1.9-1.3,3.1
		c0,0.5,0.1,1.1,0.3,1.6h-9.6c-4.3,0-7-1.2-7-3.1V42.2c2.4-1.5,4.6-4.2,5.9-7.3c0.3-0.7,0-1.6-0.8-1.9c-0.7-0.3-1.6,0-1.9,0.8
		c-0.9,2.1-2.2,3.9-3.6,5.1c-0.6-1.3-1.9-2.2-3.4-2.2h-3c-2.1,0-3.8,1.7-3.8,3.8v21.7c0,2.1,1.7,3.8,3.8,3.8h3
		c1.4,0,2.6-0.7,3.2-1.8c1.5,1,3.8,1.8,7.6,1.8h21.4c1.9,0,3.4-1.5,3.4-3.4v-2.1c0-0.4-0.1-0.7-0.2-1.1c1.1-0.7,1.9-1.9,1.9-3.4
		v-1.9c0-0.5-0.1-0.9-0.2-1.3C72.2,52.3,73.2,50.9,73.2,49.2L73.2,49.2z M34.6,62.2c0,0.5-0.4,0.9-0.9,0.9h-3
		c-0.5,0-0.9-0.4-0.9-0.9V40.5c0-0.5,0.4-0.9,0.9-0.9h3c0.5,0,0.9,0.4,0.9,0.9V62.2z M58.6,50.2c-1.1,0-1.9-0.9-1.9-1.9
		c0-1.1,0.9-1.9,1.9-1.9c1.3,0,9.6,0,10.6,0c0.6,0,1,0.5,1,1v1.9c0,0.6-0.5,1-1,1H58.6z M68.1,54.2V56c0,0.6-0.5,1-1,1h-8.4
		c-1.1,0-1.9-0.9-1.9-1.9c0-1.1,0.9-1.9,1.9-1.9h8.4C67.7,53.2,68.1,53.6,68.1,54.2L68.1,54.2z M67.4,39.6c0.4,0,0.7,0.3,0.7,0.7
		v2.5c0,0.4-0.3,0.7-0.7,0.7h-9.1c-0.8,0-1.5-0.7-1.5-1.5v-0.8c0-0.8,0.7-1.5,1.5-1.5H67.4z M66.4,62.6c0,0.3-0.2,0.5-0.5,0.5h-7.6
		c-0.9,0-1.6-0.7-1.6-1.6c0-0.9,0.7-1.6,1.6-1.6c0.3,0,7.2,0,7.6,0c0.3,0,0.5,0.2,0.5,0.5V62.6z M66.4,62.6"/>
</g>
</svg>
