<?xml version="1.0" encoding="utf-8"?>
<!-- Generator: Adobe Illustrator 25.3.1, SVG Export Plug-In . SVG Version: 6.00 Build 0)  -->
<svg version="1.1" id="Calque_1" xmlns="http://www.w3.org/2000/svg" xmlns:xlink="http://www.w3.org/1999/xlink" x="0px" y="0px"
	 viewBox="0 0 100 100" style="enable-background:new 0 0 100 100;" xml:space="preserve">
<style type="text/css">
	.st0{fill:#C81E1E;}
	.st1{fill:#F44335;}
	.st2{fill:#0377BC;}
	.st3{fill:#02A9F4;}
	.st4{fill:#DFC49C;}
	.st5{fill:#FFE0B2;}
	.st6{fill:#FEC108;}
	.st7{fill:#FFDC00;}
	.st8{fill:#CFD8DC;}
	.st9{fill:#F5F5F5;}
	.st10{fill:#37474F;}
	.st11{fill:#707070;}
	.st12{fill:#9E9E9E;}
	.st13{fill:#624421;}
	.st14{fill:#825A2C;}
	.st15{clip-path:url(#SVGID_2_);fill:#FFDC00;}
	.st16{clip-path:url(#SVGID_2_);}
	.st17{clip-path:url(#SVGID_4_);}
	.st18{clip-path:url(#SVGID_6_);}
	.st19{clip-path:url(#SVGID_8_);}
	.st20{fill:#86BF58;}
	.st21{fill:#1F2C58;}
	.st22{clip-path:url(#SVGID_10_);fill:#1F2C58;}
	.st23{clip-path:url(#SVGID_12_);fill:#1F2C58;}
	.st24{fill:#F7D400;}
	.st25{clip-path:url(#SVGID_14_);fill:#1F2C58;}
	.st26{clip-path:url(#SVGID_16_);fill:#1F2C58;}
	.st27{fill:#3F597D;}
	.st28{fill:#193651;}
	.st29{fill:#FFFFFF;}
	.st30{fill:none;}
	.st31{fill:#FF6161;}
	.st32{fill:#FAD207;}
</style>
<g>
	<g>
		<path class="st20" d="M56.1,54.8C75.8,48.1,91.3,32.5,98,12.9C78.4,19.6,62.8,35.1,56.1,54.8z"/>
		<path class="st20" d="M47.5,63.9c15.4,7.4,33.6,7.4,49,0C81.1,56.5,62.9,56.5,47.5,63.9z"/>
		<path class="st20" d="M29.1,79.6c15.4,7.4,33.6,7.4,49,0C62.7,72.2,44.5,72.2,29.1,79.6z"/>
		<path class="st20" d="M10,94c14.1,6.8,30.8,6.8,45,0C40.8,87.2,24.1,87.2,10,94z"/>
		<path class="st20" d="M9.7,93.7c-6.8-14.1-6.8-30.8,0-45C16.5,62.9,16.5,79.6,9.7,93.7z"/>
		<path class="st20" d="M29.1,79.6c-8-16.7-8-36.3,0-53C37.1,43.3,37.1,62.9,29.1,79.6z"/>
		<path class="st20" d="M47.7,62.5c-7.4-15.4-7.4-33.6,0-49C55.1,28.9,55.1,47.1,47.7,62.5z"/>
	</g>
	<path class="st21" d="M72.1,30c0.5,0,1-0.2,1.4-0.6l0.1-0.1c0.8-0.8,0.8-2,0-2.8s-2-0.8-2.8,0l-0.1,0.1c-0.8,0.8-0.8,2,0,2.8
		C71.1,29.8,71.6,30,72.1,30z"/>
	<path class="st21" d="M83.3,39.1c7.5-7.5,13.2-16.6,16.6-26.6c0.2-0.7,0.1-1.5-0.5-2s-1.3-0.7-2-0.5c-7.8,2.7-15.1,6.7-21.5,12
		c-0.8,0.7-1,1.9-0.3,2.7c0.7,0.8,1.9,1,2.7,0.3c5-4.1,10.4-7.3,16.3-9.8C88.1,31,75.3,43.8,59.5,50.4c2.4-5.7,5.6-11,9.5-15.9
		c0.7-0.8,0.5-2.1-0.3-2.7c-0.8-0.7-2.1-0.5-2.7,0.3c-5.1,6.3-9,13.4-11.7,21.1c0,0.1,0,0.2-0.1,0.2c-0.6,0.6-1.3,1.3-1.9,1.9
		c1.9-5.9,2.9-12.1,2.9-18.3c0-8.8-2-17.5-5.7-25.3c-0.3-0.7-1-1.1-1.8-1.1s-1.4,0.4-1.8,1.1c-3.8,7.8-5.7,16.6-5.7,25.3
		c0,8.5,1.9,17,5.4,24.6C41.8,65,37.9,68.4,34,71.6c2-6.3,3.1-12.9,3.1-19.5c0-9.5-2.1-18.9-6.2-27.4c-0.3-0.7-1-1.1-1.8-1.1
		s-1.4,0.4-1.8,1.1c-4,8.4-6.2,17.9-6.2,27.4c0,8.8,1.8,17.6,5.4,25.5c-4.1,3.2-8.2,6.2-12.4,9.2c1.7-5.3,2.6-11,2.6-16.6
		c0-8.1-1.8-16.1-5.3-23.3c-0.3-0.7-1-1.1-1.8-1.1s-1.4,0.4-1.8,1.1c-3.5,7.2-5.3,15.3-5.3,23.3c0,7.4,1.5,14.7,4.4,21.4
		c-2,1.4-4.1,2.7-6.2,4c-0.9,0.6-1.2,1.8-0.6,2.7c0.4,0.6,1,0.9,1.7,0.9c0.4,0,0.7-0.1,1-0.3c2.1-1.4,4.3-2.7,6.4-4.2
		c7.1,3.4,15.1,5.2,23.1,5.2c8.1,0,16.1-1.8,23.3-5.3c0.7-0.3,1.1-1,1.1-1.8s-0.4-1.4-1.1-1.8c-7.2-3.5-15.3-5.3-23.3-5.3
		c-4.1,0-8.3,0.5-12.3,1.4c3-2.2,5.9-4.4,8.8-6.7c7.6,3.5,16.2,5.4,24.7,5.4c8.8,0,17.5-2,25.3-5.7c0.7-0.3,1.1-1,1.1-1.8
		s-0.4-1.4-1.1-1.8c-7.8-3.8-16.6-5.7-25.3-5.7c-5.2,0-10.4,0.7-15.3,2c3.1-2.6,6.2-5.3,9.2-8c5.3,2.4,11,4.1,16.9,4.8
		c0.1,0,0.2,0,0.3,0c1,0,1.8-0.7,1.9-1.7c0.1-1.1-0.6-2-1.7-2.2c-4.3-0.6-8.4-1.6-12.4-3.1c12.5-4.8,26.6-4.8,39.1,0
		c-3.9,1.5-8,2.5-12.2,3.1c-1.1,0.1-1.8,1.1-1.7,2.2c0.1,1.1,1.1,1.8,2.2,1.7c6.1-0.8,12-2.6,17.5-5.2c0.7-0.3,1.1-1,1.1-1.8
		s-0.4-1.4-1.1-1.8c-7.8-3.8-16.6-5.7-25.3-5.7c-5.7,0-11.3,0.8-16.8,2.4c0.9-0.9,1.8-1.8,2.7-2.6C67.4,51.8,76.2,46.2,83.3,39.1z
		 M47.7,17.4c4.8,12.5,4.8,26.6,0,39.1C42.9,44,42.9,29.9,47.7,17.4z M29.1,30.5c5.4,13.8,5.4,29.4,0,43.2
		C23.8,59.9,23.8,44.3,29.1,30.5z M9.7,52.7c4.2,11.2,4.2,23.8,0,35C5.6,76.5,5.6,64,9.7,52.7z M49.9,93c-11.2,4.2-23.8,4.2-35,0
		C26.2,88.8,38.7,88.8,49.9,93z M73.2,78.6c-12.5,4.8-26.6,4.8-39.1,0C46.6,73.8,60.7,73.8,73.2,78.6z"/>
	<path class="st21" d="M72.6,66.5c-1.1,0-1.9,0.9-1.9,2c0,1.1,0.9,1.9,2,1.9c0,0,0,0,0,0l0.1,0c1.1,0,1.9-0.9,1.9-2
		S73.7,66.5,72.6,66.5L72.6,66.5z"/>
</g>
</svg>
